M48
; DRILL file {KiCad 8.0.5} date 2024-11-10T11:17:45+0100
; FORMAT={-:-/ absolute / inch / decimal}
; #@! TF.CreationDate,2024-11-10T11:17:45+01:00
; #@! TF.GenerationSoftware,Kicad,Pcbnew,8.0.5
; #@! TF.FileFunction,Plated,1,2,PTH
FMAT,2
INCH
; #@! TA.AperFunction,Plated,PTH,ViaDrill
T1C0.0157
; #@! TA.AperFunction,Plated,PTH,ComponentDrill
T2C0.0236
; #@! TA.AperFunction,Plated,PTH,ComponentDrill
T3C0.0335
; #@! TA.AperFunction,Plated,PTH,ViaDrill
T4C0.0394
; #@! TA.AperFunction,Plated,PTH,ComponentDrill
T5C0.0394
; #@! TA.AperFunction,Plated,PTH,ComponentDrill
T6C0.0400
; #@! TA.AperFunction,Plated,PTH,ViaDrill
T7C0.0650
%
G90
G05
T1
X2.3Y-3.99
X2.31Y-4.11
X2.52Y-3.99
X2.52Y-4.12
X3.26Y-2.97
X3.396Y-3.142
X3.615Y-3.616
X3.651Y-3.637
X3.688Y-3.661
X3.726Y-3.685
X3.762Y-3.709
X3.798Y-3.734
X3.836Y-3.761
X4.151Y-3.616
X4.17Y-2.61
X4.49Y-3.15
X4.59Y-2.2
X4.599Y-4.183
X4.81Y-2.12
X4.824Y-3.946
X5.28Y-2.52
X5.3Y-3.7
X5.42Y-3.15
X6.06Y-3.15
X6.106Y-3.01
X6.19Y-3.81
X6.2Y-2.35
X6.35Y-3.23
X6.543Y-1.739
X6.548Y-4.657
X6.77Y-1.66
X6.79Y-4.393
X7.11Y-3.58
X7.5Y-4.32
X7.71Y-2.41
X7.89Y-2.41
X8.22Y-3.23
X8.275Y-1.9214
X8.325Y-1.95
X8.325Y-2.85
X8.39Y-2.61
X8.435Y-2.9331
X8.47Y-1.93
X8.49Y-1.75
X8.5Y-2.43
X8.51Y-2.6
X8.528Y-1.132
X8.534Y-5.238
X8.6Y-3.12
X8.683Y-1.254
X8.74Y-3.47
X8.755Y-4.986
X8.756Y-1.069
T3
X4.1687Y-4.7516
X4.1687Y-4.9484
T4
X3.511Y-3.558
X3.571Y-3.59
X3.883Y-3.797
X3.934Y-3.836
T5
X2.3713Y-5.7733
X2.45Y-5.55
X2.45Y-5.7469
X2.5287Y-5.5235
X2.8586Y-4.65
X2.8586Y-4.75
X2.8586Y-4.85
X2.8586Y-4.95
X2.8586Y-5.05
X3.0586Y-4.65
X3.0586Y-4.75
X3.0586Y-4.85
X3.0586Y-4.95
X3.0586Y-5.05
X7.4482Y-2.2766
X7.4482Y-2.3766
X7.4482Y-2.4766
X7.4482Y-2.5766
X8.7272Y-2.9208
X8.7272Y-3.0208
X8.7272Y-3.1208
X8.7272Y-3.2208
X8.7272Y-3.3208
T6
X2.031Y-4.722
X2.031Y-4.978
X2.209Y-4.722
X2.209Y-4.978
X8.412Y-3.711
X8.412Y-3.889
X8.412Y-4.181
X8.412Y-4.359
X8.668Y-3.711
X8.668Y-3.889
X8.668Y-4.181
X8.668Y-4.359
T7
X8.2Y-2.22
T2
G00X4.2612Y-4.7122
M15
G01X4.2888Y-4.7122
M16
G05
G00X4.2888Y-4.9878
M15
G01X4.2612Y-4.9878
M16
G05
M30
