%TF.GenerationSoftware,KiCad,Pcbnew,8.0.5*%
%TF.CreationDate,2024-11-10T11:17:44+01:00*%
%TF.ProjectId,xmasTree,786d6173-5472-4656-952e-6b696361645f,rev?*%
%TF.SameCoordinates,Original*%
%TF.FileFunction,Copper,L1,Top*%
%TF.FilePolarity,Positive*%
%FSLAX46Y46*%
G04 Gerber Fmt 4.6, Leading zero omitted, Abs format (unit mm)*
G04 Created by KiCad (PCBNEW 8.0.5) date 2024-11-10 11:17:44*
%MOMM*%
%LPD*%
G01*
G04 APERTURE LIST*
G04 Aperture macros list*
%AMRoundRect*
0 Rectangle with rounded corners*
0 $1 Rounding radius*
0 $2 $3 $4 $5 $6 $7 $8 $9 X,Y pos of 4 corners*
0 Add a 4 corners polygon primitive as box body*
4,1,4,$2,$3,$4,$5,$6,$7,$8,$9,$2,$3,0*
0 Add four circle primitives for the rounded corners*
1,1,$1+$1,$2,$3*
1,1,$1+$1,$4,$5*
1,1,$1+$1,$6,$7*
1,1,$1+$1,$8,$9*
0 Add four rect primitives between the rounded corners*
20,1,$1+$1,$2,$3,$4,$5,0*
20,1,$1+$1,$4,$5,$6,$7,0*
20,1,$1+$1,$6,$7,$8,$9,0*
20,1,$1+$1,$8,$9,$2,$3,0*%
G04 Aperture macros list end*
%TA.AperFunction,EtchedComponent*%
%ADD10C,0.000000*%
%TD*%
%TA.AperFunction,SMDPad,CuDef*%
%ADD11R,1.000000X1.500000*%
%TD*%
%TA.AperFunction,ComponentPad*%
%ADD12R,1.700000X1.700000*%
%TD*%
%TA.AperFunction,ComponentPad*%
%ADD13O,1.700000X1.700000*%
%TD*%
%TA.AperFunction,SMDPad,CuDef*%
%ADD14R,1.500000X1.000000*%
%TD*%
%TA.AperFunction,SMDPad,CuDef*%
%ADD15R,1.350000X0.400000*%
%TD*%
%TA.AperFunction,ComponentPad*%
%ADD16O,1.900000X1.200000*%
%TD*%
%TA.AperFunction,SMDPad,CuDef*%
%ADD17R,1.900000X1.200000*%
%TD*%
%TA.AperFunction,ComponentPad*%
%ADD18C,1.450000*%
%TD*%
%TA.AperFunction,SMDPad,CuDef*%
%ADD19R,1.900000X1.500000*%
%TD*%
%TA.AperFunction,ComponentPad*%
%ADD20R,2.000000X2.000000*%
%TD*%
%TA.AperFunction,ComponentPad*%
%ADD21C,2.000000*%
%TD*%
%TA.AperFunction,SMDPad,CuDef*%
%ADD22RoundRect,0.250000X0.475000X-0.337500X0.475000X0.337500X-0.475000X0.337500X-0.475000X-0.337500X0*%
%TD*%
%TA.AperFunction,SMDPad,CuDef*%
%ADD23RoundRect,0.250000X0.450000X-0.350000X0.450000X0.350000X-0.450000X0.350000X-0.450000X-0.350000X0*%
%TD*%
%TA.AperFunction,ComponentPad*%
%ADD24C,1.879600*%
%TD*%
%TA.AperFunction,SMDPad,CuDef*%
%ADD25R,1.500000X2.000000*%
%TD*%
%TA.AperFunction,SMDPad,CuDef*%
%ADD26R,3.800000X2.000000*%
%TD*%
%TA.AperFunction,ViaPad*%
%ADD27C,0.800000*%
%TD*%
%TA.AperFunction,ViaPad*%
%ADD28C,2.032000*%
%TD*%
%TA.AperFunction,ViaPad*%
%ADD29C,0.500000*%
%TD*%
%TA.AperFunction,ViaPad*%
%ADD30C,1.100000*%
%TD*%
%TA.AperFunction,Conductor*%
%ADD31C,0.254000*%
%TD*%
%TA.AperFunction,Conductor*%
%ADD32C,0.406400*%
%TD*%
%TA.AperFunction,Conductor*%
%ADD33C,0.609600*%
%TD*%
G04 APERTURE END LIST*
D10*
%TA.AperFunction,EtchedComponent*%
%TO.C,JP1*%
G36*
X194575000Y-65705000D02*
G01*
X194075000Y-65705000D01*
X194075000Y-65105000D01*
X194575000Y-65105000D01*
X194575000Y-65705000D01*
G37*
%TD.AperFunction*%
%TD*%
D11*
%TO.P,JP1,1,A*%
%TO.N,+3.3V*%
X194975000Y-65405000D03*
%TO.P,JP1,2,B*%
%TO.N,Net-(J5-Pin_1)*%
X193675000Y-65405000D03*
%TD*%
D12*
%TO.P,J5,1,Pin_1*%
%TO.N,Net-(J5-Pin_1)*%
X189185000Y-65445000D03*
D13*
%TO.P,J5,2,Pin_2*%
%TO.N,GND*%
X189185000Y-62905000D03*
%TO.P,J5,3,Pin_3*%
%TO.N,/RX*%
X189185000Y-60365000D03*
%TO.P,J5,4,Pin_4*%
%TO.N,/TX*%
X189185000Y-57825000D03*
%TD*%
D11*
%TO.P,D1,1,VDD*%
%TO.N,+5V*%
X222072000Y-24798000D03*
%TO.P,D1,2,DOUT*%
%TO.N,Net-(D1-DOUT)*%
X218872000Y-24798000D03*
%TO.P,D1,3,VSS*%
%TO.N,GND*%
X218872000Y-29698000D03*
%TO.P,D1,4,DIN*%
%TO.N,/LED_H*%
X222072000Y-29698000D03*
%TD*%
%TO.P,D3,1,VDD*%
%TO.N,+5V*%
X122256000Y-51298000D03*
%TO.P,D3,2,DOUT*%
%TO.N,Net-(D3-DOUT)*%
X119056000Y-51298000D03*
%TO.P,D3,3,VSS*%
%TO.N,GND*%
X119056000Y-56198000D03*
%TO.P,D3,4,DIN*%
%TO.N,Net-(D2-DOUT)*%
X122256000Y-56198000D03*
%TD*%
D14*
%TO.P,D4,1,VDD*%
%TO.N,+5V*%
X78906000Y-77648000D03*
%TO.P,D4,2,DOUT*%
%TO.N,Net-(D4-DOUT)*%
X78906000Y-80848000D03*
%TO.P,D4,3,VSS*%
%TO.N,GND*%
X83806000Y-80848000D03*
%TO.P,D4,4,DIN*%
%TO.N,Net-(D3-DOUT)*%
X83806000Y-77648000D03*
%TD*%
D11*
%TO.P,D5,1,VDD*%
%TO.N,+5V*%
X119056000Y-107198000D03*
%TO.P,D5,2,DOUT*%
%TO.N,Net-(D5-DOUT)*%
X122256000Y-107198000D03*
%TO.P,D5,3,VSS*%
%TO.N,GND*%
X122256000Y-102298000D03*
%TO.P,D5,4,DIN*%
%TO.N,Net-(D4-DOUT)*%
X119056000Y-102298000D03*
%TD*%
%TO.P,D6,1,VDD*%
%TO.N,+5V*%
X168756000Y-118698000D03*
%TO.P,D6,2,DOUT*%
%TO.N,Net-(D6-DOUT)*%
X171956000Y-118698000D03*
%TO.P,D6,3,VSS*%
%TO.N,GND*%
X171956000Y-113798000D03*
%TO.P,D6,4,DIN*%
%TO.N,Net-(D5-DOUT)*%
X168756000Y-113798000D03*
%TD*%
%TO.P,D7,1,VDD*%
%TO.N,+5V*%
X218872000Y-133698000D03*
%TO.P,D7,2,DOUT*%
%TO.N,unconnected-(D7-DOUT-Pad2)*%
X222072000Y-133698000D03*
%TO.P,D7,3,VSS*%
%TO.N,GND*%
X222072000Y-128798000D03*
%TO.P,D7,4,DIN*%
%TO.N,Net-(D6-DOUT)*%
X218872000Y-128798000D03*
%TD*%
%TO.P,D2,1,VDD*%
%TO.N,+5V*%
X171956000Y-39798000D03*
%TO.P,D2,2,DOUT*%
%TO.N,Net-(D2-DOUT)*%
X168756000Y-39798000D03*
%TO.P,D2,3,VSS*%
%TO.N,GND*%
X168756000Y-44698000D03*
%TO.P,D2,4,DIN*%
%TO.N,Net-(D1-DOUT)*%
X171956000Y-44698000D03*
%TD*%
D15*
%TO.P,J1,1,VBUS*%
%TO.N,+5VA*%
X105885500Y-124490000D03*
%TO.P,J1,2,D-*%
%TO.N,unconnected-(J1-D--Pad2)*%
X105885500Y-123840000D03*
%TO.P,J1,3,D+*%
%TO.N,unconnected-(J1-D+-Pad3)*%
X105885500Y-123190000D03*
%TO.P,J1,4,ID*%
%TO.N,unconnected-(J1-ID-Pad4)*%
X105885500Y-122540000D03*
%TO.P,J1,5,GND*%
%TO.N,GND1*%
X105885500Y-121890000D03*
D16*
%TO.P,J1,6,Shield*%
X108585500Y-126690000D03*
D17*
X108585500Y-126090000D03*
D18*
X105885500Y-125690000D03*
D19*
X108585500Y-124190000D03*
X108585500Y-122190000D03*
D18*
X105885500Y-120690000D03*
D17*
X108585500Y-120290000D03*
D16*
X108585500Y-119690000D03*
%TD*%
D20*
%TO.P,C10,1*%
%TO.N,+3.3VA*%
X64230000Y-140297856D03*
X62230000Y-140970000D03*
D21*
%TO.P,C10,2*%
%TO.N,GND1*%
X62230000Y-145970000D03*
X60230000Y-146642144D03*
%TD*%
D22*
%TO.P,C9,1*%
%TO.N,+5VA*%
X67818000Y-114089000D03*
%TO.P,C9,2*%
%TO.N,GND1*%
X67818000Y-112014000D03*
%TD*%
D12*
%TO.P,J4,1,Pin_1*%
%TO.N,GND1*%
X77688000Y-128270000D03*
D13*
%TO.P,J4,2,Pin_2*%
%TO.N,/MODES1*%
X77688000Y-125730000D03*
%TO.P,J4,3,Pin_3*%
%TO.N,+3.3VA*%
X77688000Y-123190000D03*
%TO.P,J4,4,Pin_4*%
%TO.N,+5VA*%
X77688000Y-120650000D03*
%TO.P,J4,5,Pin_5*%
%TO.N,GND1*%
X77688000Y-118110000D03*
%TD*%
D12*
%TO.P,J2,1,Pin_1*%
%TO.N,GND1*%
X72608000Y-128270000D03*
D13*
%TO.P,J2,2,Pin_2*%
%TO.N,/MODES1*%
X72608000Y-125730000D03*
%TO.P,J2,3,Pin_3*%
%TO.N,+3.3VA*%
X72608000Y-123190000D03*
%TO.P,J2,4,Pin_4*%
%TO.N,+5VA*%
X72608000Y-120650000D03*
%TO.P,J2,5,Pin_5*%
%TO.N,GND1*%
X72608000Y-118110000D03*
%TD*%
D12*
%TO.P,J3,1,Pin_1*%
%TO.N,GND*%
X221670000Y-74189500D03*
D13*
%TO.P,J3,2,Pin_2*%
%TO.N,/MODES*%
X221670000Y-76729500D03*
%TO.P,J3,3,Pin_3*%
%TO.N,+3.3V*%
X221670000Y-79269500D03*
%TO.P,J3,4,Pin_4*%
%TO.N,+5V*%
X221670000Y-81809500D03*
%TO.P,J3,5,Pin_5*%
%TO.N,GND*%
X221670000Y-84349500D03*
%TD*%
D23*
%TO.P,R5,1*%
%TO.N,+3.3VA*%
X67818000Y-134350000D03*
%TO.P,R5,2*%
%TO.N,/MODES1*%
X67818000Y-132350000D03*
%TD*%
D24*
%TO.P,S3,1,1*%
%TO.N,/MODES1*%
X56108600Y-119938800D03*
%TO.P,S3,2,2*%
%TO.N,GND1*%
X56108600Y-126441200D03*
%TO.P,S3,3*%
%TO.N,N/C*%
X51587400Y-119938800D03*
%TO.P,S3,4*%
X51587400Y-126441200D03*
%TD*%
D25*
%TO.P,U1,1,GND*%
%TO.N,GND1*%
X58914000Y-107544000D03*
%TO.P,U1,2,VO*%
%TO.N,+3.3VA*%
X61214000Y-107544000D03*
D26*
X61214000Y-101244000D03*
D25*
%TO.P,U1,3,VI*%
%TO.N,+5VA*%
X63514000Y-107544000D03*
%TD*%
D24*
%TO.P,S1,1,1*%
%TO.N,/EN*%
X220167200Y-94259400D03*
%TO.P,S1,2,2*%
%TO.N,GND*%
X213664800Y-94259400D03*
%TO.P,S1,3*%
%TO.N,N/C*%
X220167200Y-98780600D03*
%TO.P,S1,4*%
X213664800Y-98780600D03*
%TD*%
%TO.P,S2,1,1*%
%TO.N,/00*%
X220167200Y-106197400D03*
%TO.P,S2,2,2*%
%TO.N,GND*%
X213664800Y-106197400D03*
%TO.P,S2,3*%
%TO.N,N/C*%
X220167200Y-110718600D03*
%TO.P,S2,4*%
X213664800Y-110718600D03*
%TD*%
D27*
%TO.N,+3.3VA*%
X64008000Y-104648000D03*
X58674000Y-104394000D03*
X58420000Y-101346000D03*
X64008000Y-101346000D03*
%TO.N,/RX*%
X210185000Y-48803000D03*
%TO.N,/TX*%
X211455000Y-49530000D03*
%TO.N,+3.3V*%
X211455000Y-72390000D03*
%TO.N,+5V*%
X161290000Y-82042000D03*
X208788000Y-82042000D03*
X171958000Y-42164000D03*
X122174000Y-53848000D03*
X82804000Y-75438000D03*
X222402400Y-27152600D03*
X166319200Y-118287800D03*
X216763600Y-133045200D03*
X116814600Y-106248200D03*
%TO.N,+3.3V*%
X221996000Y-88138000D03*
X214250000Y-74500000D03*
X218440000Y-79248000D03*
%TO.N,GND*%
X190500000Y-109728000D03*
X137668000Y-80010000D03*
X180594000Y-90932000D03*
X114046000Y-80010000D03*
X215900000Y-61722000D03*
X216154000Y-66040000D03*
X155092400Y-76454000D03*
X105435400Y-91846400D03*
X157226000Y-96774000D03*
X157480000Y-59690000D03*
X153924000Y-80010000D03*
X134620000Y-93980000D03*
X105918000Y-66294000D03*
X215646000Y-44450000D03*
X134112000Y-64008000D03*
X215138000Y-49022000D03*
X195834000Y-61214000D03*
X200406000Y-61214000D03*
D28*
X208280000Y-56388000D03*
D29*
X95554800Y-94208600D03*
D27*
X122529600Y-100228400D03*
X166192200Y-44170600D03*
D30*
X98628200Y-96443800D03*
D29*
X94640400Y-93599000D03*
D27*
X116586000Y-55880000D03*
X172466000Y-111582200D03*
D30*
X90703400Y-91186000D03*
D27*
X86258400Y-79806800D03*
D30*
X89179400Y-90373200D03*
D27*
X216611200Y-28752800D03*
D29*
X92735400Y-92379800D03*
D30*
X99923600Y-97434400D03*
D27*
X222377000Y-126644400D03*
D29*
X96469200Y-94843600D03*
X93675200Y-92989400D03*
X97434400Y-95529400D03*
X91821000Y-91846400D03*
D27*
%TO.N,/LED_H*%
X220548200Y-31851600D03*
%TO.N,/EN*%
X213106000Y-66294000D03*
%TD*%
D31*
%TO.N,/RX*%
X195037000Y-48803000D02*
X210185000Y-48803000D01*
X187325000Y-56515000D02*
X195037000Y-48803000D01*
X187325000Y-58420000D02*
X187325000Y-56515000D01*
X187325000Y-58505000D02*
X187325000Y-58420000D01*
X189185000Y-60365000D02*
X187325000Y-58505000D01*
%TO.N,/TX*%
X197480000Y-49530000D02*
X211455000Y-49530000D01*
X189185000Y-57825000D02*
X197480000Y-49530000D01*
D32*
%TO.N,Net-(J5-Pin_1)*%
X189225000Y-65405000D02*
X189185000Y-65445000D01*
X193675000Y-65405000D02*
X189225000Y-65405000D01*
%TO.N,+3.3V*%
X204470000Y-65405000D02*
X194975000Y-65405000D01*
X211455000Y-72390000D02*
X204470000Y-65405000D01*
%TO.N,+5V*%
X208788000Y-82042000D02*
X161290000Y-82042000D01*
X218872000Y-133698000D02*
X217416400Y-133698000D01*
X171956000Y-39798000D02*
X171956000Y-42162000D01*
X81116000Y-75438000D02*
X78906000Y-77648000D01*
X117764400Y-107198000D02*
X116814600Y-106248200D01*
X217416400Y-133698000D02*
X216763600Y-133045200D01*
X222402400Y-25128400D02*
X222072000Y-24798000D01*
X171956000Y-42162000D02*
X171958000Y-42164000D01*
X166729400Y-118698000D02*
X166319200Y-118287800D01*
X122256000Y-53766000D02*
X122174000Y-53848000D01*
X122256000Y-51298000D02*
X122256000Y-53766000D01*
X119056000Y-107198000D02*
X117764400Y-107198000D01*
X168756000Y-118698000D02*
X166729400Y-118698000D01*
X222402400Y-27152600D02*
X222402400Y-25128400D01*
X82804000Y-75438000D02*
X81116000Y-75438000D01*
%TO.N,+3.3V*%
X218440000Y-84582000D02*
X221996000Y-88138000D01*
X218440000Y-79248000D02*
X218440000Y-84582000D01*
X218440000Y-79248000D02*
X214250000Y-75058000D01*
X214250000Y-75058000D02*
X214250000Y-74500000D01*
%TO.N,GND*%
X168756000Y-44698000D02*
X166719600Y-44698000D01*
X217556400Y-29698000D02*
X216611200Y-28752800D01*
X171956000Y-112092200D02*
X172466000Y-111582200D01*
X119056000Y-56198000D02*
X116904000Y-56198000D01*
X222072000Y-126949400D02*
X222377000Y-126644400D01*
X222072000Y-128798000D02*
X222072000Y-126949400D01*
X85217200Y-80848000D02*
X86258400Y-79806800D01*
X171956000Y-113798000D02*
X171956000Y-112092200D01*
X218872000Y-29698000D02*
X217556400Y-29698000D01*
X122256000Y-102298000D02*
X122256000Y-100502000D01*
X166719600Y-44698000D02*
X166192200Y-44170600D01*
X83806000Y-80848000D02*
X85217200Y-80848000D01*
X116904000Y-56198000D02*
X116586000Y-55880000D01*
X122256000Y-100502000D02*
X122529600Y-100228400D01*
D31*
%TO.N,/LED_H*%
X222072000Y-29698000D02*
X222072000Y-30327800D01*
X222072000Y-30327800D02*
X220548200Y-31851600D01*
%TO.N,Net-(D1-DOUT)*%
X170510200Y-55524400D02*
X170510200Y-46143800D01*
X170510200Y-46143800D02*
X171956000Y-44698000D01*
X171246800Y-56261000D02*
X170510200Y-55524400D01*
X217416400Y-24798000D02*
X185953400Y-56261000D01*
X185953400Y-56261000D02*
X171246800Y-56261000D01*
X218872000Y-24798000D02*
X217416400Y-24798000D01*
%TO.N,Net-(D2-DOUT)*%
X120599200Y-57854800D02*
X122256000Y-56198000D01*
X138201400Y-68580000D02*
X123063000Y-68580000D01*
X168756000Y-39798000D02*
X166983400Y-39798000D01*
X123063000Y-68580000D02*
X120599200Y-66116200D01*
X120599200Y-66116200D02*
X120599200Y-57854800D01*
X166983400Y-39798000D02*
X138201400Y-68580000D01*
%TO.N,Net-(D3-DOUT)*%
X91490600Y-77648000D02*
X83806000Y-77648000D01*
X119056000Y-51298000D02*
X117840600Y-51298000D01*
X117840600Y-51298000D02*
X91490600Y-77648000D01*
%TO.N,Net-(D4-DOUT)*%
X80975000Y-80848000D02*
X86436200Y-86309200D01*
X86436200Y-86309200D02*
X103067200Y-86309200D01*
X78906000Y-80848000D02*
X80975000Y-80848000D01*
X103067200Y-86309200D02*
X119056000Y-102298000D01*
%TO.N,Net-(D5-DOUT)*%
X120573800Y-91871800D02*
X122936000Y-89509600D01*
X122256000Y-107193800D02*
X120573800Y-105511600D01*
X144467600Y-89509600D02*
X168756000Y-113798000D01*
X122256000Y-107198000D02*
X122256000Y-107193800D01*
X120573800Y-105511600D02*
X120573800Y-91871800D01*
X122936000Y-89509600D02*
X144467600Y-89509600D01*
%TO.N,Net-(D6-DOUT)*%
X170383200Y-105130600D02*
X180035200Y-95478600D01*
X171956000Y-118698000D02*
X170383200Y-117125200D01*
X170383200Y-117125200D02*
X170383200Y-105130600D01*
X185552600Y-95478600D02*
X218872000Y-128798000D01*
X180035200Y-95478600D02*
X185552600Y-95478600D01*
%TO.N,/EN*%
X213106000Y-87198200D02*
X213106000Y-66294000D01*
X220167200Y-94259400D02*
X213106000Y-87198200D01*
D33*
%TO.N,GND1*%
X57912000Y-97282000D02*
X55626000Y-99568000D01*
X108585500Y-120290000D02*
X106285500Y-120290000D01*
X55626000Y-99568000D02*
X55626000Y-104256000D01*
X103305500Y-128270000D02*
X105885500Y-125690000D01*
X77688000Y-128270000D02*
X72608000Y-128270000D01*
X55626000Y-104256000D02*
X58914000Y-107544000D01*
X108585500Y-122190000D02*
X108585500Y-120290000D01*
X103305500Y-118110000D02*
X105885500Y-120690000D01*
X67818000Y-99822000D02*
X65278000Y-97282000D01*
X72608000Y-135592000D02*
X72608000Y-128270000D01*
X60230000Y-146642144D02*
X61557856Y-146642144D01*
X77688000Y-118110000D02*
X72608000Y-118110000D01*
X72608000Y-114518000D02*
X70104000Y-112014000D01*
X72608000Y-118110000D02*
X72608000Y-114518000D01*
X62230000Y-145970000D02*
X72608000Y-135592000D01*
X70104000Y-112014000D02*
X67818000Y-112014000D01*
X108585500Y-124190000D02*
X108585500Y-122190000D01*
X77688000Y-128270000D02*
X103305500Y-128270000D01*
X67818000Y-112014000D02*
X67818000Y-99822000D01*
X105885500Y-120690000D02*
X105885500Y-121835199D01*
X77688000Y-118110000D02*
X103305500Y-118110000D01*
X61557856Y-146642144D02*
X62230000Y-145970000D01*
X108585500Y-126090000D02*
X108585500Y-124190000D01*
X65278000Y-97282000D02*
X57912000Y-97282000D01*
X106285500Y-120290000D02*
X105885500Y-120690000D01*
X108585500Y-126090000D02*
X106285500Y-126090000D01*
X106285500Y-126090000D02*
X105885500Y-125690000D01*
D32*
%TO.N,+5VA*%
X79756000Y-120650000D02*
X77688000Y-120650000D01*
X105885500Y-124490000D02*
X83596000Y-124490000D01*
X83596000Y-124490000D02*
X79756000Y-120650000D01*
X67818000Y-114089000D02*
X65575000Y-114089000D01*
X67818000Y-118872000D02*
X67818000Y-114089000D01*
X72608000Y-120650000D02*
X69596000Y-120650000D01*
X77688000Y-120650000D02*
X72608000Y-120650000D01*
X69596000Y-120650000D02*
X67818000Y-118872000D01*
X63514000Y-112028000D02*
X63514000Y-107544000D01*
X65575000Y-114089000D02*
X63514000Y-112028000D01*
%TO.N,+3.3VA*%
X67818000Y-136709856D02*
X64230000Y-140297856D01*
D33*
X61214000Y-101244000D02*
X61214000Y-107544000D01*
X72608000Y-123190000D02*
X66802000Y-123190000D01*
X66802000Y-123190000D02*
X61214000Y-117602000D01*
X62902144Y-140297856D02*
X62230000Y-140970000D01*
X64230000Y-140297856D02*
X64230000Y-125762000D01*
X64230000Y-140297856D02*
X62902144Y-140297856D01*
X64230000Y-125762000D02*
X66802000Y-123190000D01*
D32*
X77688000Y-123190000D02*
X72608000Y-123190000D01*
D33*
X61214000Y-117602000D02*
X61214000Y-107544000D01*
D32*
X67818000Y-134350000D02*
X67818000Y-136709856D01*
%TO.N,/MODES1*%
X77688000Y-125730000D02*
X72608000Y-125730000D01*
X70104000Y-125730000D02*
X67818000Y-128016000D01*
X67818000Y-128016000D02*
X67818000Y-132350000D01*
X72608000Y-125730000D02*
X70104000Y-125730000D01*
%TD*%
%TA.AperFunction,Conductor*%
%TO.N,GND*%
G36*
X223573365Y-19428255D02*
G01*
X223621171Y-19479209D01*
X223634500Y-19535138D01*
X223634500Y-41278000D01*
X223614815Y-41345039D01*
X223562011Y-41390794D01*
X223510500Y-41402000D01*
X218439999Y-41402000D01*
X217424000Y-42417999D01*
X217424000Y-42418000D01*
X217424000Y-69342000D01*
X223510500Y-69342000D01*
X223577539Y-69361685D01*
X223623294Y-69414489D01*
X223634500Y-69466000D01*
X223634500Y-138960860D01*
X223614815Y-139027899D01*
X223562011Y-139073654D01*
X223492853Y-139083598D01*
X223439391Y-139062445D01*
X217021850Y-134570167D01*
X216978217Y-134515596D01*
X216971014Y-134446099D01*
X217002528Y-134383739D01*
X217062753Y-134348317D01*
X217132568Y-134351078D01*
X217140410Y-134354020D01*
X217208805Y-134382351D01*
X217346299Y-134409700D01*
X217346303Y-134409701D01*
X217346304Y-134409701D01*
X217492610Y-134409701D01*
X217492630Y-134409700D01*
X217742770Y-134409700D01*
X217809809Y-134429385D01*
X217855564Y-134482189D01*
X217866059Y-134520444D01*
X217870011Y-134557202D01*
X217870011Y-134557204D01*
X217921111Y-134694204D01*
X218008739Y-134811261D01*
X218125796Y-134898889D01*
X218262799Y-134949989D01*
X218290050Y-134952918D01*
X218323345Y-134956499D01*
X218323362Y-134956500D01*
X219420638Y-134956500D01*
X219420654Y-134956499D01*
X219447692Y-134953591D01*
X219481201Y-134949989D01*
X219618204Y-134898889D01*
X219735261Y-134811261D01*
X219822889Y-134694204D01*
X219873989Y-134557201D01*
X219878462Y-134515596D01*
X219880499Y-134496654D01*
X219880500Y-134496637D01*
X219880500Y-132899362D01*
X219880499Y-132899345D01*
X221063500Y-132899345D01*
X221063500Y-134496654D01*
X221070011Y-134557202D01*
X221070011Y-134557204D01*
X221121111Y-134694204D01*
X221208739Y-134811261D01*
X221325796Y-134898889D01*
X221462799Y-134949989D01*
X221490050Y-134952918D01*
X221523345Y-134956499D01*
X221523362Y-134956500D01*
X222620638Y-134956500D01*
X222620654Y-134956499D01*
X222647692Y-134953591D01*
X222681201Y-134949989D01*
X222818204Y-134898889D01*
X222935261Y-134811261D01*
X223022889Y-134694204D01*
X223073989Y-134557201D01*
X223078462Y-134515596D01*
X223080499Y-134496654D01*
X223080500Y-134496637D01*
X223080500Y-132899362D01*
X223080499Y-132899345D01*
X223075760Y-132855272D01*
X223073989Y-132838799D01*
X223022889Y-132701796D01*
X222935261Y-132584739D01*
X222818204Y-132497111D01*
X222681203Y-132446011D01*
X222620654Y-132439500D01*
X222620638Y-132439500D01*
X221523362Y-132439500D01*
X221523345Y-132439500D01*
X221462797Y-132446011D01*
X221462795Y-132446011D01*
X221325795Y-132497111D01*
X221208739Y-132584739D01*
X221121111Y-132701795D01*
X221070011Y-132838795D01*
X221070011Y-132838797D01*
X221063500Y-132899345D01*
X219880499Y-132899345D01*
X219875760Y-132855272D01*
X219873989Y-132838799D01*
X219822889Y-132701796D01*
X219735261Y-132584739D01*
X219618204Y-132497111D01*
X219481203Y-132446011D01*
X219420654Y-132439500D01*
X219420638Y-132439500D01*
X218323362Y-132439500D01*
X218323345Y-132439500D01*
X218262797Y-132446011D01*
X218262795Y-132446011D01*
X218125795Y-132497111D01*
X218008739Y-132584739D01*
X217921111Y-132701795D01*
X217877632Y-132818364D01*
X217835760Y-132874297D01*
X217770296Y-132898713D01*
X217702023Y-132883861D01*
X217652618Y-132834455D01*
X217643520Y-132813347D01*
X217598129Y-132673650D01*
X217598128Y-132673649D01*
X217598127Y-132673644D01*
X217502640Y-132508256D01*
X217374853Y-132366334D01*
X217220352Y-132254082D01*
X217045888Y-132176406D01*
X217045886Y-132176405D01*
X216859087Y-132136700D01*
X216668113Y-132136700D01*
X216481314Y-132176405D01*
X216306846Y-132254083D01*
X216152345Y-132366335D01*
X216024559Y-132508257D01*
X215929073Y-132673643D01*
X215929070Y-132673650D01*
X215870059Y-132855268D01*
X215870058Y-132855272D01*
X215850096Y-133045200D01*
X215870058Y-133235128D01*
X215870059Y-133235131D01*
X215929070Y-133416749D01*
X215929073Y-133416756D01*
X216025904Y-133584472D01*
X216042377Y-133652372D01*
X216019524Y-133718399D01*
X215964603Y-133761590D01*
X215895050Y-133768231D01*
X215847408Y-133748057D01*
X173685343Y-104234613D01*
X173668795Y-104220729D01*
X173668436Y-104220616D01*
X173646928Y-104222498D01*
X173646604Y-104222667D01*
X173632728Y-104239207D01*
X173632615Y-104239564D01*
X173634500Y-104261084D01*
X173634500Y-123974822D01*
X173614815Y-124041861D01*
X173562011Y-124087616D01*
X173492853Y-124097560D01*
X173443657Y-124079264D01*
X168483880Y-120905007D01*
X166470200Y-119616252D01*
X166424347Y-119563535D01*
X166414273Y-119494395D01*
X166443178Y-119430785D01*
X166501885Y-119392900D01*
X166561236Y-119390194D01*
X166659301Y-119409701D01*
X166659304Y-119409701D01*
X166805610Y-119409701D01*
X166805630Y-119409700D01*
X167626770Y-119409700D01*
X167693809Y-119429385D01*
X167739564Y-119482189D01*
X167750059Y-119520444D01*
X167754011Y-119557202D01*
X167754011Y-119557204D01*
X167805111Y-119694204D01*
X167892739Y-119811261D01*
X168009796Y-119898889D01*
X168146799Y-119949989D01*
X168174050Y-119952918D01*
X168207345Y-119956499D01*
X168207362Y-119956500D01*
X169304638Y-119956500D01*
X169304654Y-119956499D01*
X169331692Y-119953591D01*
X169365201Y-119949989D01*
X169502204Y-119898889D01*
X169619261Y-119811261D01*
X169706889Y-119694204D01*
X169757989Y-119557201D01*
X169761941Y-119520444D01*
X169764499Y-119496654D01*
X169764500Y-119496637D01*
X169764500Y-117899362D01*
X169764499Y-117899345D01*
X169761157Y-117868270D01*
X169757989Y-117838799D01*
X169706889Y-117701796D01*
X169619261Y-117584739D01*
X169502204Y-117497111D01*
X169365203Y-117446011D01*
X169304654Y-117439500D01*
X169304638Y-117439500D01*
X168207362Y-117439500D01*
X168207345Y-117439500D01*
X168146797Y-117446011D01*
X168146795Y-117446011D01*
X168009795Y-117497111D01*
X167892739Y-117584739D01*
X167805111Y-117701795D01*
X167754011Y-117838795D01*
X167754011Y-117838797D01*
X167750059Y-117875556D01*
X167723321Y-117940107D01*
X167665929Y-117979955D01*
X167626770Y-117986300D01*
X167265444Y-117986300D01*
X167198405Y-117966615D01*
X167158748Y-117920848D01*
X167156976Y-117921872D01*
X167143970Y-117899345D01*
X167058240Y-117750856D01*
X166930453Y-117608934D01*
X166775952Y-117496682D01*
X166601488Y-117419006D01*
X166601486Y-117419005D01*
X166414687Y-117379300D01*
X166223713Y-117379300D01*
X166036914Y-117419005D01*
X166020691Y-117426228D01*
X165903805Y-117478269D01*
X165862446Y-117496683D01*
X165707945Y-117608935D01*
X165580159Y-117750857D01*
X165484673Y-117916243D01*
X165484670Y-117916250D01*
X165425659Y-118097868D01*
X165425658Y-118097872D01*
X165405696Y-118287800D01*
X165425658Y-118477728D01*
X165425659Y-118477731D01*
X165484670Y-118659349D01*
X165484673Y-118659356D01*
X165528819Y-118735819D01*
X165545292Y-118803719D01*
X165522439Y-118869746D01*
X165467518Y-118912937D01*
X165397965Y-118919578D01*
X165354589Y-118902261D01*
X123687398Y-92235259D01*
X123672568Y-92223330D01*
X123671910Y-92223058D01*
X123667908Y-92220969D01*
X123663402Y-92220571D01*
X123662709Y-92220447D01*
X123651441Y-92221669D01*
X123650767Y-92221949D01*
X123646481Y-92223295D01*
X123643031Y-92226184D01*
X123642438Y-92226597D01*
X123635326Y-92235439D01*
X123635059Y-92236086D01*
X123632969Y-92240089D01*
X123632571Y-92244596D01*
X123632447Y-92245288D01*
X123634500Y-92264212D01*
X123634500Y-111970363D01*
X123614815Y-112037402D01*
X123562011Y-112083157D01*
X123492853Y-112093101D01*
X123442245Y-112073887D01*
X121023859Y-110479404D01*
X118205857Y-108621447D01*
X118161399Y-108568909D01*
X118128305Y-108566543D01*
X118103384Y-108553885D01*
X117372583Y-108072055D01*
X117327449Y-108018719D01*
X117321036Y-107970087D01*
X117320593Y-107970087D01*
X117320593Y-107970086D01*
X117320898Y-107969044D01*
X117318315Y-107949449D01*
X117348081Y-107886238D01*
X117389904Y-107860045D01*
X117393082Y-107857292D01*
X117394664Y-107857064D01*
X117407297Y-107849153D01*
X117446494Y-107849611D01*
X117462240Y-107847348D01*
X117471561Y-107849905D01*
X117477162Y-107849971D01*
X117488304Y-107853976D01*
X117492044Y-107855525D01*
X117556805Y-107882351D01*
X117635202Y-107897945D01*
X117694299Y-107909700D01*
X117694303Y-107909701D01*
X117694304Y-107909701D01*
X117840610Y-107909701D01*
X117840630Y-107909700D01*
X117926770Y-107909700D01*
X117993809Y-107929385D01*
X118039564Y-107982189D01*
X118050059Y-108020444D01*
X118054011Y-108057202D01*
X118054011Y-108057204D01*
X118105111Y-108194204D01*
X118192739Y-108311261D01*
X118245950Y-108351094D01*
X118281833Y-108399029D01*
X118310437Y-108399364D01*
X118317445Y-108401742D01*
X118446799Y-108449989D01*
X118474050Y-108452918D01*
X118507345Y-108456499D01*
X118507362Y-108456500D01*
X119604638Y-108456500D01*
X119604654Y-108456499D01*
X119631692Y-108453591D01*
X119665201Y-108449989D01*
X119802204Y-108398889D01*
X119919261Y-108311261D01*
X120006889Y-108194204D01*
X120057989Y-108057201D01*
X120062126Y-108018719D01*
X120064499Y-107996654D01*
X120064500Y-107996637D01*
X120064500Y-106399362D01*
X120064499Y-106399345D01*
X120060649Y-106363544D01*
X120057989Y-106338799D01*
X120053651Y-106327169D01*
X120006888Y-106201793D01*
X120006887Y-106201792D01*
X119978800Y-106164273D01*
X119954382Y-106098809D01*
X119958141Y-106081526D01*
X119944938Y-106083666D01*
X119886080Y-106059900D01*
X119829834Y-106017795D01*
X119802204Y-105997111D01*
X119748564Y-105977104D01*
X119665203Y-105946011D01*
X119604654Y-105939500D01*
X119604638Y-105939500D01*
X118507362Y-105939500D01*
X118507345Y-105939500D01*
X118446797Y-105946011D01*
X118446795Y-105946011D01*
X118309795Y-105997111D01*
X118192739Y-106084739D01*
X118105111Y-106201794D01*
X118082777Y-106261674D01*
X118040905Y-106317606D01*
X117975440Y-106342022D01*
X117907167Y-106327169D01*
X117878915Y-106306019D01*
X117748232Y-106175336D01*
X117714747Y-106114013D01*
X117712592Y-106100614D01*
X117711803Y-106093111D01*
X117708142Y-106058272D01*
X117649127Y-105876644D01*
X117553640Y-105711256D01*
X117425853Y-105569334D01*
X117271352Y-105457082D01*
X117096888Y-105379406D01*
X117096886Y-105379405D01*
X116910087Y-105339700D01*
X116719113Y-105339700D01*
X116532314Y-105379405D01*
X116532312Y-105379406D01*
X116375981Y-105449009D01*
X116357846Y-105457083D01*
X116203345Y-105569335D01*
X116075559Y-105711257D01*
X115980073Y-105876643D01*
X115980070Y-105876650D01*
X115921059Y-106058268D01*
X115921058Y-106058272D01*
X115901096Y-106248200D01*
X115921058Y-106438128D01*
X115921059Y-106438131D01*
X115980070Y-106619749D01*
X115980073Y-106619756D01*
X116075560Y-106785144D01*
X116203347Y-106927066D01*
X116357848Y-107039318D01*
X116532312Y-107116994D01*
X116679999Y-107148385D01*
X116741480Y-107181577D01*
X116741898Y-107181994D01*
X117208460Y-107648556D01*
X117208489Y-107648587D01*
X117270899Y-107710997D01*
X117304384Y-107772320D01*
X117299400Y-107842012D01*
X117257528Y-107897945D01*
X117192064Y-107922362D01*
X117123791Y-107907510D01*
X117114963Y-107902202D01*
X104741543Y-99744196D01*
X101461351Y-97581509D01*
X101416218Y-97528174D01*
X101407084Y-97458904D01*
X101436850Y-97395693D01*
X101650800Y-97155000D01*
X101650799Y-97154999D01*
X88798400Y-88696799D01*
X88705479Y-88975560D01*
X88665604Y-89032934D01*
X88601041Y-89059643D01*
X88532287Y-89047206D01*
X88519464Y-89039790D01*
X88509092Y-89032934D01*
X82180308Y-84849500D01*
X77989558Y-82079343D01*
X77944487Y-82025954D01*
X77935436Y-81956673D01*
X77965277Y-81893497D01*
X78024537Y-81856483D01*
X78071190Y-81852611D01*
X78107362Y-81856500D01*
X79704638Y-81856500D01*
X79704654Y-81856499D01*
X79731692Y-81853591D01*
X79765201Y-81849989D01*
X79902204Y-81798889D01*
X80019261Y-81711261D01*
X80106889Y-81594204D01*
X80118093Y-81564166D01*
X80159964Y-81508232D01*
X80225429Y-81483816D01*
X80234274Y-81483500D01*
X80660405Y-81483500D01*
X80727444Y-81503185D01*
X80748086Y-81519819D01*
X85942575Y-86714308D01*
X86031092Y-86802825D01*
X86031093Y-86802826D01*
X86135171Y-86872369D01*
X86135184Y-86872376D01*
X86225928Y-86909963D01*
X86250831Y-86920278D01*
X86373604Y-86944699D01*
X86373608Y-86944700D01*
X86373609Y-86944700D01*
X102752605Y-86944700D01*
X102819644Y-86964385D01*
X102840286Y-86981019D01*
X118011181Y-102151914D01*
X118044666Y-102213237D01*
X118047500Y-102239595D01*
X118047500Y-103096654D01*
X118054011Y-103157202D01*
X118054011Y-103157204D01*
X118102521Y-103287261D01*
X118105111Y-103294204D01*
X118192739Y-103411261D01*
X118309796Y-103498889D01*
X118446799Y-103549989D01*
X118474050Y-103552918D01*
X118507345Y-103556499D01*
X118507362Y-103556500D01*
X119604638Y-103556500D01*
X119604654Y-103556499D01*
X119631692Y-103553591D01*
X119665201Y-103549989D01*
X119770967Y-103510539D01*
X119840656Y-103505554D01*
X119901980Y-103539038D01*
X119935466Y-103600361D01*
X119938300Y-103626721D01*
X119938300Y-105574195D01*
X119962720Y-105696961D01*
X119962723Y-105696973D01*
X120010623Y-105812615D01*
X120010630Y-105812628D01*
X120063493Y-105891742D01*
X120084371Y-105958419D01*
X120081917Y-105967364D01*
X120086911Y-105966278D01*
X120152376Y-105990694D01*
X120165747Y-106002281D01*
X121211181Y-107047714D01*
X121244666Y-107109037D01*
X121247500Y-107135395D01*
X121247500Y-107996654D01*
X121254011Y-108057202D01*
X121254011Y-108057204D01*
X121305111Y-108194204D01*
X121392739Y-108311261D01*
X121509796Y-108398889D01*
X121646799Y-108449989D01*
X121674050Y-108452918D01*
X121707345Y-108456499D01*
X121707362Y-108456500D01*
X122804638Y-108456500D01*
X122804654Y-108456499D01*
X122831692Y-108453591D01*
X122865201Y-108449989D01*
X123002204Y-108398889D01*
X123119261Y-108311261D01*
X123206889Y-108194204D01*
X123257989Y-108057201D01*
X123262126Y-108018719D01*
X123264499Y-107996654D01*
X123264500Y-107996637D01*
X123264500Y-106399362D01*
X123264499Y-106399345D01*
X123260649Y-106363544D01*
X123257989Y-106338799D01*
X123253651Y-106327169D01*
X123235522Y-106278564D01*
X123206889Y-106201796D01*
X123119261Y-106084739D01*
X123002204Y-105997111D01*
X122948564Y-105977104D01*
X122865203Y-105946011D01*
X122804654Y-105939500D01*
X122804638Y-105939500D01*
X121951795Y-105939500D01*
X121884756Y-105919815D01*
X121864114Y-105903181D01*
X121245619Y-105284686D01*
X121212134Y-105223363D01*
X121209300Y-105197005D01*
X121209300Y-103073014D01*
X121502001Y-103073014D01*
X121516737Y-103147106D01*
X121516738Y-103147109D01*
X121572876Y-103231123D01*
X121656895Y-103287263D01*
X121656896Y-103287264D01*
X121730980Y-103301999D01*
X122128999Y-103301999D01*
X122383000Y-103301999D01*
X122781015Y-103301999D01*
X122855106Y-103287262D01*
X122855109Y-103287261D01*
X122939123Y-103231123D01*
X122995263Y-103147104D01*
X122995264Y-103147103D01*
X123009999Y-103073021D01*
X123010000Y-103073018D01*
X123010000Y-102425000D01*
X122383000Y-102425000D01*
X122383000Y-103301999D01*
X122128999Y-103301999D01*
X122129000Y-103301998D01*
X122129000Y-102425000D01*
X121502001Y-102425000D01*
X121502001Y-103073014D01*
X121209300Y-103073014D01*
X121209300Y-101522978D01*
X121502000Y-101522978D01*
X121502000Y-102171000D01*
X122129000Y-102171000D01*
X122383000Y-102171000D01*
X123009999Y-102171000D01*
X123009999Y-101522985D01*
X122995262Y-101448893D01*
X122995261Y-101448890D01*
X122939123Y-101364876D01*
X122855104Y-101308736D01*
X122855103Y-101308735D01*
X122781021Y-101294000D01*
X122383000Y-101294000D01*
X122383000Y-102171000D01*
X122129000Y-102171000D01*
X122129000Y-101294000D01*
X121730985Y-101294000D01*
X121656893Y-101308737D01*
X121656890Y-101308738D01*
X121572876Y-101364876D01*
X121516736Y-101448895D01*
X121516735Y-101448896D01*
X121502000Y-101522978D01*
X121209300Y-101522978D01*
X121209300Y-92186395D01*
X121228985Y-92119356D01*
X121245619Y-92098714D01*
X123162914Y-90181419D01*
X123224237Y-90147934D01*
X123250595Y-90145100D01*
X144153005Y-90145100D01*
X144220044Y-90164785D01*
X144240686Y-90181419D01*
X167711181Y-113651914D01*
X167744666Y-113713237D01*
X167747500Y-113739595D01*
X167747500Y-114596654D01*
X167754011Y-114657202D01*
X167754011Y-114657204D01*
X167802521Y-114787261D01*
X167805111Y-114794204D01*
X167892739Y-114911261D01*
X168009796Y-114998889D01*
X168146799Y-115049989D01*
X168174050Y-115052918D01*
X168207345Y-115056499D01*
X168207362Y-115056500D01*
X169304638Y-115056500D01*
X169304654Y-115056499D01*
X169331692Y-115053591D01*
X169365201Y-115049989D01*
X169502204Y-114998889D01*
X169502204Y-114998888D01*
X169502206Y-114998888D01*
X169502207Y-114998887D01*
X169549389Y-114963567D01*
X169614853Y-114939149D01*
X169683126Y-114954000D01*
X169732532Y-115003405D01*
X169747700Y-115062833D01*
X169747700Y-117187795D01*
X169772120Y-117310561D01*
X169772123Y-117310573D01*
X169820023Y-117426215D01*
X169820030Y-117426228D01*
X169889574Y-117530307D01*
X169889577Y-117530311D01*
X170911181Y-118551914D01*
X170944666Y-118613237D01*
X170947500Y-118639595D01*
X170947500Y-119496654D01*
X170954011Y-119557202D01*
X170954011Y-119557204D01*
X171005111Y-119694204D01*
X171092739Y-119811261D01*
X171209796Y-119898889D01*
X171346799Y-119949989D01*
X171374050Y-119952918D01*
X171407345Y-119956499D01*
X171407362Y-119956500D01*
X172504638Y-119956500D01*
X172504654Y-119956499D01*
X172531692Y-119953591D01*
X172565201Y-119949989D01*
X172702204Y-119898889D01*
X172819261Y-119811261D01*
X172906889Y-119694204D01*
X172957989Y-119557201D01*
X172961941Y-119520444D01*
X172964499Y-119496654D01*
X172964500Y-119496637D01*
X172964500Y-117899362D01*
X172964499Y-117899345D01*
X172961157Y-117868270D01*
X172957989Y-117838799D01*
X172906889Y-117701796D01*
X172819261Y-117584739D01*
X172702204Y-117497111D01*
X172565203Y-117446011D01*
X172504654Y-117439500D01*
X172504638Y-117439500D01*
X171647595Y-117439500D01*
X171580556Y-117419815D01*
X171559914Y-117403181D01*
X171055019Y-116898286D01*
X171021534Y-116836963D01*
X171018700Y-116810605D01*
X171018700Y-114759496D01*
X171038385Y-114692457D01*
X171091189Y-114646702D01*
X171160347Y-114636758D01*
X171223903Y-114665783D01*
X171245802Y-114690605D01*
X171272876Y-114731123D01*
X171356895Y-114787263D01*
X171356896Y-114787264D01*
X171430980Y-114801999D01*
X171828999Y-114801999D01*
X172083000Y-114801999D01*
X172481015Y-114801999D01*
X172555106Y-114787262D01*
X172555109Y-114787261D01*
X172639123Y-114731123D01*
X172695263Y-114647104D01*
X172695264Y-114647103D01*
X172709999Y-114573021D01*
X172710000Y-114573018D01*
X172710000Y-113925000D01*
X172083000Y-113925000D01*
X172083000Y-114801999D01*
X171828999Y-114801999D01*
X171829000Y-114801998D01*
X171829000Y-113671000D01*
X172083000Y-113671000D01*
X172709999Y-113671000D01*
X172709999Y-113022985D01*
X172695262Y-112948893D01*
X172695261Y-112948890D01*
X172639123Y-112864876D01*
X172555104Y-112808736D01*
X172555103Y-112808735D01*
X172481021Y-112794000D01*
X172083000Y-112794000D01*
X172083000Y-113671000D01*
X171829000Y-113671000D01*
X171829000Y-112794000D01*
X171430985Y-112794000D01*
X171356893Y-112808737D01*
X171356890Y-112808738D01*
X171272876Y-112864876D01*
X171245802Y-112905395D01*
X171192189Y-112950200D01*
X171122864Y-112958907D01*
X171059837Y-112928752D01*
X171023118Y-112869309D01*
X171018700Y-112836504D01*
X171018700Y-105445195D01*
X171038385Y-105378156D01*
X171055019Y-105357514D01*
X180262114Y-96150419D01*
X180323437Y-96116934D01*
X180349795Y-96114100D01*
X185238005Y-96114100D01*
X185305044Y-96133785D01*
X185325686Y-96150419D01*
X217827181Y-128651914D01*
X217860666Y-128713237D01*
X217863500Y-128739595D01*
X217863500Y-129596654D01*
X217870011Y-129657202D01*
X217870011Y-129657204D01*
X217904272Y-129749058D01*
X217921111Y-129794204D01*
X218008739Y-129911261D01*
X218125796Y-129998889D01*
X218262799Y-130049989D01*
X218290050Y-130052918D01*
X218323345Y-130056499D01*
X218323362Y-130056500D01*
X219420638Y-130056500D01*
X219420654Y-130056499D01*
X219447692Y-130053591D01*
X219481201Y-130049989D01*
X219618204Y-129998889D01*
X219735261Y-129911261D01*
X219822889Y-129794204D01*
X219873989Y-129657201D01*
X219877775Y-129621988D01*
X219880499Y-129596654D01*
X219880500Y-129596637D01*
X219880500Y-129573014D01*
X221318001Y-129573014D01*
X221332737Y-129647106D01*
X221332738Y-129647109D01*
X221388876Y-129731123D01*
X221472895Y-129787263D01*
X221472896Y-129787264D01*
X221546980Y-129801999D01*
X221944999Y-129801999D01*
X222199000Y-129801999D01*
X222597015Y-129801999D01*
X222671106Y-129787262D01*
X222671109Y-129787261D01*
X222755123Y-129731123D01*
X222811263Y-129647104D01*
X222811264Y-129647103D01*
X222825999Y-129573021D01*
X222826000Y-129573018D01*
X222826000Y-128925000D01*
X222199000Y-128925000D01*
X222199000Y-129801999D01*
X221944999Y-129801999D01*
X221945000Y-129801998D01*
X221945000Y-128925000D01*
X221318001Y-128925000D01*
X221318001Y-129573014D01*
X219880500Y-129573014D01*
X219880500Y-128022978D01*
X221318000Y-128022978D01*
X221318000Y-128671000D01*
X221945000Y-128671000D01*
X222199000Y-128671000D01*
X222825999Y-128671000D01*
X222825999Y-128022985D01*
X222811262Y-127948893D01*
X222811261Y-127948890D01*
X222755123Y-127864876D01*
X222671104Y-127808736D01*
X222671103Y-127808735D01*
X222597021Y-127794000D01*
X222199000Y-127794000D01*
X222199000Y-128671000D01*
X221945000Y-128671000D01*
X221945000Y-127794000D01*
X221546985Y-127794000D01*
X221472893Y-127808737D01*
X221472890Y-127808738D01*
X221388876Y-127864876D01*
X221332736Y-127948895D01*
X221332735Y-127948896D01*
X221318000Y-128022978D01*
X219880500Y-128022978D01*
X219880500Y-127999362D01*
X219880499Y-127999345D01*
X219877157Y-127968270D01*
X219873989Y-127938799D01*
X219822889Y-127801796D01*
X219735261Y-127684739D01*
X219618204Y-127597111D01*
X219588085Y-127585877D01*
X219481203Y-127546011D01*
X219420654Y-127539500D01*
X219420638Y-127539500D01*
X218563595Y-127539500D01*
X218496556Y-127519815D01*
X218475914Y-127503181D01*
X201691328Y-110718594D01*
X212211536Y-110718594D01*
X212211536Y-110718605D01*
X212231356Y-110957795D01*
X212290277Y-111190472D01*
X212386692Y-111410278D01*
X212459732Y-111522072D01*
X212517971Y-111611213D01*
X212680531Y-111787801D01*
X212869940Y-111935224D01*
X213081031Y-112049460D01*
X213308045Y-112127395D01*
X213544790Y-112166900D01*
X213784810Y-112166900D01*
X214021555Y-112127395D01*
X214248569Y-112049460D01*
X214459660Y-111935224D01*
X214649069Y-111787801D01*
X214811629Y-111611213D01*
X214942908Y-111410277D01*
X215039322Y-111190474D01*
X215098243Y-110957799D01*
X215118064Y-110718600D01*
X215118064Y-110718594D01*
X218713936Y-110718594D01*
X218713936Y-110718605D01*
X218733756Y-110957795D01*
X218792677Y-111190472D01*
X218889092Y-111410278D01*
X218962132Y-111522072D01*
X219020371Y-111611213D01*
X219182931Y-111787801D01*
X219372340Y-111935224D01*
X219583431Y-112049460D01*
X219810445Y-112127395D01*
X220047190Y-112166900D01*
X220287210Y-112166900D01*
X220523955Y-112127395D01*
X220750969Y-112049460D01*
X220962060Y-111935224D01*
X221151469Y-111787801D01*
X221314029Y-111611213D01*
X221445308Y-111410277D01*
X221541722Y-111190474D01*
X221600643Y-110957799D01*
X221620464Y-110718600D01*
X221614175Y-110642710D01*
X221600643Y-110479404D01*
X221600643Y-110479401D01*
X221541722Y-110246726D01*
X221445308Y-110026923D01*
X221314029Y-109825987D01*
X221151469Y-109649399D01*
X221022970Y-109549384D01*
X220962062Y-109501977D01*
X220962057Y-109501974D01*
X220750975Y-109387743D01*
X220750972Y-109387742D01*
X220750969Y-109387740D01*
X220750963Y-109387738D01*
X220750961Y-109387737D01*
X220523957Y-109309805D01*
X220287210Y-109270300D01*
X220047190Y-109270300D01*
X219810442Y-109309805D01*
X219583438Y-109387737D01*
X219583424Y-109387743D01*
X219372342Y-109501974D01*
X219372337Y-109501977D01*
X219182933Y-109649397D01*
X219020372Y-109825985D01*
X219020369Y-109825989D01*
X218889092Y-110026921D01*
X218792677Y-110246727D01*
X218733756Y-110479404D01*
X218713936Y-110718594D01*
X215118064Y-110718594D01*
X215111775Y-110642710D01*
X215098243Y-110479404D01*
X215098243Y-110479401D01*
X215039322Y-110246726D01*
X214942908Y-110026923D01*
X214811629Y-109825987D01*
X214649069Y-109649399D01*
X214520570Y-109549384D01*
X214459662Y-109501977D01*
X214459657Y-109501974D01*
X214248575Y-109387743D01*
X214248572Y-109387742D01*
X214248569Y-109387740D01*
X214248563Y-109387738D01*
X214248561Y-109387737D01*
X214021557Y-109309805D01*
X213784810Y-109270300D01*
X213544790Y-109270300D01*
X213308042Y-109309805D01*
X213081038Y-109387737D01*
X213081024Y-109387743D01*
X212869942Y-109501974D01*
X212869937Y-109501977D01*
X212680533Y-109649397D01*
X212517972Y-109825985D01*
X212517969Y-109825989D01*
X212386692Y-110026921D01*
X212290277Y-110246727D01*
X212231356Y-110479404D01*
X212211536Y-110718594D01*
X201691328Y-110718594D01*
X197170133Y-106197399D01*
X212465886Y-106197399D01*
X212465886Y-106197400D01*
X212486299Y-106417695D01*
X212546847Y-106630501D01*
X212645459Y-106828541D01*
X212645464Y-106828549D01*
X212735207Y-106947387D01*
X213227177Y-106455417D01*
X213258298Y-106509320D01*
X213352880Y-106603902D01*
X213406782Y-106635022D01*
X212913708Y-107128095D01*
X212913708Y-107128096D01*
X212942290Y-107154152D01*
X213130400Y-107270624D01*
X213336699Y-107350544D01*
X213554180Y-107391200D01*
X213775420Y-107391200D01*
X213992900Y-107350544D01*
X214199199Y-107270624D01*
X214199200Y-107270624D01*
X214387305Y-107154154D01*
X214415890Y-107128095D01*
X213922817Y-106635022D01*
X213976720Y-106603902D01*
X214071302Y-106509320D01*
X214102422Y-106455417D01*
X214594391Y-106947387D01*
X214684135Y-106828549D01*
X214684140Y-106828541D01*
X214782752Y-106630501D01*
X214843300Y-106417695D01*
X214863714Y-106197400D01*
X214863714Y-106197399D01*
X214863714Y-106197394D01*
X218713936Y-106197394D01*
X218713936Y-106197405D01*
X218733756Y-106436595D01*
X218792677Y-106669272D01*
X218889092Y-106889078D01*
X218927188Y-106947387D01*
X219020371Y-107090013D01*
X219182931Y-107266601D01*
X219188100Y-107270624D01*
X219362896Y-107406674D01*
X219372340Y-107414024D01*
X219583431Y-107528260D01*
X219810445Y-107606195D01*
X220047190Y-107645700D01*
X220287210Y-107645700D01*
X220523955Y-107606195D01*
X220750969Y-107528260D01*
X220962060Y-107414024D01*
X221151469Y-107266601D01*
X221314029Y-107090013D01*
X221445308Y-106889077D01*
X221541722Y-106669274D01*
X221600643Y-106436599D01*
X221620464Y-106197400D01*
X221619083Y-106180739D01*
X221603867Y-105997111D01*
X221600643Y-105958201D01*
X221541722Y-105725526D01*
X221445308Y-105505723D01*
X221401792Y-105439118D01*
X221358713Y-105373181D01*
X221314029Y-105304787D01*
X221151469Y-105128199D01*
X221074137Y-105068009D01*
X220962062Y-104980777D01*
X220962057Y-104980774D01*
X220750975Y-104866543D01*
X220750972Y-104866542D01*
X220750969Y-104866540D01*
X220750963Y-104866538D01*
X220750961Y-104866537D01*
X220523957Y-104788605D01*
X220287210Y-104749100D01*
X220047190Y-104749100D01*
X219810442Y-104788605D01*
X219583438Y-104866537D01*
X219583424Y-104866543D01*
X219372342Y-104980774D01*
X219372337Y-104980777D01*
X219182933Y-105128197D01*
X219020372Y-105304785D01*
X219020369Y-105304789D01*
X218889092Y-105505721D01*
X218792677Y-105725527D01*
X218733756Y-105958204D01*
X218713936Y-106197394D01*
X214863714Y-106197394D01*
X214843300Y-105977104D01*
X214782752Y-105764298D01*
X214684140Y-105566258D01*
X214684135Y-105566250D01*
X214594391Y-105447411D01*
X214102421Y-105939381D01*
X214071302Y-105885480D01*
X213976720Y-105790898D01*
X213922817Y-105759777D01*
X214415891Y-105266704D01*
X214415890Y-105266702D01*
X214387311Y-105240649D01*
X214199199Y-105124175D01*
X213992900Y-105044255D01*
X213775420Y-105003600D01*
X213554180Y-105003600D01*
X213336699Y-105044255D01*
X213130400Y-105124175D01*
X212942291Y-105240647D01*
X212913707Y-105266702D01*
X213406782Y-105759777D01*
X213352880Y-105790898D01*
X213258298Y-105885480D01*
X213227177Y-105939381D01*
X212735207Y-105447411D01*
X212735206Y-105447411D01*
X212645464Y-105566249D01*
X212546847Y-105764298D01*
X212486299Y-105977104D01*
X212465886Y-106197399D01*
X197170133Y-106197399D01*
X189753328Y-98780594D01*
X212211536Y-98780594D01*
X212211536Y-98780605D01*
X212231356Y-99019795D01*
X212290277Y-99252472D01*
X212386692Y-99472278D01*
X212396895Y-99487894D01*
X212517971Y-99673213D01*
X212680531Y-99849801D01*
X212869940Y-99997224D01*
X213081031Y-100111460D01*
X213308045Y-100189395D01*
X213544790Y-100228900D01*
X213784810Y-100228900D01*
X214021555Y-100189395D01*
X214248569Y-100111460D01*
X214459660Y-99997224D01*
X214649069Y-99849801D01*
X214811629Y-99673213D01*
X214942908Y-99472277D01*
X215039322Y-99252474D01*
X215098243Y-99019799D01*
X215113473Y-98836008D01*
X215118064Y-98780605D01*
X215118064Y-98780594D01*
X218713936Y-98780594D01*
X218713936Y-98780605D01*
X218733756Y-99019795D01*
X218792677Y-99252472D01*
X218889092Y-99472278D01*
X218899295Y-99487894D01*
X219020371Y-99673213D01*
X219182931Y-99849801D01*
X219372340Y-99997224D01*
X219583431Y-100111460D01*
X219810445Y-100189395D01*
X220047190Y-100228900D01*
X220287210Y-100228900D01*
X220523955Y-100189395D01*
X220750969Y-100111460D01*
X220962060Y-99997224D01*
X221151469Y-99849801D01*
X221314029Y-99673213D01*
X221445308Y-99472277D01*
X221541722Y-99252474D01*
X221600643Y-99019799D01*
X221615873Y-98836008D01*
X221620464Y-98780605D01*
X221620464Y-98780594D01*
X221607250Y-98621134D01*
X221600643Y-98541401D01*
X221541722Y-98308726D01*
X221445308Y-98088923D01*
X221314029Y-97887987D01*
X221151469Y-97711399D01*
X220984588Y-97581510D01*
X220962062Y-97563977D01*
X220962057Y-97563974D01*
X220750975Y-97449743D01*
X220750972Y-97449742D01*
X220750969Y-97449740D01*
X220750963Y-97449738D01*
X220750961Y-97449737D01*
X220523957Y-97371805D01*
X220287210Y-97332300D01*
X220047190Y-97332300D01*
X219810442Y-97371805D01*
X219583438Y-97449737D01*
X219583424Y-97449743D01*
X219372342Y-97563974D01*
X219372337Y-97563977D01*
X219182933Y-97711397D01*
X219020372Y-97887985D01*
X219020369Y-97887989D01*
X218889092Y-98088921D01*
X218792677Y-98308727D01*
X218733756Y-98541404D01*
X218713936Y-98780594D01*
X215118064Y-98780594D01*
X215104850Y-98621134D01*
X215098243Y-98541401D01*
X215039322Y-98308726D01*
X214942908Y-98088923D01*
X214811629Y-97887987D01*
X214649069Y-97711399D01*
X214482188Y-97581510D01*
X214459662Y-97563977D01*
X214459657Y-97563974D01*
X214248575Y-97449743D01*
X214248572Y-97449742D01*
X214248569Y-97449740D01*
X214248563Y-97449738D01*
X214248561Y-97449737D01*
X214021557Y-97371805D01*
X213784810Y-97332300D01*
X213544790Y-97332300D01*
X213308042Y-97371805D01*
X213081038Y-97449737D01*
X213081024Y-97449743D01*
X212869942Y-97563974D01*
X212869937Y-97563977D01*
X212680533Y-97711397D01*
X212517972Y-97887985D01*
X212517969Y-97887989D01*
X212386692Y-98088921D01*
X212290277Y-98308727D01*
X212231356Y-98541404D01*
X212211536Y-98780594D01*
X189753328Y-98780594D01*
X185957711Y-94984977D01*
X185957707Y-94984974D01*
X185853628Y-94915430D01*
X185853615Y-94915423D01*
X185737973Y-94867523D01*
X185737961Y-94867520D01*
X185615195Y-94843100D01*
X185615191Y-94843100D01*
X180097791Y-94843100D01*
X179972609Y-94843100D01*
X179972604Y-94843100D01*
X179849838Y-94867520D01*
X179849826Y-94867523D01*
X179734184Y-94915423D01*
X179734171Y-94915430D01*
X179630092Y-94984974D01*
X179630088Y-94984977D01*
X172375472Y-102239595D01*
X169978092Y-104636975D01*
X169946397Y-104668670D01*
X169889573Y-104725493D01*
X169820030Y-104829571D01*
X169820023Y-104829584D01*
X169772123Y-104945226D01*
X169772120Y-104945238D01*
X169747700Y-105068004D01*
X169747700Y-112533166D01*
X169728015Y-112600205D01*
X169675211Y-112645960D01*
X169606053Y-112655904D01*
X169549390Y-112632433D01*
X169502206Y-112597112D01*
X169502206Y-112597111D01*
X169365203Y-112546011D01*
X169304654Y-112539500D01*
X169304638Y-112539500D01*
X168447595Y-112539500D01*
X168380556Y-112519815D01*
X168359914Y-112503181D01*
X150116133Y-94259399D01*
X212465886Y-94259399D01*
X212465886Y-94259400D01*
X212486299Y-94479695D01*
X212546847Y-94692501D01*
X212645459Y-94890541D01*
X212645464Y-94890549D01*
X212735207Y-95009387D01*
X213227177Y-94517417D01*
X213258298Y-94571320D01*
X213352880Y-94665902D01*
X213406782Y-94697022D01*
X212913708Y-95190095D01*
X212913708Y-95190096D01*
X212942290Y-95216152D01*
X213130400Y-95332624D01*
X213336699Y-95412544D01*
X213554180Y-95453200D01*
X213775420Y-95453200D01*
X213992900Y-95412544D01*
X214199199Y-95332624D01*
X214199200Y-95332624D01*
X214387305Y-95216154D01*
X214415890Y-95190095D01*
X213922817Y-94697022D01*
X213976720Y-94665902D01*
X214071302Y-94571320D01*
X214102422Y-94517417D01*
X214594391Y-95009387D01*
X214684135Y-94890549D01*
X214684140Y-94890541D01*
X214782752Y-94692501D01*
X214843300Y-94479695D01*
X214863714Y-94259400D01*
X214863714Y-94259399D01*
X214843300Y-94039104D01*
X214782752Y-93826298D01*
X214684140Y-93628258D01*
X214684135Y-93628250D01*
X214594391Y-93509411D01*
X214102421Y-94001381D01*
X214071302Y-93947480D01*
X213976720Y-93852898D01*
X213922817Y-93821777D01*
X214415891Y-93328704D01*
X214415890Y-93328702D01*
X214387311Y-93302649D01*
X214199199Y-93186175D01*
X213992900Y-93106255D01*
X213775420Y-93065600D01*
X213554180Y-93065600D01*
X213336699Y-93106255D01*
X213130400Y-93186175D01*
X212942291Y-93302647D01*
X212913707Y-93328702D01*
X213406782Y-93821777D01*
X213352880Y-93852898D01*
X213258298Y-93947480D01*
X213227177Y-94001381D01*
X212735207Y-93509411D01*
X212735206Y-93509411D01*
X212645464Y-93628249D01*
X212546847Y-93826298D01*
X212486299Y-94039104D01*
X212465886Y-94259399D01*
X150116133Y-94259399D01*
X144872711Y-89015977D01*
X144872707Y-89015974D01*
X144768628Y-88946430D01*
X144768615Y-88946423D01*
X144652973Y-88898523D01*
X144652961Y-88898520D01*
X144530195Y-88874100D01*
X144530191Y-88874100D01*
X122998591Y-88874100D01*
X122873409Y-88874100D01*
X122873404Y-88874100D01*
X122750638Y-88898520D01*
X122750626Y-88898523D01*
X122634984Y-88946423D01*
X122634971Y-88946430D01*
X122530892Y-89015974D01*
X122530888Y-89015977D01*
X120743437Y-90803430D01*
X120168692Y-91378175D01*
X120124432Y-91422434D01*
X120080173Y-91466693D01*
X120010630Y-91570771D01*
X120010623Y-91570784D01*
X119962723Y-91686426D01*
X119962720Y-91686438D01*
X119938300Y-91809204D01*
X119938300Y-100969278D01*
X119918615Y-101036317D01*
X119865811Y-101082072D01*
X119796653Y-101092016D01*
X119770966Y-101085459D01*
X119665207Y-101046012D01*
X119665202Y-101046011D01*
X119604654Y-101039500D01*
X119604638Y-101039500D01*
X118747595Y-101039500D01*
X118680556Y-101019815D01*
X118659914Y-101003181D01*
X103472311Y-85815577D01*
X103472307Y-85815574D01*
X103368228Y-85746030D01*
X103368215Y-85746023D01*
X103252573Y-85698123D01*
X103252561Y-85698120D01*
X103129795Y-85673700D01*
X103129791Y-85673700D01*
X86750795Y-85673700D01*
X86683756Y-85654015D01*
X86663114Y-85637381D01*
X83067733Y-82042000D01*
X160376496Y-82042000D01*
X160396458Y-82231928D01*
X160396459Y-82231931D01*
X160455470Y-82413549D01*
X160455473Y-82413556D01*
X160550960Y-82578944D01*
X160678747Y-82720866D01*
X160833248Y-82833118D01*
X161007712Y-82910794D01*
X161194513Y-82950500D01*
X161385487Y-82950500D01*
X161572288Y-82910794D01*
X161746752Y-82833118D01*
X161753555Y-82828175D01*
X161823467Y-82777382D01*
X161889273Y-82753902D01*
X161896352Y-82753700D01*
X208181648Y-82753700D01*
X208248687Y-82773385D01*
X208254533Y-82777382D01*
X208331243Y-82833115D01*
X208331245Y-82833116D01*
X208331248Y-82833118D01*
X208505712Y-82910794D01*
X208692513Y-82950500D01*
X208883487Y-82950500D01*
X209070288Y-82910794D01*
X209244752Y-82833118D01*
X209399253Y-82720866D01*
X209527040Y-82578944D01*
X209622527Y-82413556D01*
X209681542Y-82231928D01*
X209701504Y-82042000D01*
X209681542Y-81852072D01*
X209622527Y-81670444D01*
X209527040Y-81505056D01*
X209399253Y-81363134D01*
X209244752Y-81250882D01*
X209070288Y-81173206D01*
X209070286Y-81173205D01*
X208883487Y-81133500D01*
X208692513Y-81133500D01*
X208505714Y-81173205D01*
X208331243Y-81250884D01*
X208254533Y-81306618D01*
X208188727Y-81330098D01*
X208181648Y-81330300D01*
X161896352Y-81330300D01*
X161829313Y-81310615D01*
X161823467Y-81306618D01*
X161746756Y-81250884D01*
X161746752Y-81250882D01*
X161572288Y-81173206D01*
X161572286Y-81173205D01*
X161385487Y-81133500D01*
X161194513Y-81133500D01*
X161007714Y-81173205D01*
X160833246Y-81250883D01*
X160678745Y-81363135D01*
X160550959Y-81505057D01*
X160455473Y-81670443D01*
X160455470Y-81670450D01*
X160397135Y-81849988D01*
X160396458Y-81852072D01*
X160376496Y-82042000D01*
X83067733Y-82042000D01*
X82810626Y-81784893D01*
X82777141Y-81723570D01*
X82782125Y-81653878D01*
X82823997Y-81597945D01*
X82889461Y-81573528D01*
X82945760Y-81582651D01*
X82956896Y-81587264D01*
X83030980Y-81601999D01*
X83678999Y-81601999D01*
X83933000Y-81601999D01*
X84581015Y-81601999D01*
X84655106Y-81587262D01*
X84655109Y-81587261D01*
X84739123Y-81531123D01*
X84795263Y-81447104D01*
X84795264Y-81447103D01*
X84809999Y-81373021D01*
X84810000Y-81373018D01*
X84810000Y-80975000D01*
X83933000Y-80975000D01*
X83933000Y-81601999D01*
X83678999Y-81601999D01*
X83679000Y-81601998D01*
X83679000Y-80975000D01*
X82802001Y-80975000D01*
X82802001Y-81373014D01*
X82816737Y-81447108D01*
X82821349Y-81458242D01*
X82828815Y-81527711D01*
X82797538Y-81590189D01*
X82737447Y-81625839D01*
X82667622Y-81623343D01*
X82619105Y-81593371D01*
X81380111Y-80354377D01*
X81380107Y-80354374D01*
X81333120Y-80322978D01*
X82802000Y-80322978D01*
X82802000Y-80721000D01*
X83679000Y-80721000D01*
X83933000Y-80721000D01*
X84809999Y-80721000D01*
X84809999Y-80322985D01*
X84795262Y-80248893D01*
X84795261Y-80248890D01*
X84739123Y-80164876D01*
X84655104Y-80108736D01*
X84655103Y-80108735D01*
X84581021Y-80094000D01*
X83933000Y-80094000D01*
X83933000Y-80721000D01*
X83679000Y-80721000D01*
X83679000Y-80094000D01*
X83030985Y-80094000D01*
X82956893Y-80108737D01*
X82956890Y-80108738D01*
X82872876Y-80164876D01*
X82816736Y-80248895D01*
X82816735Y-80248896D01*
X82802000Y-80322978D01*
X81333120Y-80322978D01*
X81276028Y-80284830D01*
X81276015Y-80284823D01*
X81160373Y-80236923D01*
X81160361Y-80236920D01*
X81037595Y-80212500D01*
X81037591Y-80212500D01*
X80234274Y-80212500D01*
X80167235Y-80192815D01*
X80121480Y-80140011D01*
X80118093Y-80131834D01*
X80106889Y-80101796D01*
X80101053Y-80094000D01*
X80019261Y-79984739D01*
X79902204Y-79897111D01*
X79765203Y-79846011D01*
X79704654Y-79839500D01*
X79704638Y-79839500D01*
X78107362Y-79839500D01*
X78107345Y-79839500D01*
X78046797Y-79846011D01*
X78046795Y-79846011D01*
X77909795Y-79897111D01*
X77792739Y-79984739D01*
X77705111Y-80101795D01*
X77654011Y-80238795D01*
X77654011Y-80238797D01*
X77647500Y-80299345D01*
X77647500Y-81396654D01*
X77654011Y-81457202D01*
X77654011Y-81457204D01*
X77705111Y-81594206D01*
X77717774Y-81611121D01*
X77742190Y-81676585D01*
X77727338Y-81744858D01*
X77677932Y-81794263D01*
X77609659Y-81809114D01*
X77550129Y-81788873D01*
X75672732Y-80547882D01*
X73862879Y-79351538D01*
X73817808Y-79298149D01*
X73808757Y-79228868D01*
X73838598Y-79165692D01*
X73862948Y-79144606D01*
X77544371Y-76714867D01*
X77611164Y-76694369D01*
X77678439Y-76713236D01*
X77724833Y-76765479D01*
X77735618Y-76834512D01*
X77711944Y-76892667D01*
X77705111Y-76901794D01*
X77654011Y-77038795D01*
X77654011Y-77038797D01*
X77647500Y-77099345D01*
X77647500Y-78196654D01*
X77654011Y-78257202D01*
X77654011Y-78257204D01*
X77699517Y-78379206D01*
X77705111Y-78394204D01*
X77792739Y-78511261D01*
X77909796Y-78598889D01*
X78046799Y-78649989D01*
X78074050Y-78652918D01*
X78107345Y-78656499D01*
X78107362Y-78656500D01*
X79704638Y-78656500D01*
X79704654Y-78656499D01*
X79731692Y-78653591D01*
X79765201Y-78649989D01*
X79902204Y-78598889D01*
X80019261Y-78511261D01*
X80106889Y-78394204D01*
X80157989Y-78257201D01*
X80162937Y-78211176D01*
X80164499Y-78196654D01*
X80164500Y-78196637D01*
X80164500Y-77447358D01*
X80184185Y-77380319D01*
X80200819Y-77359677D01*
X80461151Y-77099345D01*
X82547500Y-77099345D01*
X82547500Y-78196654D01*
X82554011Y-78257202D01*
X82554011Y-78257204D01*
X82599517Y-78379206D01*
X82605111Y-78394204D01*
X82692739Y-78511261D01*
X82809796Y-78598889D01*
X82946799Y-78649989D01*
X82974050Y-78652918D01*
X83007345Y-78656499D01*
X83007362Y-78656500D01*
X84604638Y-78656500D01*
X84604654Y-78656499D01*
X84631692Y-78653591D01*
X84665201Y-78649989D01*
X84802204Y-78598889D01*
X84919261Y-78511261D01*
X85006889Y-78394204D01*
X85018093Y-78364166D01*
X85059964Y-78308232D01*
X85125429Y-78283816D01*
X85134274Y-78283500D01*
X91553192Y-78283500D01*
X91553193Y-78283499D01*
X91675969Y-78259078D01*
X91791622Y-78211173D01*
X91895708Y-78141625D01*
X112245128Y-57792204D01*
X119963700Y-57792204D01*
X119963700Y-66178795D01*
X119988120Y-66301561D01*
X119988123Y-66301573D01*
X120036023Y-66417215D01*
X120036030Y-66417228D01*
X120105574Y-66521307D01*
X120105577Y-66521311D01*
X122657888Y-69073622D01*
X122657892Y-69073625D01*
X122761971Y-69143169D01*
X122761984Y-69143176D01*
X122877626Y-69191076D01*
X122877631Y-69191078D01*
X123000404Y-69215499D01*
X123000408Y-69215500D01*
X123000409Y-69215500D01*
X138263992Y-69215500D01*
X138263993Y-69215499D01*
X138386769Y-69191078D01*
X138502422Y-69143173D01*
X138606508Y-69073625D01*
X161598929Y-46081204D01*
X169874700Y-46081204D01*
X169874700Y-55586995D01*
X169899120Y-55709761D01*
X169899123Y-55709773D01*
X169947023Y-55825415D01*
X169947030Y-55825428D01*
X170016574Y-55929507D01*
X170016577Y-55929511D01*
X170753175Y-56666108D01*
X170801215Y-56714148D01*
X170841693Y-56754626D01*
X170945771Y-56824169D01*
X170945784Y-56824176D01*
X171061426Y-56872076D01*
X171061431Y-56872078D01*
X171184204Y-56896499D01*
X171184208Y-56896500D01*
X171184209Y-56896500D01*
X186015992Y-56896500D01*
X186015993Y-56896499D01*
X186138769Y-56872078D01*
X186254422Y-56824173D01*
X186358508Y-56754625D01*
X186477819Y-56635313D01*
X186539141Y-56601829D01*
X186608833Y-56606813D01*
X186664767Y-56648684D01*
X186689184Y-56714148D01*
X186689500Y-56722995D01*
X186689500Y-58567595D01*
X186713920Y-58690361D01*
X186713923Y-58690373D01*
X186761823Y-58806015D01*
X186761830Y-58806028D01*
X186831374Y-58910107D01*
X186831377Y-58910111D01*
X187835364Y-59914097D01*
X187868849Y-59975420D01*
X187867889Y-60032217D01*
X187840435Y-60140633D01*
X187821844Y-60364994D01*
X187821844Y-60365005D01*
X187840434Y-60589359D01*
X187840436Y-60589371D01*
X187895703Y-60807614D01*
X187986140Y-61013792D01*
X188109276Y-61202265D01*
X188109284Y-61202276D01*
X188261756Y-61367902D01*
X188261760Y-61367906D01*
X188439424Y-61506189D01*
X188439425Y-61506189D01*
X188439427Y-61506191D01*
X188566135Y-61574761D01*
X188637426Y-61613342D01*
X188715643Y-61640194D01*
X188753994Y-61653360D01*
X188811009Y-61693745D01*
X188837140Y-61758545D01*
X188824089Y-61827185D01*
X188776000Y-61877873D01*
X188758525Y-61886268D01*
X188690799Y-61912504D01*
X188690793Y-61912507D01*
X188516842Y-62020213D01*
X188516836Y-62020217D01*
X188365640Y-62158050D01*
X188242339Y-62321328D01*
X188151144Y-62504470D01*
X188151139Y-62504483D01*
X188095147Y-62701272D01*
X188088037Y-62777999D01*
X188088038Y-62778000D01*
X188701392Y-62778000D01*
X188685000Y-62839174D01*
X188685000Y-62970826D01*
X188701392Y-63032000D01*
X188088038Y-63032000D01*
X188095147Y-63108727D01*
X188151139Y-63305516D01*
X188151144Y-63305529D01*
X188242339Y-63488671D01*
X188365640Y-63651949D01*
X188516836Y-63789782D01*
X188516842Y-63789786D01*
X188625514Y-63857073D01*
X188672150Y-63909101D01*
X188683254Y-63978082D01*
X188655301Y-64042117D01*
X188597166Y-64080873D01*
X188560237Y-64086500D01*
X188286345Y-64086500D01*
X188225797Y-64093011D01*
X188225795Y-64093011D01*
X188088795Y-64144111D01*
X187971739Y-64231739D01*
X187884111Y-64348795D01*
X187833011Y-64485795D01*
X187833011Y-64485797D01*
X187826500Y-64546345D01*
X187826500Y-66343654D01*
X187833011Y-66404202D01*
X187833011Y-66404204D01*
X187876690Y-66521307D01*
X187884111Y-66541204D01*
X187971739Y-66658261D01*
X188088796Y-66745889D01*
X188225799Y-66796989D01*
X188253050Y-66799918D01*
X188286345Y-66803499D01*
X188286362Y-66803500D01*
X190083638Y-66803500D01*
X190083654Y-66803499D01*
X190110692Y-66800591D01*
X190144201Y-66796989D01*
X190281204Y-66745889D01*
X190398261Y-66658261D01*
X190485889Y-66541204D01*
X190536989Y-66404201D01*
X190540591Y-66370692D01*
X190543499Y-66343654D01*
X190543500Y-66343637D01*
X190543500Y-66240700D01*
X190563185Y-66173661D01*
X190615989Y-66127906D01*
X190667500Y-66116700D01*
X192545770Y-66116700D01*
X192612809Y-66136385D01*
X192658564Y-66189189D01*
X192669059Y-66227444D01*
X192673011Y-66264202D01*
X192673011Y-66264204D01*
X192724111Y-66401204D01*
X192811739Y-66518261D01*
X192928796Y-66605889D01*
X193065799Y-66656989D01*
X193093050Y-66659918D01*
X193126345Y-66663499D01*
X193126362Y-66663500D01*
X194223638Y-66663500D01*
X194223654Y-66663499D01*
X194282396Y-66657183D01*
X194284201Y-66656989D01*
X194284202Y-66656988D01*
X194291751Y-66655205D01*
X194292218Y-66657183D01*
X194351334Y-66652944D01*
X194362272Y-66656155D01*
X194365799Y-66656989D01*
X194426345Y-66663499D01*
X194426362Y-66663500D01*
X195523638Y-66663500D01*
X195523654Y-66663499D01*
X195550692Y-66660591D01*
X195584201Y-66656989D01*
X195721204Y-66605889D01*
X195838261Y-66518261D01*
X195925889Y-66401204D01*
X195976989Y-66264201D01*
X195980941Y-66227444D01*
X196007679Y-66162893D01*
X196065071Y-66123045D01*
X196104230Y-66116700D01*
X204123842Y-66116700D01*
X204190881Y-66136385D01*
X204211523Y-66153019D01*
X210521367Y-72462862D01*
X210554852Y-72524185D01*
X210557006Y-72537579D01*
X210561457Y-72579921D01*
X210561459Y-72579932D01*
X210620470Y-72761549D01*
X210620473Y-72761556D01*
X210715960Y-72926944D01*
X210843747Y-73068866D01*
X210998248Y-73181118D01*
X211172712Y-73258794D01*
X211359513Y-73298500D01*
X211550487Y-73298500D01*
X211737288Y-73258794D01*
X211911752Y-73181118D01*
X212066253Y-73068866D01*
X212194040Y-72926944D01*
X212239113Y-72848874D01*
X212289679Y-72800660D01*
X212358286Y-72787436D01*
X212423151Y-72813404D01*
X212463680Y-72870318D01*
X212470500Y-72910875D01*
X212470500Y-87260795D01*
X212494920Y-87383561D01*
X212494923Y-87383573D01*
X212542823Y-87499215D01*
X212542830Y-87499228D01*
X212612374Y-87603307D01*
X212612377Y-87603311D01*
X218743648Y-93734581D01*
X218777133Y-93795904D01*
X218776173Y-93852702D01*
X218733756Y-94020204D01*
X218713936Y-94259394D01*
X218713936Y-94259405D01*
X218733756Y-94498595D01*
X218792677Y-94731272D01*
X218889092Y-94951078D01*
X219020369Y-95152010D01*
X219020371Y-95152013D01*
X219182931Y-95328601D01*
X219188100Y-95332624D01*
X219343015Y-95453200D01*
X219372340Y-95476024D01*
X219583431Y-95590260D01*
X219810445Y-95668195D01*
X220047190Y-95707700D01*
X220287210Y-95707700D01*
X220523955Y-95668195D01*
X220750969Y-95590260D01*
X220962060Y-95476024D01*
X221151469Y-95328601D01*
X221314029Y-95152013D01*
X221445308Y-94951077D01*
X221541722Y-94731274D01*
X221600643Y-94498599D01*
X221620298Y-94261408D01*
X221620464Y-94259405D01*
X221620464Y-94259394D01*
X221600643Y-94020204D01*
X221600643Y-94020201D01*
X221541722Y-93787526D01*
X221445308Y-93567723D01*
X221314029Y-93366787D01*
X221151469Y-93190199D01*
X221043618Y-93106255D01*
X220962062Y-93042777D01*
X220962057Y-93042774D01*
X220750975Y-92928543D01*
X220750972Y-92928542D01*
X220750969Y-92928540D01*
X220750963Y-92928538D01*
X220750961Y-92928537D01*
X220523957Y-92850605D01*
X220287210Y-92811100D01*
X220047190Y-92811100D01*
X219810441Y-92850605D01*
X219810439Y-92850605D01*
X219769527Y-92864651D01*
X219699729Y-92867801D01*
X219641584Y-92835051D01*
X213777819Y-86971286D01*
X213744334Y-86909963D01*
X213741500Y-86883605D01*
X213741500Y-75855357D01*
X213761185Y-75788318D01*
X213813989Y-75742563D01*
X213883147Y-75732619D01*
X213946703Y-75761644D01*
X213953167Y-75767663D01*
X215752270Y-77566765D01*
X217506367Y-79320862D01*
X217539852Y-79382185D01*
X217542006Y-79395579D01*
X217546457Y-79437921D01*
X217546459Y-79437932D01*
X217605470Y-79619549D01*
X217605473Y-79619556D01*
X217700959Y-79784943D01*
X217704616Y-79789976D01*
X217728098Y-79855782D01*
X217728300Y-79862864D01*
X217728300Y-84506768D01*
X217728299Y-84506794D01*
X217728299Y-84652100D01*
X217755647Y-84789587D01*
X217755649Y-84789595D01*
X217809297Y-84919114D01*
X217809302Y-84919123D01*
X217887185Y-85035682D01*
X217887188Y-85035686D01*
X217990636Y-85139134D01*
X217990658Y-85139154D01*
X221062367Y-88210863D01*
X221095852Y-88272186D01*
X221098006Y-88285580D01*
X221102457Y-88327921D01*
X221102459Y-88327932D01*
X221161470Y-88509549D01*
X221161473Y-88509556D01*
X221256960Y-88674944D01*
X221384747Y-88816866D01*
X221539248Y-88929118D01*
X221713712Y-89006794D01*
X221900513Y-89046500D01*
X222091487Y-89046500D01*
X222278288Y-89006794D01*
X222452752Y-88929118D01*
X222607253Y-88816866D01*
X222735040Y-88674944D01*
X222830527Y-88509556D01*
X222889542Y-88327928D01*
X222909504Y-88138000D01*
X222889542Y-87948072D01*
X222830527Y-87766444D01*
X222735040Y-87601056D01*
X222607253Y-87459134D01*
X222452752Y-87346882D01*
X222278288Y-87269206D01*
X222278286Y-87269205D01*
X222130599Y-87237813D01*
X222069118Y-87204620D01*
X222068700Y-87204204D01*
X219188019Y-84323523D01*
X219154534Y-84262200D01*
X219151700Y-84235842D01*
X219151700Y-79862864D01*
X219171385Y-79795825D01*
X219175384Y-79789976D01*
X219179036Y-79784948D01*
X219179040Y-79784944D01*
X219274527Y-79619556D01*
X219333542Y-79437928D01*
X219353504Y-79248000D01*
X219333542Y-79058072D01*
X219274527Y-78876444D01*
X219179040Y-78711056D01*
X219051253Y-78569134D01*
X218896752Y-78456882D01*
X218722288Y-78379206D01*
X218722286Y-78379205D01*
X218722285Y-78379205D01*
X218574599Y-78347813D01*
X218513117Y-78314620D01*
X218512699Y-78314204D01*
X216927989Y-76729494D01*
X220306844Y-76729494D01*
X220306844Y-76729505D01*
X220325434Y-76953859D01*
X220325436Y-76953871D01*
X220380703Y-77172114D01*
X220471140Y-77378292D01*
X220594276Y-77566765D01*
X220594284Y-77566776D01*
X220746756Y-77732402D01*
X220746760Y-77732406D01*
X220924424Y-77870689D01*
X220924429Y-77870691D01*
X220924431Y-77870693D01*
X220960930Y-77890446D01*
X221010520Y-77939665D01*
X221025628Y-78007882D01*
X221001457Y-78073437D01*
X220960930Y-78108554D01*
X220924431Y-78128306D01*
X220924422Y-78128312D01*
X220746761Y-78266592D01*
X220746756Y-78266597D01*
X220594284Y-78432223D01*
X220594276Y-78432234D01*
X220471140Y-78620707D01*
X220380703Y-78826885D01*
X220325436Y-79045128D01*
X220325434Y-79045140D01*
X220306844Y-79269494D01*
X220306844Y-79269505D01*
X220325434Y-79493859D01*
X220325436Y-79493871D01*
X220380703Y-79712114D01*
X220471140Y-79918292D01*
X220594276Y-80106765D01*
X220594284Y-80106776D01*
X220725116Y-80248895D01*
X220746760Y-80272406D01*
X220924424Y-80410689D01*
X220924429Y-80410691D01*
X220924431Y-80410693D01*
X220960930Y-80430446D01*
X221010520Y-80479665D01*
X221025628Y-80547882D01*
X221001457Y-80613437D01*
X220960930Y-80648554D01*
X220924431Y-80668306D01*
X220924422Y-80668312D01*
X220746761Y-80806592D01*
X220746756Y-80806597D01*
X220594284Y-80972223D01*
X220594276Y-80972234D01*
X220471140Y-81160707D01*
X220380703Y-81366885D01*
X220325436Y-81585128D01*
X220325434Y-81585140D01*
X220306844Y-81809494D01*
X220306844Y-81809505D01*
X220325434Y-82033859D01*
X220325436Y-82033871D01*
X220380703Y-82252114D01*
X220471140Y-82458292D01*
X220594276Y-82646765D01*
X220594284Y-82646776D01*
X220746756Y-82812402D01*
X220746761Y-82812407D01*
X220773368Y-82833116D01*
X220924424Y-82950689D01*
X220924425Y-82950689D01*
X220924427Y-82950691D01*
X221051135Y-83019261D01*
X221122426Y-83057842D01*
X221200643Y-83084694D01*
X221238994Y-83097860D01*
X221296009Y-83138245D01*
X221322140Y-83203045D01*
X221309089Y-83271685D01*
X221261000Y-83322373D01*
X221243525Y-83330768D01*
X221175799Y-83357004D01*
X221175793Y-83357007D01*
X221001842Y-83464713D01*
X221001836Y-83464717D01*
X220850640Y-83602550D01*
X220727339Y-83765828D01*
X220636144Y-83948970D01*
X220636139Y-83948983D01*
X220580147Y-84145772D01*
X220573037Y-84222499D01*
X220573038Y-84222500D01*
X221186392Y-84222500D01*
X221170000Y-84283674D01*
X221170000Y-84415326D01*
X221186392Y-84476500D01*
X220573038Y-84476500D01*
X220580147Y-84553227D01*
X220636139Y-84750016D01*
X220636144Y-84750029D01*
X220727339Y-84933171D01*
X220850640Y-85096449D01*
X221001836Y-85234282D01*
X221001842Y-85234286D01*
X221175793Y-85341992D01*
X221175808Y-85341999D01*
X221366574Y-85415903D01*
X221543000Y-85448881D01*
X221543000Y-84833108D01*
X221604174Y-84849500D01*
X221735826Y-84849500D01*
X221797000Y-84833108D01*
X221797000Y-85448881D01*
X221973425Y-85415903D01*
X222164191Y-85341999D01*
X222164206Y-85341992D01*
X222338157Y-85234286D01*
X222338163Y-85234282D01*
X222489359Y-85096449D01*
X222612660Y-84933171D01*
X222703855Y-84750029D01*
X222703860Y-84750016D01*
X222759852Y-84553227D01*
X222766962Y-84476500D01*
X222153608Y-84476500D01*
X222170000Y-84415326D01*
X222170000Y-84283674D01*
X222153608Y-84222500D01*
X222766962Y-84222500D01*
X222766962Y-84222499D01*
X222759852Y-84145772D01*
X222703860Y-83948983D01*
X222703855Y-83948970D01*
X222612660Y-83765828D01*
X222489359Y-83602550D01*
X222338163Y-83464717D01*
X222338157Y-83464713D01*
X222164206Y-83357007D01*
X222164197Y-83357003D01*
X222096475Y-83330768D01*
X222041073Y-83288195D01*
X222017482Y-83222429D01*
X222033193Y-83154348D01*
X222083217Y-83105569D01*
X222101005Y-83097860D01*
X222217574Y-83057842D01*
X222415576Y-82950689D01*
X222593240Y-82812406D01*
X222745722Y-82646768D01*
X222868860Y-82458291D01*
X222959296Y-82252116D01*
X223014564Y-82033868D01*
X223026196Y-81893497D01*
X223033156Y-81809505D01*
X223033156Y-81809494D01*
X223014565Y-81585140D01*
X223014563Y-81585128D01*
X222982167Y-81457201D01*
X222959296Y-81366884D01*
X222868860Y-81160709D01*
X222851083Y-81133500D01*
X222745723Y-80972234D01*
X222745715Y-80972223D01*
X222593243Y-80806597D01*
X222593238Y-80806592D01*
X222415577Y-80668312D01*
X222415578Y-80668312D01*
X222415576Y-80668311D01*
X222379070Y-80648555D01*
X222329479Y-80599336D01*
X222314371Y-80531119D01*
X222338541Y-80465564D01*
X222379070Y-80430445D01*
X222379084Y-80430436D01*
X222415576Y-80410689D01*
X222593240Y-80272406D01*
X222692614Y-80164457D01*
X222745715Y-80106776D01*
X222745716Y-80106774D01*
X222745722Y-80106768D01*
X222868860Y-79918291D01*
X222959296Y-79712116D01*
X223014564Y-79493868D01*
X223019199Y-79437931D01*
X223033156Y-79269505D01*
X223033156Y-79269494D01*
X223014565Y-79045140D01*
X223014563Y-79045128D01*
X222959296Y-78826885D01*
X222908489Y-78711056D01*
X222868860Y-78620709D01*
X222854604Y-78598889D01*
X222761827Y-78456883D01*
X222745722Y-78432232D01*
X222745719Y-78432229D01*
X222745715Y-78432223D01*
X222593243Y-78266597D01*
X222593238Y-78266592D01*
X222474797Y-78174405D01*
X222415576Y-78128311D01*
X222379070Y-78108555D01*
X222329479Y-78059336D01*
X222314371Y-77991119D01*
X222338541Y-77925564D01*
X222379070Y-77890445D01*
X222379084Y-77890436D01*
X222415576Y-77870689D01*
X222593240Y-77732406D01*
X222745722Y-77566768D01*
X222868860Y-77378291D01*
X222959296Y-77172116D01*
X223014564Y-76953868D01*
X223014565Y-76953859D01*
X223033156Y-76729505D01*
X223033156Y-76729494D01*
X223014565Y-76505140D01*
X223014563Y-76505128D01*
X222959296Y-76286885D01*
X222933957Y-76229118D01*
X222868860Y-76080709D01*
X222745722Y-75892232D01*
X222745719Y-75892229D01*
X222745715Y-75892223D01*
X222593243Y-75726597D01*
X222593238Y-75726592D01*
X222444490Y-75610816D01*
X222415576Y-75588311D01*
X222415575Y-75588310D01*
X222415572Y-75588308D01*
X222301459Y-75526554D01*
X222251868Y-75477335D01*
X222236760Y-75409118D01*
X222260930Y-75343562D01*
X222316706Y-75301481D01*
X222360476Y-75293499D01*
X222545015Y-75293499D01*
X222619106Y-75278762D01*
X222619109Y-75278761D01*
X222703123Y-75222623D01*
X222759263Y-75138604D01*
X222759264Y-75138603D01*
X222773999Y-75064521D01*
X222774000Y-75064518D01*
X222774000Y-74316500D01*
X222153608Y-74316500D01*
X222170000Y-74255326D01*
X222170000Y-74123674D01*
X222153608Y-74062500D01*
X222773999Y-74062500D01*
X222773999Y-73314485D01*
X222759262Y-73240393D01*
X222759261Y-73240390D01*
X222703123Y-73156376D01*
X222619104Y-73100236D01*
X222619103Y-73100235D01*
X222545021Y-73085500D01*
X221797000Y-73085500D01*
X221797000Y-73705891D01*
X221735826Y-73689500D01*
X221604174Y-73689500D01*
X221543000Y-73705891D01*
X221543000Y-73085500D01*
X220794985Y-73085500D01*
X220720893Y-73100237D01*
X220720890Y-73100238D01*
X220636876Y-73156376D01*
X220580736Y-73240395D01*
X220580735Y-73240396D01*
X220566000Y-73314478D01*
X220566000Y-74062500D01*
X221186392Y-74062500D01*
X221170000Y-74123674D01*
X221170000Y-74255326D01*
X221186392Y-74316500D01*
X220566001Y-74316500D01*
X220566001Y-75064514D01*
X220580737Y-75138606D01*
X220580738Y-75138609D01*
X220636876Y-75222623D01*
X220720895Y-75278763D01*
X220720896Y-75278764D01*
X220794980Y-75293499D01*
X220979521Y-75293499D01*
X221046561Y-75313183D01*
X221092316Y-75365987D01*
X221102260Y-75435145D01*
X221073235Y-75498701D01*
X221038540Y-75526553D01*
X220924431Y-75588306D01*
X220924422Y-75588312D01*
X220746761Y-75726592D01*
X220746756Y-75726597D01*
X220594284Y-75892223D01*
X220594276Y-75892234D01*
X220471140Y-76080707D01*
X220380703Y-76286885D01*
X220325436Y-76505128D01*
X220325434Y-76505140D01*
X220306844Y-76729494D01*
X216927989Y-76729494D01*
X215134708Y-74936212D01*
X215101223Y-74874889D01*
X215104457Y-74810215D01*
X215143542Y-74689928D01*
X215163504Y-74500000D01*
X215143542Y-74310072D01*
X215084527Y-74128444D01*
X214989040Y-73963056D01*
X214861253Y-73821134D01*
X214706752Y-73708882D01*
X214532288Y-73631206D01*
X214532286Y-73631205D01*
X214345487Y-73591500D01*
X214154513Y-73591500D01*
X213967713Y-73631205D01*
X213967710Y-73631206D01*
X213915934Y-73654258D01*
X213846684Y-73663542D01*
X213783408Y-73633913D01*
X213746195Y-73574777D01*
X213741500Y-73540978D01*
X213741500Y-66993535D01*
X213761185Y-66926496D01*
X213773343Y-66910570D01*
X213845040Y-66830944D01*
X213940527Y-66665556D01*
X213999542Y-66483928D01*
X214019504Y-66294000D01*
X213999542Y-66104072D01*
X213940527Y-65922444D01*
X213845040Y-65757056D01*
X213717253Y-65615134D01*
X213562752Y-65502882D01*
X213388288Y-65425206D01*
X213388286Y-65425205D01*
X213201487Y-65385500D01*
X213010513Y-65385500D01*
X212823714Y-65425205D01*
X212649246Y-65502883D01*
X212494745Y-65615135D01*
X212366959Y-65757057D01*
X212271473Y-65922443D01*
X212271470Y-65922450D01*
X212212459Y-66104068D01*
X212212458Y-66104072D01*
X212192496Y-66294000D01*
X212212458Y-66483928D01*
X212212459Y-66483931D01*
X212271470Y-66665549D01*
X212271473Y-66665556D01*
X212351114Y-66803499D01*
X212366960Y-66830944D01*
X212438651Y-66910564D01*
X212468880Y-66973554D01*
X212470500Y-66993535D01*
X212470500Y-71869124D01*
X212450815Y-71936163D01*
X212398011Y-71981918D01*
X212328853Y-71991862D01*
X212265297Y-71962837D01*
X212239113Y-71931124D01*
X212222791Y-71902854D01*
X212194040Y-71853056D01*
X212066253Y-71711134D01*
X211911752Y-71598882D01*
X211737288Y-71521206D01*
X211737286Y-71521205D01*
X211737285Y-71521205D01*
X211589599Y-71489813D01*
X211528117Y-71456620D01*
X211527699Y-71456204D01*
X205027154Y-64955658D01*
X205027134Y-64955636D01*
X204923686Y-64852188D01*
X204923682Y-64852185D01*
X204807123Y-64774302D01*
X204807114Y-64774297D01*
X204677595Y-64720649D01*
X204677587Y-64720647D01*
X204540100Y-64693299D01*
X204540096Y-64693299D01*
X204399904Y-64693299D01*
X204393790Y-64693299D01*
X204393770Y-64693300D01*
X196104230Y-64693300D01*
X196037191Y-64673615D01*
X195991436Y-64620811D01*
X195980941Y-64582556D01*
X195979764Y-64571614D01*
X195976989Y-64545799D01*
X195925889Y-64408796D01*
X195838261Y-64291739D01*
X195721204Y-64204111D01*
X195584203Y-64153011D01*
X195523654Y-64146500D01*
X195523638Y-64146500D01*
X194426362Y-64146500D01*
X194426345Y-64146500D01*
X194365802Y-64153010D01*
X194358245Y-64154796D01*
X194357778Y-64152822D01*
X194298626Y-64157046D01*
X194287708Y-64153839D01*
X194284197Y-64153010D01*
X194223654Y-64146500D01*
X194223638Y-64146500D01*
X193126362Y-64146500D01*
X193126345Y-64146500D01*
X193065797Y-64153011D01*
X193065795Y-64153011D01*
X192928795Y-64204111D01*
X192811739Y-64291739D01*
X192724111Y-64408795D01*
X192673011Y-64545795D01*
X192673011Y-64545797D01*
X192669059Y-64582556D01*
X192642321Y-64647107D01*
X192584929Y-64686955D01*
X192545770Y-64693300D01*
X190667500Y-64693300D01*
X190600461Y-64673615D01*
X190554706Y-64620811D01*
X190543500Y-64569300D01*
X190543500Y-64546362D01*
X190543499Y-64546345D01*
X190540157Y-64515270D01*
X190536989Y-64485799D01*
X190485889Y-64348796D01*
X190398261Y-64231739D01*
X190281204Y-64144111D01*
X190144203Y-64093011D01*
X190083654Y-64086500D01*
X190083638Y-64086500D01*
X189809763Y-64086500D01*
X189742724Y-64066815D01*
X189696969Y-64014011D01*
X189687025Y-63944853D01*
X189716050Y-63881297D01*
X189744486Y-63857073D01*
X189853157Y-63789786D01*
X189853163Y-63789782D01*
X190004359Y-63651949D01*
X190127660Y-63488671D01*
X190218855Y-63305529D01*
X190218860Y-63305516D01*
X190274852Y-63108727D01*
X190281962Y-63032000D01*
X189668608Y-63032000D01*
X189685000Y-62970826D01*
X189685000Y-62839174D01*
X189668608Y-62778000D01*
X190281962Y-62778000D01*
X190281962Y-62777999D01*
X190274852Y-62701272D01*
X190218860Y-62504483D01*
X190218855Y-62504470D01*
X190127660Y-62321328D01*
X190004359Y-62158050D01*
X189853163Y-62020217D01*
X189853157Y-62020213D01*
X189679206Y-61912507D01*
X189679197Y-61912503D01*
X189611475Y-61886268D01*
X189556073Y-61843695D01*
X189532482Y-61777929D01*
X189548193Y-61709848D01*
X189598217Y-61661069D01*
X189616005Y-61653360D01*
X189732574Y-61613342D01*
X189930576Y-61506189D01*
X190108240Y-61367906D01*
X190260722Y-61202268D01*
X190383860Y-61013791D01*
X190474296Y-60807616D01*
X190529564Y-60589368D01*
X190548156Y-60365000D01*
X190529564Y-60140632D01*
X190474296Y-59922384D01*
X190383860Y-59716209D01*
X190260722Y-59527732D01*
X190260719Y-59527729D01*
X190260715Y-59527723D01*
X190108243Y-59362097D01*
X190108238Y-59362092D01*
X189930577Y-59223812D01*
X189930578Y-59223812D01*
X189930576Y-59223811D01*
X189894070Y-59204055D01*
X189844479Y-59154836D01*
X189829371Y-59086619D01*
X189853541Y-59021064D01*
X189894070Y-58985945D01*
X189894084Y-58985936D01*
X189930576Y-58966189D01*
X190108240Y-58827906D01*
X190234853Y-58690369D01*
X190260715Y-58662276D01*
X190260716Y-58662274D01*
X190260722Y-58662268D01*
X190383860Y-58473791D01*
X190474296Y-58267616D01*
X190529564Y-58049368D01*
X190548156Y-57825000D01*
X190545438Y-57792204D01*
X190529564Y-57600633D01*
X190529564Y-57600629D01*
X190502110Y-57492219D01*
X190504734Y-57422399D01*
X190534632Y-57374099D01*
X197706914Y-50201819D01*
X197768237Y-50168334D01*
X197794595Y-50165500D01*
X210749491Y-50165500D01*
X210816530Y-50185185D01*
X210841641Y-50206527D01*
X210843747Y-50208866D01*
X210998248Y-50321118D01*
X211172712Y-50398794D01*
X211359513Y-50438500D01*
X211550487Y-50438500D01*
X211737288Y-50398794D01*
X211911752Y-50321118D01*
X212066253Y-50208866D01*
X212194040Y-50066944D01*
X212289527Y-49901556D01*
X212348542Y-49719928D01*
X212368504Y-49530000D01*
X212348542Y-49340072D01*
X212289527Y-49158444D01*
X212194040Y-48993056D01*
X212066253Y-48851134D01*
X211911752Y-48738882D01*
X211737288Y-48661206D01*
X211737286Y-48661205D01*
X211550487Y-48621500D01*
X211359513Y-48621500D01*
X211208465Y-48653606D01*
X211138798Y-48648290D01*
X211083064Y-48606153D01*
X211064753Y-48570634D01*
X211019529Y-48431450D01*
X211019528Y-48431449D01*
X211019527Y-48431444D01*
X210924040Y-48266056D01*
X210808981Y-48138270D01*
X210796254Y-48124135D01*
X210756169Y-48095011D01*
X210641752Y-48011882D01*
X210467288Y-47934206D01*
X210467286Y-47934205D01*
X210280487Y-47894500D01*
X210089513Y-47894500D01*
X209902714Y-47934205D01*
X209728246Y-48011883D01*
X209573745Y-48124135D01*
X209571642Y-48126472D01*
X209570084Y-48127431D01*
X209568912Y-48128487D01*
X209568719Y-48128272D01*
X209512155Y-48163120D01*
X209479491Y-48167500D01*
X195244994Y-48167500D01*
X195177955Y-48147815D01*
X195132200Y-48095011D01*
X195122256Y-48025853D01*
X195151281Y-47962297D01*
X195157313Y-47955819D01*
X211261533Y-31851600D01*
X219634696Y-31851600D01*
X219654658Y-32041528D01*
X219654659Y-32041531D01*
X219713670Y-32223149D01*
X219713673Y-32223156D01*
X219809160Y-32388544D01*
X219936947Y-32530466D01*
X220091448Y-32642718D01*
X220265912Y-32720394D01*
X220452713Y-32760100D01*
X220643687Y-32760100D01*
X220830488Y-32720394D01*
X221004952Y-32642718D01*
X221159453Y-32530466D01*
X221287240Y-32388544D01*
X221382727Y-32223156D01*
X221441742Y-32041528D01*
X221458849Y-31878759D01*
X221485432Y-31814148D01*
X221494479Y-31804053D01*
X222305714Y-30992819D01*
X222367037Y-30959334D01*
X222393395Y-30956500D01*
X222620638Y-30956500D01*
X222620654Y-30956499D01*
X222647692Y-30953591D01*
X222681201Y-30949989D01*
X222818204Y-30898889D01*
X222935261Y-30811261D01*
X223022889Y-30694204D01*
X223073989Y-30557201D01*
X223077591Y-30523692D01*
X223080499Y-30496654D01*
X223080500Y-30496637D01*
X223080500Y-28899362D01*
X223080499Y-28899345D01*
X223077157Y-28868270D01*
X223073989Y-28838799D01*
X223022889Y-28701796D01*
X222935261Y-28584739D01*
X222818204Y-28497111D01*
X222681203Y-28446011D01*
X222620654Y-28439500D01*
X222620638Y-28439500D01*
X221523362Y-28439500D01*
X221523345Y-28439500D01*
X221462797Y-28446011D01*
X221462795Y-28446011D01*
X221325795Y-28497111D01*
X221208739Y-28584739D01*
X221121111Y-28701795D01*
X221070011Y-28838795D01*
X221070011Y-28838797D01*
X221063500Y-28899345D01*
X221063500Y-30386205D01*
X221043815Y-30453244D01*
X221027181Y-30473886D01*
X220594286Y-30906781D01*
X220532963Y-30940266D01*
X220506605Y-30943100D01*
X220452713Y-30943100D01*
X220265914Y-30982805D01*
X220091446Y-31060483D01*
X219936945Y-31172735D01*
X219809159Y-31314657D01*
X219713673Y-31480043D01*
X219713670Y-31480050D01*
X219654659Y-31661668D01*
X219654658Y-31661672D01*
X219634696Y-31851600D01*
X211261533Y-31851600D01*
X212640119Y-30473014D01*
X218118001Y-30473014D01*
X218132737Y-30547106D01*
X218132738Y-30547109D01*
X218188876Y-30631123D01*
X218272895Y-30687263D01*
X218272896Y-30687264D01*
X218346980Y-30701999D01*
X218744999Y-30701999D01*
X218999000Y-30701999D01*
X219397015Y-30701999D01*
X219471106Y-30687262D01*
X219471109Y-30687261D01*
X219555123Y-30631123D01*
X219611263Y-30547104D01*
X219611264Y-30547103D01*
X219625999Y-30473021D01*
X219626000Y-30473018D01*
X219626000Y-29825000D01*
X218999000Y-29825000D01*
X218999000Y-30701999D01*
X218744999Y-30701999D01*
X218745000Y-30701998D01*
X218745000Y-29825000D01*
X218118001Y-29825000D01*
X218118001Y-30473014D01*
X212640119Y-30473014D01*
X214190155Y-28922978D01*
X218118000Y-28922978D01*
X218118000Y-29571000D01*
X218745000Y-29571000D01*
X218999000Y-29571000D01*
X219625999Y-29571000D01*
X219625999Y-28922985D01*
X219611262Y-28848893D01*
X219611261Y-28848890D01*
X219555123Y-28764876D01*
X219471104Y-28708736D01*
X219471103Y-28708735D01*
X219397021Y-28694000D01*
X218999000Y-28694000D01*
X218999000Y-29571000D01*
X218745000Y-29571000D01*
X218745000Y-28694000D01*
X218346985Y-28694000D01*
X218272893Y-28708737D01*
X218272890Y-28708738D01*
X218188876Y-28764876D01*
X218132736Y-28848895D01*
X218132735Y-28848896D01*
X218118000Y-28922978D01*
X214190155Y-28922978D01*
X217643314Y-25469819D01*
X217704637Y-25436334D01*
X217730995Y-25433500D01*
X217739500Y-25433500D01*
X217806539Y-25453185D01*
X217852294Y-25505989D01*
X217863500Y-25557500D01*
X217863500Y-25596654D01*
X217870011Y-25657202D01*
X217870011Y-25657204D01*
X217921111Y-25794204D01*
X218008739Y-25911261D01*
X218125796Y-25998889D01*
X218262799Y-26049989D01*
X218290050Y-26052918D01*
X218323345Y-26056499D01*
X218323362Y-26056500D01*
X219420638Y-26056500D01*
X219420654Y-26056499D01*
X219447692Y-26053591D01*
X219481201Y-26049989D01*
X219618204Y-25998889D01*
X219735261Y-25911261D01*
X219822889Y-25794204D01*
X219873989Y-25657201D01*
X219877591Y-25623692D01*
X219880499Y-25596654D01*
X219880500Y-25596637D01*
X219880500Y-23999362D01*
X219880499Y-23999345D01*
X221063500Y-23999345D01*
X221063500Y-25596654D01*
X221070011Y-25657202D01*
X221070011Y-25657204D01*
X221121111Y-25794204D01*
X221208739Y-25911261D01*
X221325796Y-25998889D01*
X221462799Y-26049989D01*
X221490050Y-26052918D01*
X221523345Y-26056499D01*
X221523362Y-26056500D01*
X221566700Y-26056500D01*
X221633739Y-26076185D01*
X221679494Y-26128989D01*
X221690700Y-26180500D01*
X221690700Y-26537735D01*
X221671015Y-26604774D01*
X221667020Y-26610618D01*
X221663359Y-26615656D01*
X221567873Y-26781043D01*
X221567870Y-26781050D01*
X221508859Y-26962668D01*
X221508858Y-26962672D01*
X221488896Y-27152600D01*
X221508858Y-27342528D01*
X221508859Y-27342531D01*
X221567870Y-27524149D01*
X221567873Y-27524156D01*
X221663360Y-27689544D01*
X221791147Y-27831466D01*
X221945648Y-27943718D01*
X222120112Y-28021394D01*
X222306913Y-28061100D01*
X222497887Y-28061100D01*
X222684688Y-28021394D01*
X222859152Y-27943718D01*
X223013653Y-27831466D01*
X223141440Y-27689544D01*
X223236927Y-27524156D01*
X223295942Y-27342528D01*
X223315904Y-27152600D01*
X223295942Y-26962672D01*
X223236927Y-26781044D01*
X223141440Y-26615656D01*
X223137780Y-26610618D01*
X223114302Y-26544812D01*
X223114100Y-26537735D01*
X223114100Y-25204630D01*
X223114101Y-25204609D01*
X223114101Y-25058303D01*
X223114100Y-25058299D01*
X223086752Y-24920808D01*
X223085839Y-24917798D01*
X223080500Y-24881804D01*
X223080500Y-23999362D01*
X223080499Y-23999345D01*
X223077157Y-23968270D01*
X223073989Y-23938799D01*
X223022889Y-23801796D01*
X222935261Y-23684739D01*
X222818204Y-23597111D01*
X222681203Y-23546011D01*
X222620654Y-23539500D01*
X222620638Y-23539500D01*
X221523362Y-23539500D01*
X221523345Y-23539500D01*
X221462797Y-23546011D01*
X221462795Y-23546011D01*
X221325795Y-23597111D01*
X221208739Y-23684739D01*
X221121111Y-23801795D01*
X221070011Y-23938795D01*
X221070011Y-23938797D01*
X221063500Y-23999345D01*
X219880499Y-23999345D01*
X219877157Y-23968270D01*
X219873989Y-23938799D01*
X219822889Y-23801796D01*
X219735261Y-23684739D01*
X219618204Y-23597111D01*
X219481203Y-23546011D01*
X219420654Y-23539500D01*
X219420638Y-23539500D01*
X218323362Y-23539500D01*
X218323345Y-23539500D01*
X218262797Y-23546011D01*
X218262795Y-23546011D01*
X218125795Y-23597111D01*
X218008739Y-23684739D01*
X217921111Y-23801795D01*
X217870011Y-23938795D01*
X217870011Y-23938797D01*
X217863500Y-23999345D01*
X217863500Y-24038500D01*
X217843815Y-24105539D01*
X217791011Y-24151294D01*
X217739500Y-24162500D01*
X217353804Y-24162500D01*
X217231038Y-24186920D01*
X217231026Y-24186923D01*
X217115384Y-24234823D01*
X217115371Y-24234830D01*
X217011292Y-24304374D01*
X217011288Y-24304377D01*
X185726486Y-55589181D01*
X185665163Y-55622666D01*
X185638805Y-55625500D01*
X171561395Y-55625500D01*
X171494356Y-55605815D01*
X171473714Y-55589181D01*
X171182019Y-55297486D01*
X171148534Y-55236163D01*
X171145700Y-55209805D01*
X171145700Y-46458395D01*
X171165385Y-46391356D01*
X171182019Y-46370714D01*
X171559914Y-45992819D01*
X171621237Y-45959334D01*
X171647595Y-45956500D01*
X172504638Y-45956500D01*
X172504654Y-45956499D01*
X172531692Y-45953591D01*
X172565201Y-45949989D01*
X172702204Y-45898889D01*
X172819261Y-45811261D01*
X172906889Y-45694204D01*
X172957989Y-45557201D01*
X172961591Y-45523692D01*
X172964499Y-45496654D01*
X172964500Y-45496637D01*
X172964500Y-43899362D01*
X172964499Y-43899345D01*
X172961157Y-43868270D01*
X172957989Y-43838799D01*
X172906889Y-43701796D01*
X172819261Y-43584739D01*
X172702204Y-43497111D01*
X172565203Y-43446011D01*
X172504654Y-43439500D01*
X172504638Y-43439500D01*
X171407362Y-43439500D01*
X171407345Y-43439500D01*
X171346797Y-43446011D01*
X171346795Y-43446011D01*
X171209795Y-43497111D01*
X171092739Y-43584739D01*
X171005111Y-43701795D01*
X170954011Y-43838795D01*
X170954011Y-43838797D01*
X170947500Y-43899345D01*
X170947500Y-44756405D01*
X170927815Y-44823444D01*
X170911181Y-44844086D01*
X170105092Y-45650175D01*
X170068006Y-45687261D01*
X170016573Y-45738693D01*
X169947030Y-45842771D01*
X169947023Y-45842784D01*
X169899123Y-45958426D01*
X169899120Y-45958438D01*
X169874700Y-46081204D01*
X161598929Y-46081204D01*
X162207119Y-45473014D01*
X168002001Y-45473014D01*
X168016737Y-45547106D01*
X168016738Y-45547109D01*
X168072876Y-45631123D01*
X168156895Y-45687263D01*
X168156896Y-45687264D01*
X168230980Y-45701999D01*
X168628999Y-45701999D01*
X168883000Y-45701999D01*
X169281015Y-45701999D01*
X169355106Y-45687262D01*
X169355109Y-45687261D01*
X169439123Y-45631123D01*
X169495263Y-45547104D01*
X169495264Y-45547103D01*
X169509999Y-45473021D01*
X169510000Y-45473018D01*
X169510000Y-44825000D01*
X168883000Y-44825000D01*
X168883000Y-45701999D01*
X168628999Y-45701999D01*
X168629000Y-45701998D01*
X168629000Y-44825000D01*
X168002001Y-44825000D01*
X168002001Y-45473014D01*
X162207119Y-45473014D01*
X163757155Y-43922978D01*
X168002000Y-43922978D01*
X168002000Y-44571000D01*
X168629000Y-44571000D01*
X168883000Y-44571000D01*
X169509999Y-44571000D01*
X169509999Y-43922985D01*
X169495262Y-43848893D01*
X169495261Y-43848890D01*
X169439123Y-43764876D01*
X169355104Y-43708736D01*
X169355103Y-43708735D01*
X169281021Y-43694000D01*
X168883000Y-43694000D01*
X168883000Y-44571000D01*
X168629000Y-44571000D01*
X168629000Y-43694000D01*
X168230985Y-43694000D01*
X168156893Y-43708737D01*
X168156890Y-43708738D01*
X168072876Y-43764876D01*
X168016736Y-43848895D01*
X168016735Y-43848896D01*
X168002000Y-43922978D01*
X163757155Y-43922978D01*
X167210314Y-40469819D01*
X167271637Y-40436334D01*
X167297995Y-40433500D01*
X167623500Y-40433500D01*
X167690539Y-40453185D01*
X167736294Y-40505989D01*
X167747500Y-40557500D01*
X167747500Y-40596654D01*
X167754011Y-40657202D01*
X167754011Y-40657204D01*
X167805111Y-40794204D01*
X167892739Y-40911261D01*
X168009796Y-40998889D01*
X168146799Y-41049989D01*
X168174050Y-41052918D01*
X168207345Y-41056499D01*
X168207362Y-41056500D01*
X169304638Y-41056500D01*
X169304654Y-41056499D01*
X169331692Y-41053591D01*
X169365201Y-41049989D01*
X169502204Y-40998889D01*
X169619261Y-40911261D01*
X169706889Y-40794204D01*
X169757989Y-40657201D01*
X169761591Y-40623692D01*
X169764499Y-40596654D01*
X169764500Y-40596637D01*
X169764500Y-38999362D01*
X169764499Y-38999345D01*
X170947500Y-38999345D01*
X170947500Y-40596654D01*
X170954011Y-40657202D01*
X170954011Y-40657204D01*
X171005111Y-40794204D01*
X171092739Y-40911261D01*
X171194612Y-40987522D01*
X171236482Y-41043455D01*
X171244300Y-41086788D01*
X171244300Y-41551888D01*
X171224615Y-41618927D01*
X171220619Y-41624772D01*
X171218959Y-41627055D01*
X171123473Y-41792443D01*
X171123470Y-41792450D01*
X171064459Y-41974068D01*
X171064458Y-41974072D01*
X171044496Y-42164000D01*
X171064458Y-42353928D01*
X171064459Y-42353931D01*
X171123470Y-42535549D01*
X171123473Y-42535556D01*
X171218960Y-42700944D01*
X171346747Y-42842866D01*
X171501248Y-42955118D01*
X171675712Y-43032794D01*
X171862513Y-43072500D01*
X172053487Y-43072500D01*
X172240288Y-43032794D01*
X172414752Y-42955118D01*
X172569253Y-42842866D01*
X172697040Y-42700944D01*
X172792527Y-42535556D01*
X172851542Y-42353928D01*
X172871504Y-42164000D01*
X172851542Y-41974072D01*
X172792527Y-41792444D01*
X172697040Y-41627056D01*
X172697039Y-41627054D01*
X172693221Y-41621800D01*
X172695048Y-41620471D01*
X172669318Y-41566834D01*
X172667700Y-41546871D01*
X172667700Y-41086788D01*
X172687385Y-41019749D01*
X172717387Y-40987523D01*
X172819261Y-40911261D01*
X172906889Y-40794204D01*
X172957989Y-40657201D01*
X172961591Y-40623692D01*
X172964499Y-40596654D01*
X172964500Y-40596637D01*
X172964500Y-38999362D01*
X172964499Y-38999345D01*
X172961157Y-38968270D01*
X172957989Y-38938799D01*
X172906889Y-38801796D01*
X172819261Y-38684739D01*
X172702204Y-38597111D01*
X172565203Y-38546011D01*
X172504654Y-38539500D01*
X172504638Y-38539500D01*
X171407362Y-38539500D01*
X171407345Y-38539500D01*
X171346797Y-38546011D01*
X171346795Y-38546011D01*
X171209795Y-38597111D01*
X171092739Y-38684739D01*
X171005111Y-38801795D01*
X170954011Y-38938795D01*
X170954011Y-38938797D01*
X170947500Y-38999345D01*
X169764499Y-38999345D01*
X169761157Y-38968270D01*
X169757989Y-38938799D01*
X169706889Y-38801796D01*
X169619261Y-38684739D01*
X169502204Y-38597111D01*
X169365203Y-38546011D01*
X169304654Y-38539500D01*
X169304638Y-38539500D01*
X168207362Y-38539500D01*
X168207345Y-38539500D01*
X168146797Y-38546011D01*
X168146795Y-38546011D01*
X168009795Y-38597111D01*
X167892739Y-38684739D01*
X167805111Y-38801795D01*
X167754011Y-38938795D01*
X167754011Y-38938797D01*
X167747500Y-38999345D01*
X167747500Y-39038500D01*
X167727815Y-39105539D01*
X167675011Y-39151294D01*
X167623500Y-39162500D01*
X166920804Y-39162500D01*
X166798038Y-39186920D01*
X166798026Y-39186923D01*
X166682384Y-39234823D01*
X166682371Y-39234830D01*
X166578292Y-39304374D01*
X166578288Y-39304377D01*
X137974486Y-67908181D01*
X137913163Y-67941666D01*
X137886805Y-67944500D01*
X123377595Y-67944500D01*
X123310556Y-67924815D01*
X123289914Y-67908181D01*
X121271019Y-65889286D01*
X121237534Y-65827963D01*
X121234700Y-65801605D01*
X121234700Y-58169395D01*
X121254385Y-58102356D01*
X121271019Y-58081714D01*
X121859914Y-57492819D01*
X121921237Y-57459334D01*
X121947595Y-57456500D01*
X122804638Y-57456500D01*
X122804654Y-57456499D01*
X122831692Y-57453591D01*
X122865201Y-57449989D01*
X122865998Y-57449692D01*
X122879768Y-57444555D01*
X123002204Y-57398889D01*
X123119261Y-57311261D01*
X123206889Y-57194204D01*
X123257989Y-57057201D01*
X123261591Y-57023692D01*
X123264499Y-56996654D01*
X123264500Y-56996637D01*
X123264500Y-55399362D01*
X123264499Y-55399345D01*
X123261157Y-55368270D01*
X123257989Y-55338799D01*
X123206889Y-55201796D01*
X123119261Y-55084739D01*
X123002204Y-54997111D01*
X122865203Y-54946011D01*
X122804654Y-54939500D01*
X122804638Y-54939500D01*
X122539456Y-54939500D01*
X122472417Y-54919815D01*
X122426662Y-54867011D01*
X122416718Y-54797853D01*
X122445743Y-54734297D01*
X122489019Y-54702221D01*
X122630752Y-54639118D01*
X122785253Y-54526866D01*
X122913040Y-54384944D01*
X123008527Y-54219556D01*
X123067542Y-54037928D01*
X123087504Y-53848000D01*
X123067542Y-53658072D01*
X123008527Y-53476444D01*
X122984313Y-53434503D01*
X122967700Y-53372503D01*
X122967700Y-52586788D01*
X122987385Y-52519749D01*
X123017387Y-52487523D01*
X123119261Y-52411261D01*
X123206889Y-52294204D01*
X123257989Y-52157201D01*
X123261591Y-52123692D01*
X123264499Y-52096654D01*
X123264500Y-52096637D01*
X123264500Y-50499362D01*
X123264499Y-50499345D01*
X123261157Y-50468270D01*
X123257989Y-50438799D01*
X123257877Y-50438500D01*
X123235522Y-50378564D01*
X123206889Y-50301796D01*
X123119261Y-50184739D01*
X123002204Y-50097111D01*
X122865203Y-50046011D01*
X122804654Y-50039500D01*
X122804638Y-50039500D01*
X121707362Y-50039500D01*
X121707345Y-50039500D01*
X121646797Y-50046011D01*
X121646795Y-50046011D01*
X121509795Y-50097111D01*
X121392739Y-50184739D01*
X121305111Y-50301795D01*
X121254011Y-50438795D01*
X121254011Y-50438797D01*
X121247500Y-50499345D01*
X121247500Y-52096654D01*
X121254011Y-52157202D01*
X121254011Y-52157204D01*
X121305111Y-52294204D01*
X121392739Y-52411261D01*
X121494612Y-52487522D01*
X121536482Y-52543455D01*
X121544300Y-52586788D01*
X121544300Y-53142022D01*
X121524615Y-53209061D01*
X121512450Y-53224994D01*
X121434959Y-53311057D01*
X121339473Y-53476443D01*
X121339470Y-53476450D01*
X121280459Y-53658068D01*
X121280458Y-53658072D01*
X121260496Y-53848000D01*
X121280458Y-54037928D01*
X121280459Y-54037931D01*
X121339470Y-54219549D01*
X121339473Y-54219556D01*
X121434960Y-54384944D01*
X121562747Y-54526866D01*
X121717248Y-54639118D01*
X121858979Y-54702220D01*
X121912216Y-54747470D01*
X121932538Y-54814320D01*
X121913493Y-54881543D01*
X121861127Y-54927799D01*
X121808544Y-54939500D01*
X121707345Y-54939500D01*
X121646797Y-54946011D01*
X121646795Y-54946011D01*
X121509795Y-54997111D01*
X121392739Y-55084739D01*
X121305111Y-55201795D01*
X121254011Y-55338795D01*
X121254011Y-55338797D01*
X121247500Y-55399345D01*
X121247500Y-56256405D01*
X121227815Y-56323444D01*
X121211181Y-56344086D01*
X120194092Y-57361175D01*
X120156379Y-57398888D01*
X120105573Y-57449693D01*
X120036030Y-57553771D01*
X120036023Y-57553784D01*
X119988123Y-57669426D01*
X119988120Y-57669438D01*
X119963700Y-57792204D01*
X112245128Y-57792204D01*
X113064318Y-56973014D01*
X118302001Y-56973014D01*
X118316737Y-57047106D01*
X118316738Y-57047109D01*
X118372876Y-57131123D01*
X118456895Y-57187263D01*
X118456896Y-57187264D01*
X118530980Y-57201999D01*
X118928999Y-57201999D01*
X119183000Y-57201999D01*
X119581015Y-57201999D01*
X119655106Y-57187262D01*
X119655109Y-57187261D01*
X119739123Y-57131123D01*
X119795263Y-57047104D01*
X119795264Y-57047103D01*
X119809999Y-56973021D01*
X119810000Y-56973018D01*
X119810000Y-56325000D01*
X119183000Y-56325000D01*
X119183000Y-57201999D01*
X118928999Y-57201999D01*
X118929000Y-57201998D01*
X118929000Y-56325000D01*
X118302001Y-56325000D01*
X118302001Y-56973014D01*
X113064318Y-56973014D01*
X114614354Y-55422978D01*
X118302000Y-55422978D01*
X118302000Y-56071000D01*
X118929000Y-56071000D01*
X119183000Y-56071000D01*
X119809999Y-56071000D01*
X119809999Y-55422985D01*
X119795262Y-55348893D01*
X119795261Y-55348890D01*
X119739123Y-55264876D01*
X119655104Y-55208736D01*
X119655103Y-55208735D01*
X119581021Y-55194000D01*
X119183000Y-55194000D01*
X119183000Y-56071000D01*
X118929000Y-56071000D01*
X118929000Y-55194000D01*
X118530985Y-55194000D01*
X118456893Y-55208737D01*
X118456890Y-55208738D01*
X118372876Y-55264876D01*
X118316736Y-55348895D01*
X118316735Y-55348896D01*
X118302000Y-55422978D01*
X114614354Y-55422978D01*
X117870342Y-52166990D01*
X117931663Y-52133507D01*
X118001355Y-52138491D01*
X118057288Y-52180363D01*
X118074202Y-52211337D01*
X118105111Y-52294205D01*
X118148925Y-52352732D01*
X118192739Y-52411261D01*
X118309796Y-52498889D01*
X118446799Y-52549989D01*
X118474050Y-52552918D01*
X118507345Y-52556499D01*
X118507362Y-52556500D01*
X119604638Y-52556500D01*
X119604654Y-52556499D01*
X119631692Y-52553591D01*
X119665201Y-52549989D01*
X119802204Y-52498889D01*
X119919261Y-52411261D01*
X120006889Y-52294204D01*
X120057989Y-52157201D01*
X120061591Y-52123692D01*
X120064499Y-52096654D01*
X120064500Y-52096637D01*
X120064500Y-50499362D01*
X120064499Y-50499345D01*
X120061157Y-50468270D01*
X120057989Y-50438799D01*
X120057877Y-50438500D01*
X120035522Y-50378564D01*
X120006889Y-50301796D01*
X119919261Y-50184739D01*
X119802204Y-50097111D01*
X119665203Y-50046011D01*
X119604654Y-50039500D01*
X119604638Y-50039500D01*
X118507362Y-50039500D01*
X118507345Y-50039500D01*
X118446797Y-50046011D01*
X118446792Y-50046012D01*
X118330460Y-50089403D01*
X118260769Y-50094388D01*
X118250863Y-50088979D01*
X118251638Y-50093939D01*
X118223389Y-50157843D01*
X118203007Y-50177052D01*
X118192740Y-50184737D01*
X118105111Y-50301795D01*
X118054011Y-50438795D01*
X118054011Y-50438797D01*
X118047500Y-50499345D01*
X118047500Y-50538500D01*
X118027815Y-50605539D01*
X117975011Y-50651294D01*
X117923500Y-50662500D01*
X117778004Y-50662500D01*
X117655238Y-50686920D01*
X117655226Y-50686923D01*
X117539584Y-50734823D01*
X117539571Y-50734830D01*
X117435492Y-50804374D01*
X117435488Y-50804377D01*
X91263686Y-76976181D01*
X91202363Y-77009666D01*
X91176005Y-77012500D01*
X85134274Y-77012500D01*
X85067235Y-76992815D01*
X85021480Y-76940011D01*
X85018093Y-76931834D01*
X85006889Y-76901796D01*
X85000055Y-76892667D01*
X84919261Y-76784739D01*
X84802204Y-76697111D01*
X84665203Y-76646011D01*
X84604654Y-76639500D01*
X84604638Y-76639500D01*
X83007362Y-76639500D01*
X83007345Y-76639500D01*
X82946797Y-76646011D01*
X82946795Y-76646011D01*
X82809795Y-76697111D01*
X82692739Y-76784739D01*
X82605111Y-76901795D01*
X82554011Y-77038795D01*
X82554011Y-77038797D01*
X82547500Y-77099345D01*
X80461151Y-77099345D01*
X81374477Y-76186019D01*
X81435800Y-76152534D01*
X81462158Y-76149700D01*
X82197648Y-76149700D01*
X82264687Y-76169385D01*
X82270533Y-76173382D01*
X82347243Y-76229115D01*
X82347245Y-76229116D01*
X82347248Y-76229118D01*
X82521712Y-76306794D01*
X82708513Y-76346500D01*
X82899487Y-76346500D01*
X83086288Y-76306794D01*
X83260752Y-76229118D01*
X83415253Y-76116866D01*
X83543040Y-75974944D01*
X83638527Y-75809556D01*
X83697542Y-75627928D01*
X83717504Y-75438000D01*
X83697542Y-75248072D01*
X83638527Y-75066444D01*
X83543040Y-74901056D01*
X83415253Y-74759134D01*
X83260752Y-74646882D01*
X83086288Y-74569206D01*
X83086286Y-74569205D01*
X82899487Y-74529500D01*
X82708513Y-74529500D01*
X82521714Y-74569205D01*
X82347243Y-74646884D01*
X82270533Y-74702618D01*
X82204727Y-74726098D01*
X82197648Y-74726300D01*
X81192230Y-74726300D01*
X81192210Y-74726299D01*
X81186096Y-74726299D01*
X81045904Y-74726299D01*
X80967205Y-74741953D01*
X80897614Y-74735725D01*
X80842437Y-74692861D01*
X80819193Y-74626971D01*
X80835261Y-74558974D01*
X80874709Y-74516844D01*
X118060391Y-49974294D01*
X118127184Y-49953796D01*
X118168407Y-49965356D01*
X118170944Y-49929889D01*
X118212815Y-49873955D01*
X118218811Y-49869737D01*
X123442197Y-46422302D01*
X123508990Y-46401804D01*
X123576265Y-46420671D01*
X123622659Y-46472914D01*
X123634500Y-46525795D01*
X123634500Y-66231787D01*
X123632447Y-66250717D01*
X123632568Y-66251392D01*
X123632968Y-66255909D01*
X123635066Y-66259928D01*
X123635331Y-66260567D01*
X123642434Y-66269399D01*
X123643002Y-66269795D01*
X123646481Y-66272708D01*
X123650805Y-66274066D01*
X123651443Y-66274330D01*
X123662709Y-66275552D01*
X123663402Y-66275429D01*
X123667907Y-66275030D01*
X123671908Y-66272942D01*
X123672571Y-66272666D01*
X123687399Y-66260738D01*
X173443658Y-34416733D01*
X173510734Y-34397176D01*
X173577736Y-34416987D01*
X173623391Y-34469877D01*
X173634500Y-34521176D01*
X173634500Y-54234912D01*
X173632615Y-54256435D01*
X173632729Y-54256795D01*
X173646598Y-54273325D01*
X173646938Y-54273502D01*
X173668436Y-54275383D01*
X173668793Y-54275271D01*
X173685343Y-54261385D01*
X223439391Y-19433552D01*
X223505600Y-19411235D01*
X223573365Y-19428255D01*
G37*
%TD.AperFunction*%
%TD*%
%TA.AperFunction,Conductor*%
%TO.N,+3.3VA*%
G36*
X64967039Y-99079685D02*
G01*
X65012794Y-99132489D01*
X65024000Y-99184000D01*
X65024000Y-104524000D01*
X65004315Y-104591039D01*
X64951511Y-104636794D01*
X64900000Y-104648000D01*
X57528000Y-104648000D01*
X57460961Y-104628315D01*
X57415206Y-104575511D01*
X57404000Y-104524000D01*
X57404000Y-99184000D01*
X57423685Y-99116961D01*
X57476489Y-99071206D01*
X57528000Y-99060000D01*
X64900000Y-99060000D01*
X64967039Y-99079685D01*
G37*
%TD.AperFunction*%
%TD*%
M02*
