%TF.GenerationSoftware,KiCad,Pcbnew,8.0.5*%
%TF.CreationDate,2024-11-10T11:17:44+01:00*%
%TF.ProjectId,xmasTree,786d6173-5472-4656-952e-6b696361645f,rev?*%
%TF.SameCoordinates,Original*%
%TF.FileFunction,Soldermask,Bot*%
%TF.FilePolarity,Negative*%
%FSLAX46Y46*%
G04 Gerber Fmt 4.6, Leading zero omitted, Abs format (unit mm)*
G04 Created by KiCad (PCBNEW 8.0.5) date 2024-11-10 11:17:44*
%MOMM*%
%LPD*%
G01*
G04 APERTURE LIST*
G04 Aperture macros list*
%AMRoundRect*
0 Rectangle with rounded corners*
0 $1 Rounding radius*
0 $2 $3 $4 $5 $6 $7 $8 $9 X,Y pos of 4 corners*
0 Add a 4 corners polygon primitive as box body*
4,1,4,$2,$3,$4,$5,$6,$7,$8,$9,$2,$3,0*
0 Add four circle primitives for the rounded corners*
1,1,$1+$1,$2,$3*
1,1,$1+$1,$4,$5*
1,1,$1+$1,$6,$7*
1,1,$1+$1,$8,$9*
0 Add four rect primitives between the rounded corners*
20,1,$1+$1,$2,$3,$4,$5,0*
20,1,$1+$1,$4,$5,$6,$7,0*
20,1,$1+$1,$6,$7,$8,$9,0*
20,1,$1+$1,$8,$9,$2,$3,0*%
G04 Aperture macros list end*
%ADD10R,1.700000X1.700000*%
%ADD11O,1.700000X1.700000*%
%ADD12O,1.900000X1.200000*%
%ADD13C,1.450000*%
%ADD14R,2.000000X2.000000*%
%ADD15C,2.000000*%
%ADD16C,2.082800*%
%ADD17R,0.900000X2.000000*%
%ADD18R,2.000000X0.900000*%
%ADD19R,5.000000X5.000000*%
%ADD20RoundRect,0.250000X0.450000X-0.350000X0.450000X0.350000X-0.450000X0.350000X-0.450000X-0.350000X0*%
%ADD21RoundRect,0.250000X-0.337500X-0.475000X0.337500X-0.475000X0.337500X0.475000X-0.337500X0.475000X0*%
%ADD22R,0.800000X0.900000*%
%ADD23RoundRect,0.250000X0.337500X0.475000X-0.337500X0.475000X-0.337500X-0.475000X0.337500X-0.475000X0*%
%ADD24RoundRect,0.250000X0.350000X0.450000X-0.350000X0.450000X-0.350000X-0.450000X0.350000X-0.450000X0*%
%ADD25RoundRect,0.250000X0.475000X-0.337500X0.475000X0.337500X-0.475000X0.337500X-0.475000X-0.337500X0*%
G04 APERTURE END LIST*
D10*
%TO.C,J5*%
X189185000Y-65445000D03*
D11*
X189185000Y-62905000D03*
X189185000Y-60365000D03*
X189185000Y-57825000D03*
%TD*%
D12*
%TO.C,J1*%
X108585500Y-126690000D03*
D13*
X105885500Y-125690000D03*
X105885500Y-120690000D03*
D12*
X108585500Y-119690000D03*
%TD*%
D14*
%TO.C,C10*%
X64230000Y-140297856D03*
X62230000Y-140970000D03*
D15*
X62230000Y-145970000D03*
X60230000Y-146642144D03*
%TD*%
D10*
%TO.C,J4*%
X77688000Y-128270000D03*
D11*
X77688000Y-125730000D03*
X77688000Y-123190000D03*
X77688000Y-120650000D03*
X77688000Y-118110000D03*
%TD*%
D10*
%TO.C,J2*%
X72608000Y-128270000D03*
D11*
X72608000Y-125730000D03*
X72608000Y-123190000D03*
X72608000Y-120650000D03*
X72608000Y-118110000D03*
%TD*%
D10*
%TO.C,J3*%
X221670000Y-74189500D03*
D11*
X221670000Y-76729500D03*
X221670000Y-79269500D03*
X221670000Y-81809500D03*
X221670000Y-84349500D03*
%TD*%
D16*
%TO.C,S3*%
X56108600Y-119938800D03*
X56108600Y-126441200D03*
X51587400Y-119938800D03*
X51587400Y-126441200D03*
%TD*%
D17*
%TO.C,U2*%
X215773000Y-63872000D03*
X214503000Y-63872000D03*
X213233000Y-63872000D03*
X211963000Y-63872000D03*
X210693000Y-63872000D03*
X209423000Y-63872000D03*
X208153000Y-63872000D03*
X206883000Y-63872000D03*
X205613000Y-63872000D03*
X204343000Y-63872000D03*
X203073000Y-63872000D03*
X201803000Y-63872000D03*
X200533000Y-63872000D03*
X199263000Y-63872000D03*
D18*
X198263000Y-61087000D03*
X198263000Y-59817000D03*
X198263000Y-58547000D03*
X198263000Y-57277000D03*
X198263000Y-56007000D03*
X198263000Y-54737000D03*
X198263000Y-53467000D03*
X198263000Y-52197000D03*
X198263000Y-50927000D03*
X198263000Y-49657000D03*
D17*
X199263000Y-46872000D03*
X200533000Y-46872000D03*
X201803000Y-46872000D03*
X203073000Y-46872000D03*
X204343000Y-46872000D03*
X205613000Y-46872000D03*
X206883000Y-46872000D03*
X208153000Y-46872000D03*
X209423000Y-46872000D03*
X210693000Y-46872000D03*
X211963000Y-46872000D03*
X213233000Y-46872000D03*
X214503000Y-46872000D03*
X215773000Y-46872000D03*
D19*
X208273000Y-56372000D03*
%TD*%
D20*
%TO.C,R2*%
X213360000Y-37052000D03*
X213360000Y-35052000D03*
%TD*%
D21*
%TO.C,C1*%
X218447800Y-27178000D03*
X220522800Y-27178000D03*
%TD*%
%TO.C,C2*%
X168028800Y-42164000D03*
X170103800Y-42164000D03*
%TD*%
D22*
%TO.C,Q1*%
X219644000Y-36052000D03*
X217744000Y-36052000D03*
X218694000Y-34052000D03*
%TD*%
D23*
%TO.C,C6*%
X122174000Y-104648000D03*
X120099000Y-104648000D03*
%TD*%
%TO.C,C7*%
X171958000Y-116332000D03*
X169883000Y-116332000D03*
%TD*%
%TO.C,C8*%
X221996000Y-131318000D03*
X219921000Y-131318000D03*
%TD*%
D24*
%TO.C,R3*%
X221964000Y-90424000D03*
X219964000Y-90424000D03*
%TD*%
D25*
%TO.C,C4*%
X81330800Y-79240200D03*
X81330800Y-77165200D03*
%TD*%
D23*
%TO.C,C5*%
X216287500Y-70250000D03*
X214212500Y-70250000D03*
%TD*%
D24*
%TO.C,R1*%
X219710000Y-39116000D03*
X217710000Y-39116000D03*
%TD*%
D21*
%TO.C,C3*%
X118244800Y-53848000D03*
X120319800Y-53848000D03*
%TD*%
D24*
%TO.C,R4*%
X221964000Y-102616000D03*
X219964000Y-102616000D03*
%TD*%
D16*
%TO.C,S1*%
X220167200Y-94259400D03*
X213664800Y-94259400D03*
X220167200Y-98780600D03*
X213664800Y-98780600D03*
%TD*%
%TO.C,S2*%
X220167200Y-106197400D03*
X213664800Y-106197400D03*
X220167200Y-110718600D03*
X213664800Y-110718600D03*
%TD*%
D21*
%TO.C,C11*%
X214587000Y-90424000D03*
X216662000Y-90424000D03*
%TD*%
D23*
%TO.C,C13*%
X216287500Y-72500000D03*
X214212500Y-72500000D03*
%TD*%
%TO.C,C12*%
X216287500Y-68000000D03*
X214212500Y-68000000D03*
%TD*%
M02*
