%TF.GenerationSoftware,KiCad,Pcbnew,8.0.5*%
%TF.CreationDate,2024-11-10T11:17:44+01:00*%
%TF.ProjectId,xmasTree,786d6173-5472-4656-952e-6b696361645f,rev?*%
%TF.SameCoordinates,Original*%
%TF.FileFunction,Legend,Top*%
%TF.FilePolarity,Positive*%
%FSLAX46Y46*%
G04 Gerber Fmt 4.6, Leading zero omitted, Abs format (unit mm)*
G04 Created by KiCad (PCBNEW 8.0.5) date 2024-11-10 11:17:44*
%MOMM*%
%LPD*%
G01*
G04 APERTURE LIST*
%ADD10C,0.150000*%
%ADD11C,0.127000*%
%ADD12C,0.120000*%
%ADD13C,0.203200*%
G04 APERTURE END LIST*
D10*
X193491666Y-66659819D02*
X193491666Y-67374104D01*
X193491666Y-67374104D02*
X193444047Y-67516961D01*
X193444047Y-67516961D02*
X193348809Y-67612200D01*
X193348809Y-67612200D02*
X193205952Y-67659819D01*
X193205952Y-67659819D02*
X193110714Y-67659819D01*
X193967857Y-67659819D02*
X193967857Y-66659819D01*
X193967857Y-66659819D02*
X194348809Y-66659819D01*
X194348809Y-66659819D02*
X194444047Y-66707438D01*
X194444047Y-66707438D02*
X194491666Y-66755057D01*
X194491666Y-66755057D02*
X194539285Y-66850295D01*
X194539285Y-66850295D02*
X194539285Y-66993152D01*
X194539285Y-66993152D02*
X194491666Y-67088390D01*
X194491666Y-67088390D02*
X194444047Y-67136009D01*
X194444047Y-67136009D02*
X194348809Y-67183628D01*
X194348809Y-67183628D02*
X193967857Y-67183628D01*
X195491666Y-67659819D02*
X194920238Y-67659819D01*
X195205952Y-67659819D02*
X195205952Y-66659819D01*
X195205952Y-66659819D02*
X195110714Y-66802676D01*
X195110714Y-66802676D02*
X195015476Y-66897914D01*
X195015476Y-66897914D02*
X194920238Y-66945533D01*
X222196819Y-32488094D02*
X221196819Y-32488094D01*
X221196819Y-32488094D02*
X221196819Y-32249999D01*
X221196819Y-32249999D02*
X221244438Y-32107142D01*
X221244438Y-32107142D02*
X221339676Y-32011904D01*
X221339676Y-32011904D02*
X221434914Y-31964285D01*
X221434914Y-31964285D02*
X221625390Y-31916666D01*
X221625390Y-31916666D02*
X221768247Y-31916666D01*
X221768247Y-31916666D02*
X221958723Y-31964285D01*
X221958723Y-31964285D02*
X222053961Y-32011904D01*
X222053961Y-32011904D02*
X222149200Y-32107142D01*
X222149200Y-32107142D02*
X222196819Y-32249999D01*
X222196819Y-32249999D02*
X222196819Y-32488094D01*
X222196819Y-30964285D02*
X222196819Y-31535713D01*
X222196819Y-31249999D02*
X221196819Y-31249999D01*
X221196819Y-31249999D02*
X221339676Y-31345237D01*
X221339676Y-31345237D02*
X221434914Y-31440475D01*
X221434914Y-31440475D02*
X221482533Y-31535713D01*
X222526819Y-22812285D02*
X222526819Y-23383713D01*
X222526819Y-23097999D02*
X221526819Y-23097999D01*
X221526819Y-23097999D02*
X221669676Y-23193237D01*
X221669676Y-23193237D02*
X221764914Y-23288475D01*
X221764914Y-23288475D02*
X221812533Y-23383713D01*
X122374819Y-59158094D02*
X121374819Y-59158094D01*
X121374819Y-59158094D02*
X121374819Y-58919999D01*
X121374819Y-58919999D02*
X121422438Y-58777142D01*
X121422438Y-58777142D02*
X121517676Y-58681904D01*
X121517676Y-58681904D02*
X121612914Y-58634285D01*
X121612914Y-58634285D02*
X121803390Y-58586666D01*
X121803390Y-58586666D02*
X121946247Y-58586666D01*
X121946247Y-58586666D02*
X122136723Y-58634285D01*
X122136723Y-58634285D02*
X122231961Y-58681904D01*
X122231961Y-58681904D02*
X122327200Y-58777142D01*
X122327200Y-58777142D02*
X122374819Y-58919999D01*
X122374819Y-58919999D02*
X122374819Y-59158094D01*
X121374819Y-58253332D02*
X121374819Y-57634285D01*
X121374819Y-57634285D02*
X121755771Y-57967618D01*
X121755771Y-57967618D02*
X121755771Y-57824761D01*
X121755771Y-57824761D02*
X121803390Y-57729523D01*
X121803390Y-57729523D02*
X121851009Y-57681904D01*
X121851009Y-57681904D02*
X121946247Y-57634285D01*
X121946247Y-57634285D02*
X122184342Y-57634285D01*
X122184342Y-57634285D02*
X122279580Y-57681904D01*
X122279580Y-57681904D02*
X122327200Y-57729523D01*
X122327200Y-57729523D02*
X122374819Y-57824761D01*
X122374819Y-57824761D02*
X122374819Y-58110475D01*
X122374819Y-58110475D02*
X122327200Y-58205713D01*
X122327200Y-58205713D02*
X122279580Y-58253332D01*
X122710819Y-49312285D02*
X122710819Y-49883713D01*
X122710819Y-49597999D02*
X121710819Y-49597999D01*
X121710819Y-49597999D02*
X121853676Y-49693237D01*
X121853676Y-49693237D02*
X121948914Y-49788475D01*
X121948914Y-49788475D02*
X121996533Y-49883713D01*
X86052819Y-78462094D02*
X85052819Y-78462094D01*
X85052819Y-78462094D02*
X85052819Y-78223999D01*
X85052819Y-78223999D02*
X85100438Y-78081142D01*
X85100438Y-78081142D02*
X85195676Y-77985904D01*
X85195676Y-77985904D02*
X85290914Y-77938285D01*
X85290914Y-77938285D02*
X85481390Y-77890666D01*
X85481390Y-77890666D02*
X85624247Y-77890666D01*
X85624247Y-77890666D02*
X85814723Y-77938285D01*
X85814723Y-77938285D02*
X85909961Y-77985904D01*
X85909961Y-77985904D02*
X86005200Y-78081142D01*
X86005200Y-78081142D02*
X86052819Y-78223999D01*
X86052819Y-78223999D02*
X86052819Y-78462094D01*
X85386152Y-77033523D02*
X86052819Y-77033523D01*
X85005200Y-77271618D02*
X85719485Y-77509713D01*
X85719485Y-77509713D02*
X85719485Y-76890666D01*
X77491714Y-78102819D02*
X76920286Y-78102819D01*
X77206000Y-78102819D02*
X77206000Y-77102819D01*
X77206000Y-77102819D02*
X77110762Y-77245676D01*
X77110762Y-77245676D02*
X77015524Y-77340914D01*
X77015524Y-77340914D02*
X76920286Y-77388533D01*
X121612819Y-100814094D02*
X120612819Y-100814094D01*
X120612819Y-100814094D02*
X120612819Y-100575999D01*
X120612819Y-100575999D02*
X120660438Y-100433142D01*
X120660438Y-100433142D02*
X120755676Y-100337904D01*
X120755676Y-100337904D02*
X120850914Y-100290285D01*
X120850914Y-100290285D02*
X121041390Y-100242666D01*
X121041390Y-100242666D02*
X121184247Y-100242666D01*
X121184247Y-100242666D02*
X121374723Y-100290285D01*
X121374723Y-100290285D02*
X121469961Y-100337904D01*
X121469961Y-100337904D02*
X121565200Y-100433142D01*
X121565200Y-100433142D02*
X121612819Y-100575999D01*
X121612819Y-100575999D02*
X121612819Y-100814094D01*
X120612819Y-99337904D02*
X120612819Y-99814094D01*
X120612819Y-99814094D02*
X121089009Y-99861713D01*
X121089009Y-99861713D02*
X121041390Y-99814094D01*
X121041390Y-99814094D02*
X120993771Y-99718856D01*
X120993771Y-99718856D02*
X120993771Y-99480761D01*
X120993771Y-99480761D02*
X121041390Y-99385523D01*
X121041390Y-99385523D02*
X121089009Y-99337904D01*
X121089009Y-99337904D02*
X121184247Y-99290285D01*
X121184247Y-99290285D02*
X121422342Y-99290285D01*
X121422342Y-99290285D02*
X121517580Y-99337904D01*
X121517580Y-99337904D02*
X121565200Y-99385523D01*
X121565200Y-99385523D02*
X121612819Y-99480761D01*
X121612819Y-99480761D02*
X121612819Y-99718856D01*
X121612819Y-99718856D02*
X121565200Y-99814094D01*
X121565200Y-99814094D02*
X121517580Y-99861713D01*
X119510819Y-108612285D02*
X119510819Y-109183713D01*
X119510819Y-108897999D02*
X118510819Y-108897999D01*
X118510819Y-108897999D02*
X118653676Y-108993237D01*
X118653676Y-108993237D02*
X118748914Y-109088475D01*
X118748914Y-109088475D02*
X118796533Y-109183713D01*
X171650819Y-111990094D02*
X170650819Y-111990094D01*
X170650819Y-111990094D02*
X170650819Y-111751999D01*
X170650819Y-111751999D02*
X170698438Y-111609142D01*
X170698438Y-111609142D02*
X170793676Y-111513904D01*
X170793676Y-111513904D02*
X170888914Y-111466285D01*
X170888914Y-111466285D02*
X171079390Y-111418666D01*
X171079390Y-111418666D02*
X171222247Y-111418666D01*
X171222247Y-111418666D02*
X171412723Y-111466285D01*
X171412723Y-111466285D02*
X171507961Y-111513904D01*
X171507961Y-111513904D02*
X171603200Y-111609142D01*
X171603200Y-111609142D02*
X171650819Y-111751999D01*
X171650819Y-111751999D02*
X171650819Y-111990094D01*
X170650819Y-110561523D02*
X170650819Y-110751999D01*
X170650819Y-110751999D02*
X170698438Y-110847237D01*
X170698438Y-110847237D02*
X170746057Y-110894856D01*
X170746057Y-110894856D02*
X170888914Y-110990094D01*
X170888914Y-110990094D02*
X171079390Y-111037713D01*
X171079390Y-111037713D02*
X171460342Y-111037713D01*
X171460342Y-111037713D02*
X171555580Y-110990094D01*
X171555580Y-110990094D02*
X171603200Y-110942475D01*
X171603200Y-110942475D02*
X171650819Y-110847237D01*
X171650819Y-110847237D02*
X171650819Y-110656761D01*
X171650819Y-110656761D02*
X171603200Y-110561523D01*
X171603200Y-110561523D02*
X171555580Y-110513904D01*
X171555580Y-110513904D02*
X171460342Y-110466285D01*
X171460342Y-110466285D02*
X171222247Y-110466285D01*
X171222247Y-110466285D02*
X171127009Y-110513904D01*
X171127009Y-110513904D02*
X171079390Y-110561523D01*
X171079390Y-110561523D02*
X171031771Y-110656761D01*
X171031771Y-110656761D02*
X171031771Y-110847237D01*
X171031771Y-110847237D02*
X171079390Y-110942475D01*
X171079390Y-110942475D02*
X171127009Y-110990094D01*
X171127009Y-110990094D02*
X171222247Y-111037713D01*
X169210819Y-120112285D02*
X169210819Y-120683713D01*
X169210819Y-120397999D02*
X168210819Y-120397999D01*
X168210819Y-120397999D02*
X168353676Y-120493237D01*
X168353676Y-120493237D02*
X168448914Y-120588475D01*
X168448914Y-120588475D02*
X168496533Y-120683713D01*
X221180819Y-127484094D02*
X220180819Y-127484094D01*
X220180819Y-127484094D02*
X220180819Y-127245999D01*
X220180819Y-127245999D02*
X220228438Y-127103142D01*
X220228438Y-127103142D02*
X220323676Y-127007904D01*
X220323676Y-127007904D02*
X220418914Y-126960285D01*
X220418914Y-126960285D02*
X220609390Y-126912666D01*
X220609390Y-126912666D02*
X220752247Y-126912666D01*
X220752247Y-126912666D02*
X220942723Y-126960285D01*
X220942723Y-126960285D02*
X221037961Y-127007904D01*
X221037961Y-127007904D02*
X221133200Y-127103142D01*
X221133200Y-127103142D02*
X221180819Y-127245999D01*
X221180819Y-127245999D02*
X221180819Y-127484094D01*
X220180819Y-126579332D02*
X220180819Y-125912666D01*
X220180819Y-125912666D02*
X221180819Y-126341237D01*
X219326819Y-135112285D02*
X219326819Y-135683713D01*
X219326819Y-135397999D02*
X218326819Y-135397999D01*
X218326819Y-135397999D02*
X218469676Y-135493237D01*
X218469676Y-135493237D02*
X218564914Y-135588475D01*
X218564914Y-135588475D02*
X218612533Y-135683713D01*
X172158819Y-47474094D02*
X171158819Y-47474094D01*
X171158819Y-47474094D02*
X171158819Y-47235999D01*
X171158819Y-47235999D02*
X171206438Y-47093142D01*
X171206438Y-47093142D02*
X171301676Y-46997904D01*
X171301676Y-46997904D02*
X171396914Y-46950285D01*
X171396914Y-46950285D02*
X171587390Y-46902666D01*
X171587390Y-46902666D02*
X171730247Y-46902666D01*
X171730247Y-46902666D02*
X171920723Y-46950285D01*
X171920723Y-46950285D02*
X172015961Y-46997904D01*
X172015961Y-46997904D02*
X172111200Y-47093142D01*
X172111200Y-47093142D02*
X172158819Y-47235999D01*
X172158819Y-47235999D02*
X172158819Y-47474094D01*
X171254057Y-46521713D02*
X171206438Y-46474094D01*
X171206438Y-46474094D02*
X171158819Y-46378856D01*
X171158819Y-46378856D02*
X171158819Y-46140761D01*
X171158819Y-46140761D02*
X171206438Y-46045523D01*
X171206438Y-46045523D02*
X171254057Y-45997904D01*
X171254057Y-45997904D02*
X171349295Y-45950285D01*
X171349295Y-45950285D02*
X171444533Y-45950285D01*
X171444533Y-45950285D02*
X171587390Y-45997904D01*
X171587390Y-45997904D02*
X172158819Y-46569332D01*
X172158819Y-46569332D02*
X172158819Y-45950285D01*
X172410819Y-37812285D02*
X172410819Y-38383713D01*
X172410819Y-38097999D02*
X171410819Y-38097999D01*
X171410819Y-38097999D02*
X171553676Y-38193237D01*
X171553676Y-38193237D02*
X171648914Y-38288475D01*
X171648914Y-38288475D02*
X171696533Y-38383713D01*
X103690319Y-123523333D02*
X104404604Y-123523333D01*
X104404604Y-123523333D02*
X104547461Y-123570952D01*
X104547461Y-123570952D02*
X104642700Y-123666190D01*
X104642700Y-123666190D02*
X104690319Y-123809047D01*
X104690319Y-123809047D02*
X104690319Y-123904285D01*
X104690319Y-122523333D02*
X104690319Y-123094761D01*
X104690319Y-122809047D02*
X103690319Y-122809047D01*
X103690319Y-122809047D02*
X103833176Y-122904285D01*
X103833176Y-122904285D02*
X103928414Y-122999523D01*
X103928414Y-122999523D02*
X103976033Y-123094761D01*
X61870419Y-135678942D02*
X61822800Y-135631323D01*
X61822800Y-135631323D02*
X61775180Y-135488466D01*
X61775180Y-135488466D02*
X61775180Y-135393228D01*
X61775180Y-135393228D02*
X61822800Y-135250371D01*
X61822800Y-135250371D02*
X61918038Y-135155133D01*
X61918038Y-135155133D02*
X62013276Y-135107514D01*
X62013276Y-135107514D02*
X62203752Y-135059895D01*
X62203752Y-135059895D02*
X62346609Y-135059895D01*
X62346609Y-135059895D02*
X62537085Y-135107514D01*
X62537085Y-135107514D02*
X62632323Y-135155133D01*
X62632323Y-135155133D02*
X62727561Y-135250371D01*
X62727561Y-135250371D02*
X62775180Y-135393228D01*
X62775180Y-135393228D02*
X62775180Y-135488466D01*
X62775180Y-135488466D02*
X62727561Y-135631323D01*
X62727561Y-135631323D02*
X62679942Y-135678942D01*
X61775180Y-136631323D02*
X61775180Y-136059895D01*
X61775180Y-136345609D02*
X62775180Y-136345609D01*
X62775180Y-136345609D02*
X62632323Y-136250371D01*
X62632323Y-136250371D02*
X62537085Y-136155133D01*
X62537085Y-136155133D02*
X62489466Y-136059895D01*
X62775180Y-137250371D02*
X62775180Y-137345609D01*
X62775180Y-137345609D02*
X62727561Y-137440847D01*
X62727561Y-137440847D02*
X62679942Y-137488466D01*
X62679942Y-137488466D02*
X62584704Y-137536085D01*
X62584704Y-137536085D02*
X62394228Y-137583704D01*
X62394228Y-137583704D02*
X62156133Y-137583704D01*
X62156133Y-137583704D02*
X61965657Y-137536085D01*
X61965657Y-137536085D02*
X61870419Y-137488466D01*
X61870419Y-137488466D02*
X61822800Y-137440847D01*
X61822800Y-137440847D02*
X61775180Y-137345609D01*
X61775180Y-137345609D02*
X61775180Y-137250371D01*
X61775180Y-137250371D02*
X61822800Y-137155133D01*
X61822800Y-137155133D02*
X61870419Y-137107514D01*
X61870419Y-137107514D02*
X61965657Y-137059895D01*
X61965657Y-137059895D02*
X62156133Y-137012276D01*
X62156133Y-137012276D02*
X62394228Y-137012276D01*
X62394228Y-137012276D02*
X62584704Y-137059895D01*
X62584704Y-137059895D02*
X62679942Y-137107514D01*
X62679942Y-137107514D02*
X62727561Y-137155133D01*
X62727561Y-137155133D02*
X62775180Y-137250371D01*
X67483819Y-109764533D02*
X67436200Y-109716914D01*
X67436200Y-109716914D02*
X67388580Y-109574057D01*
X67388580Y-109574057D02*
X67388580Y-109478819D01*
X67388580Y-109478819D02*
X67436200Y-109335962D01*
X67436200Y-109335962D02*
X67531438Y-109240724D01*
X67531438Y-109240724D02*
X67626676Y-109193105D01*
X67626676Y-109193105D02*
X67817152Y-109145486D01*
X67817152Y-109145486D02*
X67960009Y-109145486D01*
X67960009Y-109145486D02*
X68150485Y-109193105D01*
X68150485Y-109193105D02*
X68245723Y-109240724D01*
X68245723Y-109240724D02*
X68340961Y-109335962D01*
X68340961Y-109335962D02*
X68388580Y-109478819D01*
X68388580Y-109478819D02*
X68388580Y-109574057D01*
X68388580Y-109574057D02*
X68340961Y-109716914D01*
X68340961Y-109716914D02*
X68293342Y-109764533D01*
X67388580Y-110240724D02*
X67388580Y-110431200D01*
X67388580Y-110431200D02*
X67436200Y-110526438D01*
X67436200Y-110526438D02*
X67483819Y-110574057D01*
X67483819Y-110574057D02*
X67626676Y-110669295D01*
X67626676Y-110669295D02*
X67817152Y-110716914D01*
X67817152Y-110716914D02*
X68198104Y-110716914D01*
X68198104Y-110716914D02*
X68293342Y-110669295D01*
X68293342Y-110669295D02*
X68340961Y-110621676D01*
X68340961Y-110621676D02*
X68388580Y-110526438D01*
X68388580Y-110526438D02*
X68388580Y-110335962D01*
X68388580Y-110335962D02*
X68340961Y-110240724D01*
X68340961Y-110240724D02*
X68293342Y-110193105D01*
X68293342Y-110193105D02*
X68198104Y-110145486D01*
X68198104Y-110145486D02*
X67960009Y-110145486D01*
X67960009Y-110145486D02*
X67864771Y-110193105D01*
X67864771Y-110193105D02*
X67817152Y-110240724D01*
X67817152Y-110240724D02*
X67769533Y-110335962D01*
X67769533Y-110335962D02*
X67769533Y-110526438D01*
X67769533Y-110526438D02*
X67817152Y-110621676D01*
X67817152Y-110621676D02*
X67864771Y-110669295D01*
X67864771Y-110669295D02*
X67960009Y-110716914D01*
X67337780Y-136358333D02*
X67813971Y-136025000D01*
X67337780Y-135786905D02*
X68337780Y-135786905D01*
X68337780Y-135786905D02*
X68337780Y-136167857D01*
X68337780Y-136167857D02*
X68290161Y-136263095D01*
X68290161Y-136263095D02*
X68242542Y-136310714D01*
X68242542Y-136310714D02*
X68147304Y-136358333D01*
X68147304Y-136358333D02*
X68004447Y-136358333D01*
X68004447Y-136358333D02*
X67909209Y-136310714D01*
X67909209Y-136310714D02*
X67861590Y-136263095D01*
X67861590Y-136263095D02*
X67813971Y-136167857D01*
X67813971Y-136167857D02*
X67813971Y-135786905D01*
X68337780Y-137263095D02*
X68337780Y-136786905D01*
X68337780Y-136786905D02*
X67861590Y-136739286D01*
X67861590Y-136739286D02*
X67909209Y-136786905D01*
X67909209Y-136786905D02*
X67956828Y-136882143D01*
X67956828Y-136882143D02*
X67956828Y-137120238D01*
X67956828Y-137120238D02*
X67909209Y-137215476D01*
X67909209Y-137215476D02*
X67861590Y-137263095D01*
X67861590Y-137263095D02*
X67766352Y-137310714D01*
X67766352Y-137310714D02*
X67528257Y-137310714D01*
X67528257Y-137310714D02*
X67433019Y-137263095D01*
X67433019Y-137263095D02*
X67385400Y-137215476D01*
X67385400Y-137215476D02*
X67337780Y-137120238D01*
X67337780Y-137120238D02*
X67337780Y-136882143D01*
X67337780Y-136882143D02*
X67385400Y-136786905D01*
X67385400Y-136786905D02*
X67433019Y-136739286D01*
D11*
X49633334Y-121158000D02*
X50522334Y-121158000D01*
X50522334Y-121158000D02*
X49887334Y-121454334D01*
X49887334Y-121454334D02*
X50522334Y-121750667D01*
X50522334Y-121750667D02*
X49633334Y-121750667D01*
X50522334Y-122343334D02*
X50522334Y-122512667D01*
X50522334Y-122512667D02*
X50480001Y-122597334D01*
X50480001Y-122597334D02*
X50395334Y-122682000D01*
X50395334Y-122682000D02*
X50226001Y-122724334D01*
X50226001Y-122724334D02*
X49929668Y-122724334D01*
X49929668Y-122724334D02*
X49760334Y-122682000D01*
X49760334Y-122682000D02*
X49675668Y-122597334D01*
X49675668Y-122597334D02*
X49633334Y-122512667D01*
X49633334Y-122512667D02*
X49633334Y-122343334D01*
X49633334Y-122343334D02*
X49675668Y-122258667D01*
X49675668Y-122258667D02*
X49760334Y-122174000D01*
X49760334Y-122174000D02*
X49929668Y-122131667D01*
X49929668Y-122131667D02*
X50226001Y-122131667D01*
X50226001Y-122131667D02*
X50395334Y-122174000D01*
X50395334Y-122174000D02*
X50480001Y-122258667D01*
X50480001Y-122258667D02*
X50522334Y-122343334D01*
X49633334Y-123105333D02*
X50522334Y-123105333D01*
X50522334Y-123105333D02*
X50522334Y-123317000D01*
X50522334Y-123317000D02*
X50480001Y-123444000D01*
X50480001Y-123444000D02*
X50395334Y-123528667D01*
X50395334Y-123528667D02*
X50310668Y-123571000D01*
X50310668Y-123571000D02*
X50141334Y-123613333D01*
X50141334Y-123613333D02*
X50014334Y-123613333D01*
X50014334Y-123613333D02*
X49845001Y-123571000D01*
X49845001Y-123571000D02*
X49760334Y-123528667D01*
X49760334Y-123528667D02*
X49675668Y-123444000D01*
X49675668Y-123444000D02*
X49633334Y-123317000D01*
X49633334Y-123317000D02*
X49633334Y-123105333D01*
X50099001Y-123994333D02*
X50099001Y-124290667D01*
X49633334Y-124417667D02*
X49633334Y-123994333D01*
X49633334Y-123994333D02*
X50522334Y-123994333D01*
X50522334Y-123994333D02*
X50522334Y-124417667D01*
X49675668Y-124756333D02*
X49633334Y-124883333D01*
X49633334Y-124883333D02*
X49633334Y-125095000D01*
X49633334Y-125095000D02*
X49675668Y-125179666D01*
X49675668Y-125179666D02*
X49718001Y-125222000D01*
X49718001Y-125222000D02*
X49802668Y-125264333D01*
X49802668Y-125264333D02*
X49887334Y-125264333D01*
X49887334Y-125264333D02*
X49972001Y-125222000D01*
X49972001Y-125222000D02*
X50014334Y-125179666D01*
X50014334Y-125179666D02*
X50056668Y-125095000D01*
X50056668Y-125095000D02*
X50099001Y-124925666D01*
X50099001Y-124925666D02*
X50141334Y-124841000D01*
X50141334Y-124841000D02*
X50183668Y-124798666D01*
X50183668Y-124798666D02*
X50268334Y-124756333D01*
X50268334Y-124756333D02*
X50353001Y-124756333D01*
X50353001Y-124756333D02*
X50437668Y-124798666D01*
X50437668Y-124798666D02*
X50480001Y-124841000D01*
X50480001Y-124841000D02*
X50522334Y-124925666D01*
X50522334Y-124925666D02*
X50522334Y-125137333D01*
X50522334Y-125137333D02*
X50480001Y-125264333D01*
D10*
X66077180Y-103632095D02*
X65267657Y-103632095D01*
X65267657Y-103632095D02*
X65172419Y-103679714D01*
X65172419Y-103679714D02*
X65124800Y-103727333D01*
X65124800Y-103727333D02*
X65077180Y-103822571D01*
X65077180Y-103822571D02*
X65077180Y-104013047D01*
X65077180Y-104013047D02*
X65124800Y-104108285D01*
X65124800Y-104108285D02*
X65172419Y-104155904D01*
X65172419Y-104155904D02*
X65267657Y-104203523D01*
X65267657Y-104203523D02*
X66077180Y-104203523D01*
X65077180Y-105203523D02*
X65077180Y-104632095D01*
X65077180Y-104917809D02*
X66077180Y-104917809D01*
X66077180Y-104917809D02*
X65934323Y-104822571D01*
X65934323Y-104822571D02*
X65839085Y-104727333D01*
X65839085Y-104727333D02*
X65791466Y-104632095D01*
D12*
%TO.C,JP1*%
X195725000Y-66405000D02*
X192925000Y-66405000D01*
X195725000Y-64405000D02*
X195725000Y-66405000D01*
X192925000Y-66405000D02*
X192925000Y-64405000D01*
X192925000Y-64405000D02*
X195725000Y-64405000D01*
%TO.C,D1*%
X217722000Y-23598000D02*
X217722000Y-30898000D01*
X217722000Y-30898000D02*
X218872000Y-30898000D01*
X223222000Y-23598000D02*
X223222000Y-30898000D01*
%TO.C,D3*%
X117906000Y-50098000D02*
X117906000Y-57398000D01*
X117906000Y-57398000D02*
X119056000Y-57398000D01*
X123406000Y-50098000D02*
X123406000Y-57398000D01*
%TO.C,D4*%
X77706000Y-76498000D02*
X85006000Y-76498000D01*
X77706000Y-81998000D02*
X85006000Y-81998000D01*
X85006000Y-81998000D02*
X85006000Y-80848000D01*
%TO.C,D5*%
X117906000Y-108398000D02*
X117906000Y-101098000D01*
X123406000Y-101098000D02*
X122256000Y-101098000D01*
X123406000Y-108398000D02*
X123406000Y-101098000D01*
%TO.C,D6*%
X167606000Y-119898000D02*
X167606000Y-112598000D01*
X173106000Y-112598000D02*
X171956000Y-112598000D01*
X173106000Y-119898000D02*
X173106000Y-112598000D01*
%TO.C,D7*%
X217722000Y-134898000D02*
X217722000Y-127598000D01*
X223222000Y-127598000D02*
X222072000Y-127598000D01*
X223222000Y-134898000D02*
X223222000Y-127598000D01*
%TO.C,D2*%
X167606000Y-38598000D02*
X167606000Y-45898000D01*
X167606000Y-45898000D02*
X168756000Y-45898000D01*
X173106000Y-38598000D02*
X173106000Y-45898000D01*
%TO.C,J1*%
X105035500Y-124890000D02*
X105035500Y-124440000D01*
X105035500Y-124890000D02*
X105485500Y-124890000D01*
X105585500Y-119290000D02*
X105585500Y-119740000D01*
X105585500Y-127090000D02*
X105585500Y-126640000D01*
X107435500Y-119290000D02*
X105585500Y-119290000D01*
X107435500Y-127090000D02*
X105585500Y-127090000D01*
X109985500Y-119290000D02*
X109735500Y-119290000D01*
X109985500Y-127090000D02*
X109735500Y-127090000D01*
%TO.C,C10*%
X58990000Y-145431000D02*
X57540000Y-145431000D01*
X58990000Y-145471000D02*
X57556000Y-145471000D01*
X58990000Y-145511000D02*
X57573000Y-145511000D01*
X58990000Y-145551000D02*
X57591000Y-145551000D01*
X58990000Y-145591000D02*
X57609000Y-145591000D01*
X58990000Y-145631000D02*
X57627000Y-145631000D01*
X58990000Y-145671000D02*
X57646000Y-145671000D01*
X58990000Y-145711000D02*
X57666000Y-145711000D01*
X58990000Y-145751000D02*
X57685000Y-145751000D01*
X58990000Y-145791000D02*
X57705000Y-145791000D01*
X58990000Y-145831000D02*
X57726000Y-145831000D01*
X58990000Y-145871000D02*
X57747000Y-145871000D01*
X58990000Y-145911000D02*
X57768000Y-145911000D01*
X58990000Y-145951000D02*
X57790000Y-145951000D01*
X58990000Y-145991000D02*
X57813000Y-145991000D01*
X58990000Y-146031000D02*
X57835000Y-146031000D01*
X58990000Y-146071000D02*
X57859000Y-146071000D01*
X58990000Y-146111000D02*
X57883000Y-146111000D01*
X58990000Y-146151000D02*
X57907000Y-146151000D01*
X58990000Y-146191000D02*
X57932000Y-146191000D01*
X58990000Y-146231000D02*
X57957000Y-146231000D01*
X58990000Y-146271000D02*
X57983000Y-146271000D01*
X58990000Y-146311000D02*
X58009000Y-146311000D01*
X58990000Y-146351000D02*
X58036000Y-146351000D01*
X58990000Y-146391000D02*
X58064000Y-146391000D01*
X58990000Y-146431000D02*
X58092000Y-146431000D01*
X58990000Y-146471000D02*
X58120000Y-146471000D01*
X58990000Y-146511000D02*
X58150000Y-146511000D01*
X58990000Y-146551000D02*
X58180000Y-146551000D01*
X58990000Y-146591000D02*
X58210000Y-146591000D01*
X58990000Y-146631000D02*
X58241000Y-146631000D01*
X58990000Y-146671000D02*
X58273000Y-146671000D01*
X58990000Y-146711000D02*
X58305000Y-146711000D01*
X58990000Y-146751000D02*
X58338000Y-146751000D01*
X58990000Y-146791000D02*
X58372000Y-146791000D01*
X58990000Y-146831000D02*
X58406000Y-146831000D01*
X58990000Y-146871000D02*
X58441000Y-146871000D01*
X58990000Y-146911000D02*
X58477000Y-146911000D01*
X58990000Y-146951000D02*
X58514000Y-146951000D01*
X58990000Y-146991000D02*
X58551000Y-146991000D01*
X58990000Y-147031000D02*
X58590000Y-147031000D01*
X58990000Y-147071000D02*
X58629000Y-147071000D01*
X58990000Y-147111000D02*
X58669000Y-147111000D01*
X58990000Y-147151000D02*
X58710000Y-147151000D01*
X58990000Y-147191000D02*
X58752000Y-147191000D01*
X58990000Y-147231000D02*
X58794000Y-147231000D01*
X58990000Y-147271000D02*
X58838000Y-147271000D01*
X58990000Y-147311000D02*
X58883000Y-147311000D01*
X58990000Y-147351000D02*
X58929000Y-147351000D01*
X58990000Y-147391000D02*
X58976000Y-147391000D01*
X60989000Y-144751000D02*
X57312000Y-144751000D01*
X60989000Y-144791000D02*
X57323000Y-144791000D01*
X60989000Y-144831000D02*
X57333000Y-144831000D01*
X60989000Y-144871000D02*
X57345000Y-144871000D01*
X60989000Y-144911000D02*
X57356000Y-144911000D01*
X60989000Y-144951000D02*
X57368000Y-144951000D01*
X60989000Y-144991000D02*
X57380000Y-144991000D01*
X60989000Y-145031000D02*
X57393000Y-145031000D01*
X60989000Y-145071000D02*
X57406000Y-145071000D01*
X60989000Y-145111000D02*
X57419000Y-145111000D01*
X60989000Y-145151000D02*
X57433000Y-145151000D01*
X60989000Y-145191000D02*
X57447000Y-145191000D01*
X60989000Y-145231000D02*
X57462000Y-145231000D01*
X60989000Y-145271000D02*
X57476000Y-145271000D01*
X60989000Y-145311000D02*
X57492000Y-145311000D01*
X60989000Y-145351000D02*
X57507000Y-145351000D01*
X60989000Y-145391000D02*
X57523000Y-145391000D01*
X62829000Y-148551000D02*
X61631000Y-148551000D01*
X63092000Y-148511000D02*
X61368000Y-148511000D01*
X63292000Y-148471000D02*
X61168000Y-148471000D01*
X63460000Y-148431000D02*
X61000000Y-148431000D01*
X63608000Y-148391000D02*
X60852000Y-148391000D01*
X63740000Y-148351000D02*
X60720000Y-148351000D01*
X63860000Y-148311000D02*
X60600000Y-148311000D01*
X63972000Y-148271000D02*
X60488000Y-148271000D01*
X64076000Y-148231000D02*
X60384000Y-148231000D01*
X64174000Y-148191000D02*
X60286000Y-148191000D01*
X64267000Y-148151000D02*
X60193000Y-148151000D01*
X64355000Y-148111000D02*
X60105000Y-148111000D01*
X64439000Y-148071000D02*
X60021000Y-148071000D01*
X64519000Y-148031000D02*
X59941000Y-148031000D01*
X64595000Y-147991000D02*
X59865000Y-147991000D01*
X64669000Y-147951000D02*
X59791000Y-147951000D01*
X64740000Y-147911000D02*
X59720000Y-147911000D01*
X64809000Y-147871000D02*
X61470000Y-147871000D01*
X64875000Y-147831000D02*
X61470000Y-147831000D01*
X64939000Y-147791000D02*
X61470000Y-147791000D01*
X65000000Y-147751000D02*
X61470000Y-147751000D01*
X65060000Y-147711000D02*
X61470000Y-147711000D01*
X65105000Y-137990354D02*
X65105000Y-138990354D01*
X65119000Y-147671000D02*
X61470000Y-147671000D01*
X65175000Y-147631000D02*
X61470000Y-147631000D01*
X65230000Y-147591000D02*
X61470000Y-147591000D01*
X65284000Y-147551000D02*
X61470000Y-147551000D01*
X65336000Y-147511000D02*
X61470000Y-147511000D01*
X65386000Y-147471000D02*
X61470000Y-147471000D01*
X65436000Y-147431000D02*
X61470000Y-147431000D01*
X65484000Y-147391000D02*
X61470000Y-147391000D01*
X65531000Y-147351000D02*
X61470000Y-147351000D01*
X65577000Y-147311000D02*
X61470000Y-147311000D01*
X65605000Y-138490354D02*
X64605000Y-138490354D01*
X65622000Y-147271000D02*
X61470000Y-147271000D01*
X65666000Y-147231000D02*
X61470000Y-147231000D01*
X65708000Y-147191000D02*
X63471000Y-147191000D01*
X65750000Y-147151000D02*
X63471000Y-147151000D01*
X65791000Y-147111000D02*
X63471000Y-147111000D01*
X65831000Y-147071000D02*
X63471000Y-147071000D01*
X65870000Y-147031000D02*
X63471000Y-147031000D01*
X65909000Y-146991000D02*
X63471000Y-146991000D01*
X65946000Y-146951000D02*
X63471000Y-146951000D01*
X65983000Y-146911000D02*
X63471000Y-146911000D01*
X66019000Y-146871000D02*
X63471000Y-146871000D01*
X66054000Y-146831000D02*
X63471000Y-146831000D01*
X66088000Y-146791000D02*
X63471000Y-146791000D01*
X66122000Y-146751000D02*
X63471000Y-146751000D01*
X66155000Y-146711000D02*
X63471000Y-146711000D01*
X66187000Y-146671000D02*
X63471000Y-146671000D01*
X66219000Y-146631000D02*
X63471000Y-146631000D01*
X66250000Y-146591000D02*
X63471000Y-146591000D01*
X66280000Y-146551000D02*
X63471000Y-146551000D01*
X66310000Y-146511000D02*
X63471000Y-146511000D01*
X66340000Y-146471000D02*
X63471000Y-146471000D01*
X66368000Y-146431000D02*
X63471000Y-146431000D01*
X66396000Y-146391000D02*
X63471000Y-146391000D01*
X66424000Y-146351000D02*
X63471000Y-146351000D01*
X66451000Y-146311000D02*
X63471000Y-146311000D01*
X66477000Y-146271000D02*
X63471000Y-146271000D01*
X66503000Y-146231000D02*
X63471000Y-146231000D01*
X66528000Y-146191000D02*
X63471000Y-146191000D01*
X66553000Y-146151000D02*
X63471000Y-146151000D01*
X66577000Y-146111000D02*
X63471000Y-146111000D01*
X66601000Y-146071000D02*
X63471000Y-146071000D01*
X66625000Y-146031000D02*
X63471000Y-146031000D01*
X66647000Y-145991000D02*
X63471000Y-145991000D01*
X66670000Y-145951000D02*
X63471000Y-145951000D01*
X66692000Y-145911000D02*
X63471000Y-145911000D01*
X66713000Y-145871000D02*
X63471000Y-145871000D01*
X66734000Y-145831000D02*
X63471000Y-145831000D01*
X66755000Y-145791000D02*
X63471000Y-145791000D01*
X66775000Y-145751000D02*
X63471000Y-145751000D01*
X66794000Y-145711000D02*
X63471000Y-145711000D01*
X66814000Y-145671000D02*
X63471000Y-145671000D01*
X66833000Y-145631000D02*
X63471000Y-145631000D01*
X66851000Y-145591000D02*
X63471000Y-145591000D01*
X66869000Y-145551000D02*
X63471000Y-145551000D01*
X66887000Y-145511000D02*
X63471000Y-145511000D01*
X66904000Y-145471000D02*
X63471000Y-145471000D01*
X66920000Y-145431000D02*
X63471000Y-145431000D01*
X66937000Y-145391000D02*
X63471000Y-145391000D01*
X66953000Y-145351000D02*
X63471000Y-145351000D01*
X66968000Y-145311000D02*
X63471000Y-145311000D01*
X66984000Y-145271000D02*
X63471000Y-145271000D01*
X66998000Y-145231000D02*
X63471000Y-145231000D01*
X67013000Y-145191000D02*
X63471000Y-145191000D01*
X67027000Y-145151000D02*
X63471000Y-145151000D01*
X67041000Y-145111000D02*
X63471000Y-145111000D01*
X67054000Y-145071000D02*
X63471000Y-145071000D01*
X67067000Y-145031000D02*
X63471000Y-145031000D01*
X67080000Y-144991000D02*
X63471000Y-144991000D01*
X67092000Y-144951000D02*
X63471000Y-144951000D01*
X67104000Y-144911000D02*
X63471000Y-144911000D01*
X67115000Y-144871000D02*
X63471000Y-144871000D01*
X67127000Y-144831000D02*
X63471000Y-144831000D01*
X67137000Y-144791000D02*
X63471000Y-144791000D01*
X67148000Y-144751000D02*
X63471000Y-144751000D01*
X67158000Y-144711000D02*
X57302000Y-144711000D01*
X67168000Y-144671000D02*
X57292000Y-144671000D01*
X67177000Y-144631000D02*
X57283000Y-144631000D01*
X67186000Y-144591000D02*
X57274000Y-144591000D01*
X67195000Y-144551000D02*
X57265000Y-144551000D01*
X67204000Y-144511000D02*
X57256000Y-144511000D01*
X67212000Y-144471000D02*
X57248000Y-144471000D01*
X67220000Y-144431000D02*
X57240000Y-144431000D01*
X67227000Y-144391000D02*
X57233000Y-144391000D01*
X67234000Y-144351000D02*
X57226000Y-144351000D01*
X67241000Y-144311000D02*
X57219000Y-144311000D01*
X67248000Y-144271000D02*
X57212000Y-144271000D01*
X67254000Y-144231000D02*
X57206000Y-144231000D01*
X67260000Y-144191000D02*
X57200000Y-144191000D01*
X67265000Y-144150000D02*
X57195000Y-144150000D01*
X67270000Y-144110000D02*
X57190000Y-144110000D01*
X67275000Y-144070000D02*
X57185000Y-144070000D01*
X67280000Y-144030000D02*
X57180000Y-144030000D01*
X67284000Y-143990000D02*
X57176000Y-143990000D01*
X67288000Y-143950000D02*
X57172000Y-143950000D01*
X67292000Y-143910000D02*
X57168000Y-143910000D01*
X67295000Y-143870000D02*
X57165000Y-143870000D01*
X67298000Y-143830000D02*
X57162000Y-143830000D01*
X67300000Y-143790000D02*
X57160000Y-143790000D01*
X67303000Y-143750000D02*
X57157000Y-143750000D01*
X67305000Y-143710000D02*
X57155000Y-143710000D01*
X67307000Y-143670000D02*
X57153000Y-143670000D01*
X67308000Y-143630000D02*
X57152000Y-143630000D01*
X67309000Y-143590000D02*
X57151000Y-143590000D01*
X67310000Y-143470000D02*
X57150000Y-143470000D01*
X67310000Y-143510000D02*
X57150000Y-143510000D01*
X67310000Y-143550000D02*
X57150000Y-143550000D01*
X65490000Y-139521988D02*
G75*
G02*
X63943098Y-138645097I-3260000J-3948012D01*
G01*
%TO.C,C9*%
X67083000Y-113312752D02*
X67083000Y-112790248D01*
X68553000Y-113312752D02*
X68553000Y-112790248D01*
%TO.C,J4*%
X76358000Y-127000000D02*
X76358000Y-116780000D01*
X79018000Y-116780000D02*
X76358000Y-116780000D01*
X79018000Y-127000000D02*
X76358000Y-127000000D01*
X79018000Y-127000000D02*
X79018000Y-116780000D01*
X79018000Y-128270000D02*
X79018000Y-129600000D01*
X79018000Y-129600000D02*
X77688000Y-129600000D01*
%TO.C,J2*%
X71278000Y-127000000D02*
X71278000Y-116780000D01*
X73938000Y-116780000D02*
X71278000Y-116780000D01*
X73938000Y-127000000D02*
X71278000Y-127000000D01*
X73938000Y-127000000D02*
X73938000Y-116780000D01*
X73938000Y-128270000D02*
X73938000Y-129600000D01*
X73938000Y-129600000D02*
X72608000Y-129600000D01*
%TO.C,J3*%
X220340000Y-72859500D02*
X221670000Y-72859500D01*
X220340000Y-74189500D02*
X220340000Y-72859500D01*
X220340000Y-75459500D02*
X220340000Y-85679500D01*
X220340000Y-75459500D02*
X223000000Y-75459500D01*
X220340000Y-85679500D02*
X223000000Y-85679500D01*
X223000000Y-75459500D02*
X223000000Y-85679500D01*
%TO.C,R5*%
X67083000Y-133577064D02*
X67083000Y-133122936D01*
X68553000Y-133577064D02*
X68553000Y-133122936D01*
D13*
%TO.C,S3*%
X50800000Y-121031000D02*
X50800000Y-125349000D01*
X54843680Y-126238000D02*
X52832000Y-126238000D01*
X54874160Y-120142000D02*
X52832000Y-120142000D01*
X56896000Y-125349000D02*
X56896000Y-121031000D01*
X55626000Y-123190000D02*
G75*
G02*
X52070000Y-123190000I-1778000J0D01*
G01*
X52070000Y-123190000D02*
G75*
G02*
X55626000Y-123190000I1778000J0D01*
G01*
D12*
%TO.C,U1*%
X57804000Y-102484000D02*
X59064000Y-102484000D01*
X57804000Y-108494000D02*
X57804000Y-102484000D01*
X64624000Y-102484000D02*
X63364000Y-102484000D01*
X64624000Y-106244000D02*
X64624000Y-102484000D01*
%TD*%
G36*
X74877875Y-106432393D02*
G01*
X74894025Y-106447288D01*
X78181200Y-110058200D01*
X84125021Y-109786905D01*
X84193983Y-109803780D01*
X84242874Y-109855260D01*
X84256171Y-109925000D01*
X84251434Y-109949040D01*
X82905600Y-114427000D01*
X88649138Y-115961911D01*
X88709785Y-115998822D01*
X88740849Y-116062662D01*
X88732467Y-116133162D01*
X88729305Y-116139988D01*
X85928200Y-121742200D01*
X85928200Y-121742201D01*
X89172829Y-124077349D01*
X89216435Y-124133376D01*
X89222829Y-124204084D01*
X89197208Y-124258836D01*
X86385400Y-127736599D01*
X88104660Y-131420728D01*
X88115342Y-131490917D01*
X88086381Y-131555738D01*
X88032416Y-131592829D01*
X85140800Y-132613400D01*
X82745355Y-136490563D01*
X82692533Y-136538002D01*
X82622450Y-136549352D01*
X82568580Y-136529380D01*
X78689200Y-133959600D01*
X75228385Y-136424496D01*
X75161295Y-136447723D01*
X75092299Y-136430991D01*
X75086721Y-136427575D01*
X72339200Y-134645400D01*
X68958676Y-135764134D01*
X68887721Y-135766547D01*
X68826725Y-135730215D01*
X68795054Y-135666674D01*
X68793654Y-135656427D01*
X68376799Y-131267199D01*
X63943163Y-130957322D01*
X63876603Y-130932619D01*
X63833964Y-130875853D01*
X63828784Y-130805045D01*
X63862708Y-130742678D01*
X63866406Y-130739117D01*
X67360799Y-127508000D01*
X63917253Y-125640724D01*
X63866904Y-125590668D01*
X63851610Y-125521339D01*
X63876227Y-125454746D01*
X63896589Y-125433217D01*
X67589399Y-122351800D01*
X67589400Y-122351800D01*
X64039401Y-119993239D01*
X63993730Y-119938882D01*
X63984697Y-119868462D01*
X64015170Y-119804338D01*
X64039669Y-119783164D01*
X68148199Y-117068600D01*
X68148199Y-117068599D01*
X66618408Y-113490862D01*
X66610018Y-113420363D01*
X66641074Y-113356519D01*
X66673879Y-113330736D01*
X70713599Y-111124999D01*
X70082467Y-108988860D01*
X70082347Y-108917863D01*
X70120630Y-108858073D01*
X70144595Y-108841671D01*
X74742143Y-106420622D01*
X74811737Y-106406580D01*
X74877875Y-106432393D01*
G37*
G36*
X53589889Y-105230155D02*
G01*
X53633819Y-105277122D01*
X54044370Y-106039574D01*
X54059055Y-106109036D01*
X54033855Y-106175410D01*
X53997112Y-106208034D01*
X50546000Y-108229399D01*
X50546000Y-108229400D01*
X53749216Y-110014398D01*
X53798984Y-110065029D01*
X53813479Y-110134531D01*
X53789783Y-110198572D01*
X52945788Y-111359065D01*
X52889545Y-111402392D01*
X52818806Y-111408433D01*
X52756030Y-111375272D01*
X52753142Y-111372370D01*
X50190399Y-108712000D01*
X47170109Y-111336186D01*
X47105568Y-111365765D01*
X47035280Y-111355756D01*
X47009742Y-111340241D01*
X46292428Y-110778022D01*
X46251152Y-110720257D01*
X46247659Y-110649346D01*
X46283057Y-110587804D01*
X46302840Y-110572342D01*
X49326799Y-108661200D01*
X46653334Y-106473819D01*
X46613278Y-106415201D01*
X46611271Y-106344233D01*
X46647951Y-106283446D01*
X46654410Y-106277911D01*
X46973648Y-106022520D01*
X47039337Y-105995584D01*
X47109160Y-106008438D01*
X47115297Y-106011753D01*
X49860199Y-107594399D01*
X49860200Y-107594399D01*
X53453655Y-105231579D01*
X53521563Y-105210866D01*
X53589889Y-105230155D01*
G37*
G36*
X85170415Y-82186461D02*
G01*
X93531403Y-87116061D01*
X93579925Y-87167889D01*
X93592724Y-87237722D01*
X93565736Y-87303390D01*
X93507530Y-87344042D01*
X93467409Y-87350600D01*
X91541600Y-87350600D01*
X101851236Y-90530207D01*
X101910436Y-90569397D01*
X101939051Y-90634372D01*
X101927996Y-90704502D01*
X101880780Y-90757523D01*
X101829594Y-90775655D01*
X99542599Y-91058999D01*
X108286986Y-94100525D01*
X108344754Y-94141796D01*
X108371040Y-94207748D01*
X108357496Y-94277441D01*
X108308424Y-94328748D01*
X108239403Y-94345380D01*
X108228647Y-94344387D01*
X105917999Y-94030799D01*
X115520426Y-98795732D01*
X115572556Y-98843929D01*
X115590354Y-98912659D01*
X115568167Y-98980100D01*
X115513042Y-99024840D01*
X115464419Y-99034600D01*
X113614201Y-99034600D01*
X117588343Y-101259120D01*
X117638015Y-101309847D01*
X117652800Y-101369068D01*
X117652800Y-107746799D01*
X118440199Y-108330999D01*
X118440200Y-108331000D01*
X123295112Y-108331000D01*
X123363233Y-108351002D01*
X123409726Y-108404658D01*
X123421086Y-108454464D01*
X123489972Y-111875813D01*
X123471346Y-111944322D01*
X123418637Y-111991886D01*
X123348581Y-112003402D01*
X123294609Y-111983521D01*
X78455385Y-82400172D01*
X78409540Y-82345962D01*
X78400281Y-82275572D01*
X78430547Y-82211350D01*
X78490730Y-82173686D01*
X78524774Y-82169000D01*
X85106421Y-82169000D01*
X85170415Y-82186461D01*
G37*
G36*
X203143117Y-44735774D02*
G01*
X203199230Y-44779270D01*
X203221393Y-44832359D01*
X204469998Y-52323990D01*
X205990342Y-60685882D01*
X205991108Y-60726241D01*
X204216452Y-73148835D01*
X204215386Y-73155146D01*
X202186813Y-83551580D01*
X202177945Y-83579383D01*
X197365727Y-94216918D01*
X197345632Y-94248093D01*
X186508783Y-106597060D01*
X186448817Y-106635068D01*
X186377822Y-106634623D01*
X186344186Y-106618790D01*
X185793165Y-106251443D01*
X185747580Y-106197014D01*
X185738658Y-106126580D01*
X185767977Y-106063926D01*
X195834001Y-94487998D01*
X202946000Y-77469998D01*
X204977999Y-58673998D01*
X201957920Y-45083644D01*
X201962669Y-45012807D01*
X202004961Y-44955781D01*
X202056209Y-44932758D01*
X203072396Y-44729520D01*
X203143117Y-44735774D01*
G37*
G36*
X123381448Y-46560652D02*
G01*
X123428561Y-46613764D01*
X123440549Y-46669259D01*
X123394953Y-49815401D01*
X123373966Y-49883225D01*
X123319642Y-49928935D01*
X123272229Y-49939533D01*
X118490999Y-50063399D01*
X117602000Y-50596798D01*
X117602000Y-50596799D01*
X117576951Y-57510298D01*
X117556702Y-57578345D01*
X117502879Y-57624644D01*
X117482854Y-57631735D01*
X111074199Y-59308999D01*
X112097515Y-59495057D01*
X112160958Y-59526923D01*
X112197103Y-59588030D01*
X112194473Y-59658978D01*
X112153903Y-59717241D01*
X112131001Y-59731884D01*
X105359199Y-63093600D01*
X107607469Y-63634049D01*
X107669027Y-63669419D01*
X107701692Y-63732455D01*
X107695091Y-63803144D01*
X107651321Y-63859043D01*
X107623345Y-63874124D01*
X97459800Y-67792599D01*
X97459800Y-67792600D01*
X100394254Y-68205597D01*
X100458923Y-68234897D01*
X100497484Y-68294509D01*
X100497695Y-68365505D01*
X100459490Y-68425345D01*
X100420425Y-68448535D01*
X91211401Y-71856600D01*
X92763574Y-72078339D01*
X92828181Y-72107774D01*
X92866619Y-72167466D01*
X92866683Y-72238462D01*
X92828353Y-72298223D01*
X92801416Y-72316112D01*
X84836922Y-76237839D01*
X84781261Y-76250800D01*
X78626685Y-76250800D01*
X78558564Y-76230798D01*
X78512071Y-76177142D01*
X78501967Y-76106868D01*
X78531461Y-76042288D01*
X78557339Y-76019600D01*
X123245216Y-46562233D01*
X123313100Y-46541441D01*
X123381448Y-46560652D01*
G37*
G36*
X111804033Y-60258135D02*
G01*
X111849095Y-60287095D01*
X114542725Y-62980725D01*
X114562107Y-63005720D01*
X117847472Y-68565568D01*
X117860458Y-68596161D01*
X119885447Y-75936746D01*
X119889121Y-75955531D01*
X120902241Y-84567056D01*
X120902188Y-84596940D01*
X119889198Y-92954115D01*
X119885266Y-92973568D01*
X117897708Y-99930020D01*
X117859761Y-99990025D01*
X117795398Y-100019988D01*
X117725052Y-100010398D01*
X117720207Y-100008103D01*
X117442789Y-99869394D01*
X117390805Y-99821039D01*
X117373216Y-99752256D01*
X117378452Y-99720490D01*
X118871999Y-94742001D01*
X120141999Y-86359999D01*
X120141999Y-86359997D01*
X119634000Y-77216005D01*
X119633999Y-77215999D01*
X117856000Y-70612002D01*
X117855996Y-70611992D01*
X114554001Y-64262001D01*
X111576450Y-60540062D01*
X111549514Y-60474373D01*
X111562368Y-60404550D01*
X111585744Y-60372254D01*
X111670905Y-60287094D01*
X111733217Y-60253069D01*
X111804033Y-60258135D01*
G37*
G36*
X173500494Y-34465217D02*
G01*
X173546899Y-34518949D01*
X173558200Y-34571103D01*
X173558200Y-38457176D01*
X173538198Y-38525297D01*
X173484542Y-38571790D01*
X173432778Y-38583175D01*
X168021000Y-38607999D01*
X167436800Y-38912799D01*
X167436800Y-45609102D01*
X167416798Y-45677223D01*
X167363142Y-45723716D01*
X167357352Y-45726187D01*
X161112200Y-48209199D01*
X164087641Y-51329783D01*
X164120173Y-51392888D01*
X164113424Y-51463563D01*
X164069537Y-51519370D01*
X164027462Y-51538857D01*
X149732999Y-55168799D01*
X149732999Y-55168800D01*
X154098968Y-57033186D01*
X154153760Y-57078333D01*
X154175446Y-57145937D01*
X154157140Y-57214533D01*
X154104655Y-57262343D01*
X154082619Y-57270628D01*
X140360399Y-61010799D01*
X143848736Y-62010641D01*
X143908709Y-62048638D01*
X143938618Y-62113027D01*
X143928968Y-62183365D01*
X143882823Y-62237320D01*
X143838642Y-62255335D01*
X124353107Y-66138061D01*
X124282391Y-66131756D01*
X124226309Y-66088221D01*
X124202667Y-66021276D01*
X124218971Y-65952177D01*
X124260537Y-65908380D01*
X173364253Y-34464993D01*
X173432407Y-34445103D01*
X173500494Y-34465217D01*
G37*
G36*
X50910693Y-134405703D02*
G01*
X52529055Y-134792177D01*
X52572384Y-134811746D01*
X54050907Y-135853983D01*
X54095060Y-135909580D01*
X54104231Y-135952471D01*
X54176962Y-137988957D01*
X54161541Y-138054001D01*
X53241594Y-139732905D01*
X53191318Y-139783034D01*
X53121922Y-139798024D01*
X53055438Y-139773115D01*
X53043472Y-139762902D01*
X52454076Y-139192519D01*
X52419034Y-139130773D01*
X52422937Y-139059884D01*
X52440373Y-139027082D01*
X53238399Y-137947400D01*
X52882800Y-136194800D01*
X52882798Y-136194799D01*
X51079401Y-135483599D01*
X51079400Y-135483600D01*
X50241200Y-136753599D01*
X50241200Y-136753600D01*
X50996188Y-137679069D01*
X51023750Y-137744497D01*
X51024060Y-137769873D01*
X50929902Y-138829142D01*
X50908549Y-138888898D01*
X50148254Y-140005583D01*
X50093382Y-140050634D01*
X50053872Y-140060292D01*
X47859713Y-140230948D01*
X47799257Y-140220682D01*
X46222946Y-139528061D01*
X46168626Y-139482346D01*
X46147799Y-139419192D01*
X46026595Y-137067834D01*
X46041174Y-137002200D01*
X47025398Y-135150922D01*
X47075037Y-135100163D01*
X47144238Y-135084299D01*
X47207909Y-135106154D01*
X47881578Y-135568099D01*
X47926447Y-135623120D01*
X47934447Y-135693664D01*
X47917552Y-135738178D01*
X47244000Y-136829799D01*
X47243999Y-136829800D01*
X47167799Y-138328399D01*
X48844198Y-138938000D01*
X49885599Y-138506199D01*
X49885600Y-138506199D01*
X49885600Y-137845800D01*
X49246209Y-137324814D01*
X49206034Y-137266277D01*
X49199800Y-137227134D01*
X49199800Y-135772758D01*
X49219802Y-135704637D01*
X49247088Y-135674369D01*
X50802714Y-134429868D01*
X50868403Y-134402932D01*
X50910693Y-134405703D01*
G37*
G36*
X43577801Y-126206001D02*
G01*
X49544812Y-128040123D01*
X49604049Y-128079257D01*
X49632726Y-128144205D01*
X49633756Y-128157569D01*
X49653806Y-129001535D01*
X49635428Y-129070112D01*
X49582892Y-129117866D01*
X49525136Y-129130499D01*
X48479067Y-129108027D01*
X48448395Y-129103555D01*
X46431200Y-128549400D01*
X46558200Y-129844799D01*
X48439976Y-129117179D01*
X48488097Y-129108729D01*
X49537255Y-129131052D01*
X49604935Y-129152498D01*
X49650276Y-129207131D01*
X49660521Y-129253319D01*
X49679733Y-129906549D01*
X49661742Y-129975228D01*
X49609476Y-130023278D01*
X49597283Y-130028507D01*
X43193655Y-132383864D01*
X43122817Y-132388608D01*
X43060660Y-132354300D01*
X43026918Y-132291834D01*
X43026191Y-132288150D01*
X42868047Y-131418360D01*
X42875541Y-131347760D01*
X42920014Y-131292418D01*
X42944164Y-131279260D01*
X45262800Y-130327399D01*
X45212000Y-128574800D01*
X43276827Y-128645599D01*
X43208020Y-128628101D01*
X43159597Y-128576181D01*
X43146930Y-128506323D01*
X43147154Y-128504369D01*
X43415715Y-126311126D01*
X43443848Y-126245941D01*
X43502757Y-126206314D01*
X43573738Y-126204827D01*
X43577801Y-126206001D01*
G37*
G36*
X48415649Y-115438280D02*
G01*
X48482958Y-115460863D01*
X48527372Y-115516251D01*
X48536820Y-115566812D01*
X48515548Y-116587880D01*
X48494131Y-116655570D01*
X48448200Y-116696787D01*
X44551599Y-118744999D01*
X44551600Y-118745000D01*
X48474466Y-119787787D01*
X48535161Y-119824618D01*
X48566310Y-119888417D01*
X48568021Y-119905216D01*
X48611230Y-121158285D01*
X48593588Y-121227054D01*
X48541566Y-121275369D01*
X48488860Y-121288577D01*
X42460745Y-121458725D01*
X42392087Y-121440653D01*
X42344099Y-121388330D01*
X42331920Y-121319232D01*
X42406833Y-120626288D01*
X42434041Y-120560712D01*
X42492383Y-120520255D01*
X42521523Y-120514276D01*
X46939200Y-120142000D01*
X43647415Y-119349991D01*
X43585864Y-119314609D01*
X43553212Y-119251566D01*
X43551597Y-119240816D01*
X43443399Y-118223758D01*
X43456083Y-118153904D01*
X43504519Y-118101996D01*
X43514074Y-118096882D01*
X47447199Y-116205000D01*
X42303022Y-116278488D01*
X42234622Y-116259461D01*
X42187368Y-116206475D01*
X42176261Y-116136353D01*
X42184427Y-116105227D01*
X42511807Y-115296405D01*
X42555906Y-115240765D01*
X42623086Y-115217800D01*
X42633404Y-115217771D01*
X48415649Y-115438280D01*
G37*
G36*
X144972122Y-62504002D02*
G01*
X145018615Y-62557658D01*
X145029940Y-62613936D01*
X144780315Y-70601911D01*
X144778080Y-70621918D01*
X143259068Y-78470146D01*
X143249033Y-78500566D01*
X140461994Y-84328010D01*
X138440978Y-88875297D01*
X138409854Y-88918024D01*
X133606594Y-93215678D01*
X133601290Y-93220167D01*
X132396953Y-94183637D01*
X132331264Y-94210573D01*
X132261892Y-94197946D01*
X131992888Y-94063444D01*
X131940904Y-94015089D01*
X131923315Y-93946306D01*
X131945706Y-93878932D01*
X131965753Y-93856372D01*
X138429998Y-88138001D01*
X138430002Y-88137996D01*
X142493997Y-78232007D01*
X144525999Y-69595998D01*
X144276661Y-62614497D01*
X144294219Y-62545706D01*
X144346181Y-62497328D01*
X144402581Y-62484000D01*
X144904001Y-62484000D01*
X144972122Y-62504002D01*
G37*
G36*
X223534172Y-19487998D02*
G01*
X223582704Y-19539816D01*
X223596200Y-19596550D01*
X223596200Y-23496000D01*
X223576198Y-23564121D01*
X223522542Y-23610614D01*
X223470200Y-23622000D01*
X218058997Y-23622000D01*
X217690916Y-23785592D01*
X217620543Y-23794981D01*
X217602851Y-23786682D01*
X217604511Y-23795728D01*
X217601800Y-23803388D01*
X217601800Y-30646572D01*
X217581798Y-30714693D01*
X217552643Y-30746428D01*
X204927200Y-40462200D01*
X208068608Y-41356469D01*
X208128649Y-41394357D01*
X208158675Y-41458692D01*
X208149152Y-41529047D01*
X208103104Y-41583085D01*
X208084387Y-41593189D01*
X196852463Y-46480927D01*
X196847454Y-46482979D01*
X186029600Y-50647599D01*
X189323669Y-51417642D01*
X189385449Y-51452625D01*
X189418507Y-51515455D01*
X189412350Y-51586184D01*
X189368930Y-51642356D01*
X189315387Y-51664672D01*
X174233360Y-54139066D01*
X174162900Y-54130356D01*
X174108334Y-54084935D01*
X174086986Y-54017224D01*
X174105634Y-53948721D01*
X174140705Y-53911505D01*
X174754071Y-53482149D01*
X174754177Y-53482113D01*
X174754160Y-53482088D01*
X217407025Y-23679347D01*
X217474321Y-23656726D01*
X217518865Y-23667954D01*
X217519214Y-23633725D01*
X217558204Y-23574393D01*
X217567575Y-23567167D01*
X223398032Y-19493265D01*
X223465328Y-19470644D01*
X223534172Y-19487998D01*
G37*
G36*
X187883135Y-107504634D02*
G01*
X187945045Y-107539386D01*
X187978338Y-107602092D01*
X187972445Y-107672844D01*
X187929236Y-107729178D01*
X187926114Y-107731387D01*
X186309000Y-108838999D01*
X198231362Y-112499808D01*
X198290610Y-112538925D01*
X198319306Y-112603864D01*
X198308337Y-112674008D01*
X198261187Y-112727087D01*
X198245892Y-112735246D01*
X195376800Y-114020600D01*
X209910857Y-118790752D01*
X209969343Y-118830999D01*
X209996786Y-118896478D01*
X209984472Y-118966398D01*
X209936310Y-119018562D01*
X209919336Y-119027062D01*
X206578201Y-120395999D01*
X218208639Y-125053210D01*
X218264442Y-125097102D01*
X218287658Y-125164196D01*
X218283334Y-125203431D01*
X217576400Y-127787397D01*
X217576400Y-134675955D01*
X217596027Y-134676153D01*
X218135199Y-134823199D01*
X218135202Y-134823200D01*
X223495600Y-134823200D01*
X223563721Y-134843202D01*
X223610214Y-134896858D01*
X223621600Y-134949200D01*
X223621600Y-138950017D01*
X223601598Y-139018138D01*
X223547942Y-139064631D01*
X223477668Y-139074735D01*
X223423351Y-139053245D01*
X217490625Y-134900941D01*
X217450442Y-134850692D01*
X217387304Y-134828627D01*
X174215154Y-104612514D01*
X174170814Y-104557066D01*
X174163490Y-104486448D01*
X174195508Y-104423081D01*
X174256702Y-104387084D01*
X174315625Y-104386487D01*
X187883135Y-107504634D01*
G37*
G36*
X106273320Y-64909511D02*
G01*
X106320708Y-64962378D01*
X106332708Y-65025063D01*
X106019599Y-69697601D01*
X105893166Y-73338878D01*
X105887890Y-73370838D01*
X104548984Y-77817018D01*
X104542628Y-77833727D01*
X102417764Y-82412303D01*
X102405934Y-82432593D01*
X100566811Y-85002326D01*
X100548059Y-85023169D01*
X96712575Y-88432488D01*
X96648372Y-88462795D01*
X96618817Y-88463913D01*
X96306832Y-88438954D01*
X96240523Y-88413583D01*
X96198457Y-88356391D01*
X96193990Y-88285535D01*
X96227146Y-88224903D01*
X101295200Y-83083399D01*
X101295201Y-83083398D01*
X103682797Y-78028806D01*
X103682800Y-78028798D01*
X105155998Y-72237604D01*
X105156000Y-72237596D01*
X105735180Y-65237076D01*
X105760731Y-65170836D01*
X105790859Y-65142627D01*
X106137098Y-64911801D01*
X106204873Y-64890657D01*
X106273320Y-64909511D01*
G37*
G36*
X78399258Y-88674628D02*
G01*
X86904270Y-90522443D01*
X86932194Y-90532051D01*
X93131917Y-93518040D01*
X93150717Y-93529201D01*
X98261984Y-97198179D01*
X98281426Y-97215436D01*
X103240094Y-102629492D01*
X103258550Y-102655670D01*
X107866719Y-111365616D01*
X107877508Y-111393678D01*
X109663786Y-118464364D01*
X109661078Y-118535309D01*
X109620445Y-118593528D01*
X109554786Y-118620537D01*
X109544169Y-118621200D01*
X104673400Y-118719599D01*
X104673399Y-118719600D01*
X104648726Y-122001127D01*
X104628213Y-122069096D01*
X104574209Y-122115184D01*
X104554436Y-122122126D01*
X103378000Y-122428000D01*
X103378000Y-123850399D01*
X104574656Y-124400861D01*
X104628184Y-124447501D01*
X104648000Y-124515331D01*
X104648000Y-127914400D01*
X109572371Y-127914400D01*
X109640492Y-127934402D01*
X109686985Y-127988058D01*
X109697089Y-128058332D01*
X109695612Y-128066622D01*
X109221728Y-130293874D01*
X109217223Y-130309817D01*
X106050685Y-139226790D01*
X106035277Y-139256732D01*
X101126704Y-146290667D01*
X101105016Y-146314534D01*
X93309731Y-152945587D01*
X93275293Y-152966438D01*
X83253027Y-157015839D01*
X83217292Y-157024491D01*
X73523706Y-157910328D01*
X73491646Y-157909157D01*
X65091100Y-156517500D01*
X65059745Y-156507987D01*
X57059614Y-152887675D01*
X57038375Y-152875447D01*
X52105597Y-149355574D01*
X52061764Y-149299724D01*
X52055084Y-149229043D01*
X52082891Y-149171275D01*
X55119058Y-145609157D01*
X55178470Y-145570288D01*
X55249464Y-145569710D01*
X55309500Y-145607606D01*
X55314543Y-145613707D01*
X56794397Y-147523197D01*
X61239401Y-150037799D01*
X65360669Y-148846107D01*
X65431665Y-148846399D01*
X65491233Y-148885029D01*
X65505010Y-148904534D01*
X67157600Y-151790400D01*
X75926400Y-148875770D01*
X75997353Y-148873264D01*
X76058396Y-148909516D01*
X76090150Y-148973016D01*
X76092066Y-148999741D01*
X75971399Y-152450799D01*
X82013633Y-148674403D01*
X82082000Y-148655261D01*
X82126425Y-148663953D01*
X86664799Y-150444200D01*
X86664800Y-150444199D01*
X90849388Y-146486486D01*
X90912623Y-146454209D01*
X90924811Y-146452523D01*
X95453199Y-146050000D01*
X96653736Y-141272863D01*
X96689738Y-141211672D01*
X96746912Y-141180961D01*
X101930199Y-139953999D01*
X101311568Y-135796796D01*
X101321326Y-135726473D01*
X101367554Y-135672589D01*
X101402310Y-135656892D01*
X105206799Y-134594600D01*
X105384600Y-129921000D01*
X103736858Y-129183205D01*
X103682860Y-129137111D01*
X103666947Y-129101930D01*
X102925757Y-126433647D01*
X102921188Y-126397281D01*
X102996973Y-122784854D01*
X102997050Y-122782358D01*
X103147017Y-119108174D01*
X103169780Y-119040926D01*
X103195495Y-119013902D01*
X106019599Y-116814600D01*
X101292234Y-114732599D01*
X101237953Y-114686837D01*
X101217031Y-114618994D01*
X101236108Y-114550608D01*
X101257016Y-114525203D01*
X103809799Y-112141000D01*
X103809799Y-112140999D01*
X99463258Y-110079497D01*
X99410281Y-110032233D01*
X99391266Y-109963830D01*
X99396813Y-109928637D01*
X101066600Y-104495600D01*
X94815665Y-103748476D01*
X94750399Y-103720530D01*
X94710603Y-103661736D01*
X94705433Y-103609059D01*
X95199199Y-99288600D01*
X90189867Y-98887853D01*
X90123558Y-98862482D01*
X90087348Y-98818863D01*
X87909401Y-94488000D01*
X87909399Y-94487999D01*
X80717727Y-95594411D01*
X80647357Y-95585000D01*
X80599518Y-95547755D01*
X78028799Y-92278199D01*
X71304855Y-95174280D01*
X71234378Y-95182857D01*
X71192349Y-95167871D01*
X67259200Y-92913200D01*
X62815850Y-95850329D01*
X62747992Y-95871207D01*
X62704158Y-95863936D01*
X60477399Y-95072199D01*
X55521979Y-100603249D01*
X55461625Y-100640638D01*
X55390638Y-100639463D01*
X55356962Y-100623145D01*
X51323280Y-97861994D01*
X51278366Y-97807009D01*
X51270308Y-97736472D01*
X51301666Y-97672775D01*
X51317011Y-97658627D01*
X55311595Y-94546283D01*
X55332064Y-94533292D01*
X62624991Y-90836183D01*
X62648736Y-90827027D01*
X69682912Y-88904015D01*
X69712824Y-88899599D01*
X78369192Y-88671800D01*
X78399258Y-88674628D01*
G37*
G36*
X223224887Y-32172612D02*
G01*
X223275494Y-32222405D01*
X223291400Y-32283685D01*
X223291400Y-126869585D01*
X223271398Y-126937706D01*
X223217742Y-126984199D01*
X223147468Y-126994303D01*
X223082888Y-126964809D01*
X223081135Y-126963262D01*
X218035597Y-122424692D01*
X217998328Y-122364264D01*
X217996087Y-122307439D01*
X218389199Y-120243599D01*
X214230955Y-116995740D01*
X214189582Y-116938044D01*
X214185969Y-116867140D01*
X214221264Y-116805538D01*
X214236348Y-116793155D01*
X218058999Y-114122201D01*
X218058999Y-114122200D01*
X213966225Y-106635417D01*
X213951100Y-106566050D01*
X213975878Y-106499518D01*
X214032694Y-106456944D01*
X214037756Y-106455174D01*
X217246199Y-105409999D01*
X213677688Y-98298107D01*
X213665015Y-98228251D01*
X213692121Y-98162632D01*
X213696077Y-98157952D01*
X217855799Y-93472000D01*
X214043325Y-92184986D01*
X213985181Y-92144247D01*
X213958292Y-92078539D01*
X213971195Y-92008725D01*
X213987318Y-91984360D01*
X218389199Y-86766400D01*
X214367410Y-84447085D01*
X214318391Y-84395726D01*
X214304921Y-84326019D01*
X214326681Y-84266328D01*
X218389200Y-78384401D01*
X218389200Y-78384400D01*
X215393033Y-75066331D01*
X215362225Y-75002367D01*
X215370888Y-74931901D01*
X215394116Y-74896259D01*
X219151199Y-70840599D01*
X216408062Y-67149833D01*
X216383480Y-67083228D01*
X216398810Y-67013906D01*
X216401815Y-67008740D01*
X219024200Y-62738000D01*
X219024200Y-62737999D01*
X215724294Y-57313154D01*
X215705980Y-57244560D01*
X215727659Y-57176954D01*
X215745286Y-57156202D01*
X219049599Y-54025799D01*
X216732200Y-51683747D01*
X216698506Y-51621255D01*
X216703945Y-51550467D01*
X216714994Y-51528223D01*
X219176600Y-47599599D01*
X216784205Y-43786720D01*
X216764942Y-43718386D01*
X216785682Y-43650486D01*
X216790135Y-43644152D01*
X219024199Y-40665400D01*
X219024199Y-40665399D01*
X217164070Y-36821131D01*
X217152404Y-36751099D01*
X217180452Y-36685878D01*
X217201166Y-36665997D01*
X223089076Y-32183432D01*
X223155393Y-32158083D01*
X223224887Y-32172612D01*
G37*
G36*
X154231867Y-57702633D02*
G01*
X163051223Y-65010099D01*
X163079135Y-65042727D01*
X168647642Y-74407944D01*
X168660492Y-74437724D01*
X171193092Y-83301823D01*
X171197169Y-83322524D01*
X172971499Y-99291493D01*
X172968508Y-99335966D01*
X169959000Y-111373997D01*
X169923073Y-111435233D01*
X169859744Y-111467324D01*
X169796917Y-111462972D01*
X169277747Y-111289915D01*
X169219447Y-111249398D01*
X169192308Y-111183793D01*
X169196229Y-111136512D01*
X172212000Y-100330000D01*
X170179999Y-81025998D01*
X163830000Y-67310000D01*
X153576400Y-58056752D01*
X153539229Y-57996264D01*
X153540660Y-57925281D01*
X153580240Y-57866341D01*
X153620971Y-57843676D01*
X154111632Y-57680122D01*
X154182582Y-57677556D01*
X154231867Y-57702633D01*
G37*
G36*
X141551652Y-97064967D02*
G01*
X141612184Y-97102067D01*
X141643049Y-97166003D01*
X141634448Y-97236477D01*
X141589112Y-97291113D01*
X141572027Y-97300773D01*
X139217400Y-98399600D01*
X152124867Y-102486134D01*
X152183774Y-102525764D01*
X152211903Y-102590950D01*
X152200324Y-102660997D01*
X152156944Y-102710951D01*
X149529800Y-104470199D01*
X149529800Y-104470200D01*
X162231691Y-107873813D01*
X162292313Y-107910765D01*
X162323334Y-107974626D01*
X162314904Y-108045120D01*
X162269701Y-108099867D01*
X162243402Y-108113466D01*
X158623000Y-109474000D01*
X167253530Y-112745046D01*
X167310141Y-112787892D01*
X167334600Y-112854542D01*
X167334874Y-112863337D01*
X167309800Y-119583199D01*
X168122598Y-119989599D01*
X168122603Y-119989600D01*
X173482992Y-120088866D01*
X173550731Y-120110125D01*
X173596222Y-120164633D01*
X173606637Y-120217206D01*
X173537022Y-123929976D01*
X173515746Y-123997710D01*
X173461228Y-124043189D01*
X173390777Y-124051973D01*
X173343097Y-124033724D01*
X124362279Y-92669033D01*
X124315698Y-92615453D01*
X124305479Y-92545196D01*
X124334866Y-92480567D01*
X124394530Y-92442085D01*
X124463135Y-92441296D01*
X141551652Y-97064967D01*
G37*
G36*
X77716371Y-76732229D02*
G01*
X77763141Y-76785643D01*
X77774800Y-76838578D01*
X77774800Y-81609048D01*
X77754798Y-81677169D01*
X77701142Y-81723662D01*
X77630868Y-81733766D01*
X77581068Y-81715295D01*
X73875848Y-79353218D01*
X73829159Y-79299733D01*
X73818798Y-79229496D01*
X73848054Y-79164808D01*
X73874911Y-79141327D01*
X77580131Y-76732934D01*
X77648148Y-76712580D01*
X77716371Y-76732229D01*
G37*
M02*
