%TF.GenerationSoftware,KiCad,Pcbnew,8.0.5*%
%TF.CreationDate,2024-12-06T23:01:49+01:00*%
%TF.ProjectId,xmasTree,786d6173-5472-4656-952e-6b696361645f,R2*%
%TF.SameCoordinates,Original*%
%TF.FileFunction,Paste,Top*%
%TF.FilePolarity,Positive*%
%FSLAX46Y46*%
G04 Gerber Fmt 4.6, Leading zero omitted, Abs format (unit mm)*
G04 Created by KiCad (PCBNEW 8.0.5) date 2024-12-06 23:01:49*
%MOMM*%
%LPD*%
G01*
G04 APERTURE LIST*
G04 Aperture macros list*
%AMRoundRect*
0 Rectangle with rounded corners*
0 $1 Rounding radius*
0 $2 $3 $4 $5 $6 $7 $8 $9 X,Y pos of 4 corners*
0 Add a 4 corners polygon primitive as box body*
4,1,4,$2,$3,$4,$5,$6,$7,$8,$9,$2,$3,0*
0 Add four circle primitives for the rounded corners*
1,1,$1+$1,$2,$3*
1,1,$1+$1,$4,$5*
1,1,$1+$1,$6,$7*
1,1,$1+$1,$8,$9*
0 Add four rect primitives between the rounded corners*
20,1,$1+$1,$2,$3,$4,$5,0*
20,1,$1+$1,$4,$5,$6,$7,0*
20,1,$1+$1,$6,$7,$8,$9,0*
20,1,$1+$1,$8,$9,$2,$3,0*%
G04 Aperture macros list end*
%ADD10R,1.000000X1.500000*%
%ADD11R,1.500000X1.000000*%
%ADD12R,1.350000X0.400000*%
%ADD13R,1.900000X1.500000*%
%ADD14RoundRect,0.250000X0.475000X-0.337500X0.475000X0.337500X-0.475000X0.337500X-0.475000X-0.337500X0*%
%ADD15RoundRect,0.250000X0.450000X-0.350000X0.450000X0.350000X-0.450000X0.350000X-0.450000X-0.350000X0*%
%ADD16R,1.500000X2.000000*%
%ADD17R,3.800000X2.000000*%
G04 APERTURE END LIST*
D10*
%TO.C,D1*%
X222072000Y-24798000D03*
X218872000Y-24798000D03*
X218872000Y-29698000D03*
X222072000Y-29698000D03*
%TD*%
%TO.C,D3*%
X122256000Y-51298000D03*
X119056000Y-51298000D03*
X119056000Y-56198000D03*
X122256000Y-56198000D03*
%TD*%
D11*
%TO.C,D4*%
X78906000Y-77648000D03*
X78906000Y-80848000D03*
X83806000Y-80848000D03*
X83806000Y-77648000D03*
%TD*%
D10*
%TO.C,D5*%
X119056000Y-107198000D03*
X122256000Y-107198000D03*
X122256000Y-102298000D03*
X119056000Y-102298000D03*
%TD*%
%TO.C,D6*%
X168756000Y-118698000D03*
X171956000Y-118698000D03*
X171956000Y-113798000D03*
X168756000Y-113798000D03*
%TD*%
%TO.C,D7*%
X218872000Y-133698000D03*
X222072000Y-133698000D03*
X222072000Y-128798000D03*
X218872000Y-128798000D03*
%TD*%
%TO.C,D2*%
X171956000Y-39798000D03*
X168756000Y-39798000D03*
X168756000Y-44698000D03*
X171956000Y-44698000D03*
%TD*%
D12*
%TO.C,J1*%
X105885500Y-124490000D03*
X105885500Y-123840000D03*
X105885500Y-123190000D03*
X105885500Y-122540000D03*
X105885500Y-121890000D03*
D13*
X108585500Y-124190000D03*
X108585500Y-122190000D03*
%TD*%
D14*
%TO.C,C9*%
X67818000Y-114089000D03*
X67818000Y-112014000D03*
%TD*%
D15*
%TO.C,R5*%
X67818000Y-134350000D03*
X67818000Y-132350000D03*
%TD*%
D16*
%TO.C,U1*%
X58914000Y-107544000D03*
X61214000Y-107544000D03*
D17*
X61214000Y-101244000D03*
D16*
X63514000Y-107544000D03*
%TD*%
M02*
