%TF.GenerationSoftware,KiCad,Pcbnew,8.0.5*%
%TF.CreationDate,2024-12-06T23:01:49+01:00*%
%TF.ProjectId,xmasTree,786d6173-5472-4656-952e-6b696361645f,R2*%
%TF.SameCoordinates,Original*%
%TF.FileFunction,Legend,Bot*%
%TF.FilePolarity,Positive*%
%FSLAX46Y46*%
G04 Gerber Fmt 4.6, Leading zero omitted, Abs format (unit mm)*
G04 Created by KiCad (PCBNEW 8.0.5) date 2024-12-06 23:01:49*
%MOMM*%
%LPD*%
G01*
G04 APERTURE LIST*
%ADD10C,0.400000*%
%ADD11C,0.150000*%
%ADD12C,0.120000*%
G04 APERTURE END LIST*
D10*
X89915858Y-146072544D02*
X87487287Y-146072544D01*
X87487287Y-146072544D02*
X87201573Y-146215401D01*
X87201573Y-146215401D02*
X87058716Y-146358258D01*
X87058716Y-146358258D02*
X86915858Y-146643972D01*
X86915858Y-146643972D02*
X86915858Y-147072544D01*
X86915858Y-147072544D02*
X87058716Y-147358258D01*
X88058716Y-146072544D02*
X87915858Y-146358258D01*
X87915858Y-146358258D02*
X87915858Y-146929686D01*
X87915858Y-146929686D02*
X88058716Y-147215401D01*
X88058716Y-147215401D02*
X88201573Y-147358258D01*
X88201573Y-147358258D02*
X88487287Y-147501115D01*
X88487287Y-147501115D02*
X89344430Y-147501115D01*
X89344430Y-147501115D02*
X89630144Y-147358258D01*
X89630144Y-147358258D02*
X89773001Y-147215401D01*
X89773001Y-147215401D02*
X89915858Y-146929686D01*
X89915858Y-146929686D02*
X89915858Y-146358258D01*
X89915858Y-146358258D02*
X89773001Y-146072544D01*
X87915858Y-144643972D02*
X89915858Y-144643972D01*
X90915858Y-144643972D02*
X90773001Y-144786829D01*
X90773001Y-144786829D02*
X90630144Y-144643972D01*
X90630144Y-144643972D02*
X90773001Y-144501115D01*
X90773001Y-144501115D02*
X90915858Y-144643972D01*
X90915858Y-144643972D02*
X90630144Y-144643972D01*
X89915858Y-143643972D02*
X89915858Y-142501115D01*
X90915858Y-143215401D02*
X88344430Y-143215401D01*
X88344430Y-143215401D02*
X88058716Y-143072544D01*
X88058716Y-143072544D02*
X87915858Y-142786829D01*
X87915858Y-142786829D02*
X87915858Y-142501115D01*
X87915858Y-141501115D02*
X90915858Y-141501115D01*
X87915858Y-140215401D02*
X89487287Y-140215401D01*
X89487287Y-140215401D02*
X89773001Y-140358258D01*
X89773001Y-140358258D02*
X89915858Y-140643972D01*
X89915858Y-140643972D02*
X89915858Y-141072543D01*
X89915858Y-141072543D02*
X89773001Y-141358258D01*
X89773001Y-141358258D02*
X89630144Y-141501115D01*
X89915858Y-137501115D02*
X87915858Y-137501115D01*
X89915858Y-138786829D02*
X88344430Y-138786829D01*
X88344430Y-138786829D02*
X88058716Y-138643972D01*
X88058716Y-138643972D02*
X87915858Y-138358257D01*
X87915858Y-138358257D02*
X87915858Y-137929686D01*
X87915858Y-137929686D02*
X88058716Y-137643972D01*
X88058716Y-137643972D02*
X88201573Y-137501115D01*
X87915858Y-136072543D02*
X90915858Y-136072543D01*
X89773001Y-136072543D02*
X89915858Y-135786829D01*
X89915858Y-135786829D02*
X89915858Y-135215400D01*
X89915858Y-135215400D02*
X89773001Y-134929686D01*
X89773001Y-134929686D02*
X89630144Y-134786829D01*
X89630144Y-134786829D02*
X89344430Y-134643971D01*
X89344430Y-134643971D02*
X88487287Y-134643971D01*
X88487287Y-134643971D02*
X88201573Y-134786829D01*
X88201573Y-134786829D02*
X88058716Y-134929686D01*
X88058716Y-134929686D02*
X87915858Y-135215400D01*
X87915858Y-135215400D02*
X87915858Y-135786829D01*
X87915858Y-135786829D02*
X88058716Y-136072543D01*
X88201573Y-133358257D02*
X88058716Y-133215400D01*
X88058716Y-133215400D02*
X87915858Y-133358257D01*
X87915858Y-133358257D02*
X88058716Y-133501114D01*
X88058716Y-133501114D02*
X88201573Y-133358257D01*
X88201573Y-133358257D02*
X87915858Y-133358257D01*
X88058716Y-130643972D02*
X87915858Y-130929686D01*
X87915858Y-130929686D02*
X87915858Y-131501114D01*
X87915858Y-131501114D02*
X88058716Y-131786829D01*
X88058716Y-131786829D02*
X88201573Y-131929686D01*
X88201573Y-131929686D02*
X88487287Y-132072543D01*
X88487287Y-132072543D02*
X89344430Y-132072543D01*
X89344430Y-132072543D02*
X89630144Y-131929686D01*
X89630144Y-131929686D02*
X89773001Y-131786829D01*
X89773001Y-131786829D02*
X89915858Y-131501114D01*
X89915858Y-131501114D02*
X89915858Y-130929686D01*
X89915858Y-130929686D02*
X89773001Y-130643972D01*
X87915858Y-128929685D02*
X88058716Y-129215400D01*
X88058716Y-129215400D02*
X88201573Y-129358257D01*
X88201573Y-129358257D02*
X88487287Y-129501114D01*
X88487287Y-129501114D02*
X89344430Y-129501114D01*
X89344430Y-129501114D02*
X89630144Y-129358257D01*
X89630144Y-129358257D02*
X89773001Y-129215400D01*
X89773001Y-129215400D02*
X89915858Y-128929685D01*
X89915858Y-128929685D02*
X89915858Y-128501114D01*
X89915858Y-128501114D02*
X89773001Y-128215400D01*
X89773001Y-128215400D02*
X89630144Y-128072543D01*
X89630144Y-128072543D02*
X89344430Y-127929685D01*
X89344430Y-127929685D02*
X88487287Y-127929685D01*
X88487287Y-127929685D02*
X88201573Y-128072543D01*
X88201573Y-128072543D02*
X88058716Y-128215400D01*
X88058716Y-128215400D02*
X87915858Y-128501114D01*
X87915858Y-128501114D02*
X87915858Y-128929685D01*
X87915858Y-126643971D02*
X89915858Y-126643971D01*
X89630144Y-126643971D02*
X89773001Y-126501114D01*
X89773001Y-126501114D02*
X89915858Y-126215399D01*
X89915858Y-126215399D02*
X89915858Y-125786828D01*
X89915858Y-125786828D02*
X89773001Y-125501114D01*
X89773001Y-125501114D02*
X89487287Y-125358257D01*
X89487287Y-125358257D02*
X87915858Y-125358257D01*
X89487287Y-125358257D02*
X89773001Y-125215399D01*
X89773001Y-125215399D02*
X89915858Y-124929685D01*
X89915858Y-124929685D02*
X89915858Y-124501114D01*
X89915858Y-124501114D02*
X89773001Y-124215399D01*
X89773001Y-124215399D02*
X89487287Y-124072542D01*
X89487287Y-124072542D02*
X87915858Y-124072542D01*
X91058716Y-120501114D02*
X87201573Y-123072542D01*
X89915858Y-119929685D02*
X89915858Y-118786828D01*
X90915858Y-119501114D02*
X88344430Y-119501114D01*
X88344430Y-119501114D02*
X88058716Y-119358257D01*
X88058716Y-119358257D02*
X87915858Y-119072542D01*
X87915858Y-119072542D02*
X87915858Y-118786828D01*
X87915858Y-117786828D02*
X90915858Y-117786828D01*
X87915858Y-116501114D02*
X89487287Y-116501114D01*
X89487287Y-116501114D02*
X89773001Y-116643971D01*
X89773001Y-116643971D02*
X89915858Y-116929685D01*
X89915858Y-116929685D02*
X89915858Y-117358256D01*
X89915858Y-117358256D02*
X89773001Y-117643971D01*
X89773001Y-117643971D02*
X89630144Y-117786828D01*
X88058716Y-113929685D02*
X87915858Y-114215399D01*
X87915858Y-114215399D02*
X87915858Y-114786828D01*
X87915858Y-114786828D02*
X88058716Y-115072542D01*
X88058716Y-115072542D02*
X88344430Y-115215399D01*
X88344430Y-115215399D02*
X89487287Y-115215399D01*
X89487287Y-115215399D02*
X89773001Y-115072542D01*
X89773001Y-115072542D02*
X89915858Y-114786828D01*
X89915858Y-114786828D02*
X89915858Y-114215399D01*
X89915858Y-114215399D02*
X89773001Y-113929685D01*
X89773001Y-113929685D02*
X89487287Y-113786828D01*
X89487287Y-113786828D02*
X89201573Y-113786828D01*
X89201573Y-113786828D02*
X88915858Y-115215399D01*
X87915858Y-112072541D02*
X88058716Y-112358256D01*
X88058716Y-112358256D02*
X88344430Y-112501113D01*
X88344430Y-112501113D02*
X90915858Y-112501113D01*
X87915858Y-110501112D02*
X88058716Y-110786827D01*
X88058716Y-110786827D02*
X88201573Y-110929684D01*
X88201573Y-110929684D02*
X88487287Y-111072541D01*
X88487287Y-111072541D02*
X89344430Y-111072541D01*
X89344430Y-111072541D02*
X89630144Y-110929684D01*
X89630144Y-110929684D02*
X89773001Y-110786827D01*
X89773001Y-110786827D02*
X89915858Y-110501112D01*
X89915858Y-110501112D02*
X89915858Y-110072541D01*
X89915858Y-110072541D02*
X89773001Y-109786827D01*
X89773001Y-109786827D02*
X89630144Y-109643970D01*
X89630144Y-109643970D02*
X89344430Y-109501112D01*
X89344430Y-109501112D02*
X88487287Y-109501112D01*
X88487287Y-109501112D02*
X88201573Y-109643970D01*
X88201573Y-109643970D02*
X88058716Y-109786827D01*
X88058716Y-109786827D02*
X87915858Y-110072541D01*
X87915858Y-110072541D02*
X87915858Y-110501112D01*
X89915858Y-106929684D02*
X87915858Y-106929684D01*
X89915858Y-108215398D02*
X88344430Y-108215398D01*
X88344430Y-108215398D02*
X88058716Y-108072541D01*
X88058716Y-108072541D02*
X87915858Y-107786826D01*
X87915858Y-107786826D02*
X87915858Y-107358255D01*
X87915858Y-107358255D02*
X88058716Y-107072541D01*
X88058716Y-107072541D02*
X88201573Y-106929684D01*
X87915858Y-105501112D02*
X90915858Y-105501112D01*
X89058716Y-105215398D02*
X87915858Y-104358255D01*
X89915858Y-104358255D02*
X88773001Y-105501112D01*
X87915858Y-102643969D02*
X88058716Y-102929684D01*
X88058716Y-102929684D02*
X88201573Y-103072541D01*
X88201573Y-103072541D02*
X88487287Y-103215398D01*
X88487287Y-103215398D02*
X89344430Y-103215398D01*
X89344430Y-103215398D02*
X89630144Y-103072541D01*
X89630144Y-103072541D02*
X89773001Y-102929684D01*
X89773001Y-102929684D02*
X89915858Y-102643969D01*
X89915858Y-102643969D02*
X89915858Y-102215398D01*
X89915858Y-102215398D02*
X89773001Y-101929684D01*
X89773001Y-101929684D02*
X89630144Y-101786827D01*
X89630144Y-101786827D02*
X89344430Y-101643969D01*
X89344430Y-101643969D02*
X88487287Y-101643969D01*
X88487287Y-101643969D02*
X88201573Y-101786827D01*
X88201573Y-101786827D02*
X88058716Y-101929684D01*
X88058716Y-101929684D02*
X87915858Y-102215398D01*
X87915858Y-102215398D02*
X87915858Y-102643969D01*
X89915858Y-99072541D02*
X87915858Y-99072541D01*
X89915858Y-100358255D02*
X88344430Y-100358255D01*
X88344430Y-100358255D02*
X88058716Y-100215398D01*
X88058716Y-100215398D02*
X87915858Y-99929683D01*
X87915858Y-99929683D02*
X87915858Y-99501112D01*
X87915858Y-99501112D02*
X88058716Y-99215398D01*
X88058716Y-99215398D02*
X88201573Y-99072541D01*
X85800312Y-128358257D02*
X85943169Y-128215400D01*
X85943169Y-128215400D02*
X86086026Y-127929686D01*
X86086026Y-127929686D02*
X86086026Y-127215400D01*
X86086026Y-127215400D02*
X85943169Y-126929686D01*
X85943169Y-126929686D02*
X85800312Y-126786828D01*
X85800312Y-126786828D02*
X85514598Y-126643971D01*
X85514598Y-126643971D02*
X85228884Y-126643971D01*
X85228884Y-126643971D02*
X84800312Y-126786828D01*
X84800312Y-126786828D02*
X83086026Y-128501114D01*
X83086026Y-128501114D02*
X83086026Y-126643971D01*
X86086026Y-124786828D02*
X86086026Y-124501114D01*
X86086026Y-124501114D02*
X85943169Y-124215400D01*
X85943169Y-124215400D02*
X85800312Y-124072543D01*
X85800312Y-124072543D02*
X85514598Y-123929685D01*
X85514598Y-123929685D02*
X84943169Y-123786828D01*
X84943169Y-123786828D02*
X84228884Y-123786828D01*
X84228884Y-123786828D02*
X83657455Y-123929685D01*
X83657455Y-123929685D02*
X83371741Y-124072543D01*
X83371741Y-124072543D02*
X83228884Y-124215400D01*
X83228884Y-124215400D02*
X83086026Y-124501114D01*
X83086026Y-124501114D02*
X83086026Y-124786828D01*
X83086026Y-124786828D02*
X83228884Y-125072543D01*
X83228884Y-125072543D02*
X83371741Y-125215400D01*
X83371741Y-125215400D02*
X83657455Y-125358257D01*
X83657455Y-125358257D02*
X84228884Y-125501114D01*
X84228884Y-125501114D02*
X84943169Y-125501114D01*
X84943169Y-125501114D02*
X85514598Y-125358257D01*
X85514598Y-125358257D02*
X85800312Y-125215400D01*
X85800312Y-125215400D02*
X85943169Y-125072543D01*
X85943169Y-125072543D02*
X86086026Y-124786828D01*
X85800312Y-122643971D02*
X85943169Y-122501114D01*
X85943169Y-122501114D02*
X86086026Y-122215400D01*
X86086026Y-122215400D02*
X86086026Y-121501114D01*
X86086026Y-121501114D02*
X85943169Y-121215400D01*
X85943169Y-121215400D02*
X85800312Y-121072542D01*
X85800312Y-121072542D02*
X85514598Y-120929685D01*
X85514598Y-120929685D02*
X85228884Y-120929685D01*
X85228884Y-120929685D02*
X84800312Y-121072542D01*
X84800312Y-121072542D02*
X83086026Y-122786828D01*
X83086026Y-122786828D02*
X83086026Y-120929685D01*
X83086026Y-118072542D02*
X83086026Y-119786828D01*
X83086026Y-118929685D02*
X86086026Y-118929685D01*
X86086026Y-118929685D02*
X85657455Y-119215399D01*
X85657455Y-119215399D02*
X85371741Y-119501114D01*
X85371741Y-119501114D02*
X85228884Y-119786828D01*
D11*
X217126904Y-105022200D02*
X216984047Y-105069819D01*
X216984047Y-105069819D02*
X216745952Y-105069819D01*
X216745952Y-105069819D02*
X216650714Y-105022200D01*
X216650714Y-105022200D02*
X216603095Y-104974580D01*
X216603095Y-104974580D02*
X216555476Y-104879342D01*
X216555476Y-104879342D02*
X216555476Y-104784104D01*
X216555476Y-104784104D02*
X216603095Y-104688866D01*
X216603095Y-104688866D02*
X216650714Y-104641247D01*
X216650714Y-104641247D02*
X216745952Y-104593628D01*
X216745952Y-104593628D02*
X216936428Y-104546009D01*
X216936428Y-104546009D02*
X217031666Y-104498390D01*
X217031666Y-104498390D02*
X217079285Y-104450771D01*
X217079285Y-104450771D02*
X217126904Y-104355533D01*
X217126904Y-104355533D02*
X217126904Y-104260295D01*
X217126904Y-104260295D02*
X217079285Y-104165057D01*
X217079285Y-104165057D02*
X217031666Y-104117438D01*
X217031666Y-104117438D02*
X216936428Y-104069819D01*
X216936428Y-104069819D02*
X216698333Y-104069819D01*
X216698333Y-104069819D02*
X216555476Y-104117438D01*
X216174523Y-104165057D02*
X216126904Y-104117438D01*
X216126904Y-104117438D02*
X216031666Y-104069819D01*
X216031666Y-104069819D02*
X215793571Y-104069819D01*
X215793571Y-104069819D02*
X215698333Y-104117438D01*
X215698333Y-104117438D02*
X215650714Y-104165057D01*
X215650714Y-104165057D02*
X215603095Y-104260295D01*
X215603095Y-104260295D02*
X215603095Y-104355533D01*
X215603095Y-104355533D02*
X215650714Y-104498390D01*
X215650714Y-104498390D02*
X216222142Y-105069819D01*
X216222142Y-105069819D02*
X215603095Y-105069819D01*
X217126904Y-92957200D02*
X216984047Y-93004819D01*
X216984047Y-93004819D02*
X216745952Y-93004819D01*
X216745952Y-93004819D02*
X216650714Y-92957200D01*
X216650714Y-92957200D02*
X216603095Y-92909580D01*
X216603095Y-92909580D02*
X216555476Y-92814342D01*
X216555476Y-92814342D02*
X216555476Y-92719104D01*
X216555476Y-92719104D02*
X216603095Y-92623866D01*
X216603095Y-92623866D02*
X216650714Y-92576247D01*
X216650714Y-92576247D02*
X216745952Y-92528628D01*
X216745952Y-92528628D02*
X216936428Y-92481009D01*
X216936428Y-92481009D02*
X217031666Y-92433390D01*
X217031666Y-92433390D02*
X217079285Y-92385771D01*
X217079285Y-92385771D02*
X217126904Y-92290533D01*
X217126904Y-92290533D02*
X217126904Y-92195295D01*
X217126904Y-92195295D02*
X217079285Y-92100057D01*
X217079285Y-92100057D02*
X217031666Y-92052438D01*
X217031666Y-92052438D02*
X216936428Y-92004819D01*
X216936428Y-92004819D02*
X216698333Y-92004819D01*
X216698333Y-92004819D02*
X216555476Y-92052438D01*
X215603095Y-93004819D02*
X216174523Y-93004819D01*
X215888809Y-93004819D02*
X215888809Y-92004819D01*
X215888809Y-92004819D02*
X215984047Y-92147676D01*
X215984047Y-92147676D02*
X216079285Y-92242914D01*
X216079285Y-92242914D02*
X216174523Y-92290533D01*
X199849904Y-65436819D02*
X199849904Y-66246342D01*
X199849904Y-66246342D02*
X199802285Y-66341580D01*
X199802285Y-66341580D02*
X199754666Y-66389200D01*
X199754666Y-66389200D02*
X199659428Y-66436819D01*
X199659428Y-66436819D02*
X199468952Y-66436819D01*
X199468952Y-66436819D02*
X199373714Y-66389200D01*
X199373714Y-66389200D02*
X199326095Y-66341580D01*
X199326095Y-66341580D02*
X199278476Y-66246342D01*
X199278476Y-66246342D02*
X199278476Y-65436819D01*
X198849904Y-65532057D02*
X198802285Y-65484438D01*
X198802285Y-65484438D02*
X198707047Y-65436819D01*
X198707047Y-65436819D02*
X198468952Y-65436819D01*
X198468952Y-65436819D02*
X198373714Y-65484438D01*
X198373714Y-65484438D02*
X198326095Y-65532057D01*
X198326095Y-65532057D02*
X198278476Y-65627295D01*
X198278476Y-65627295D02*
X198278476Y-65722533D01*
X198278476Y-65722533D02*
X198326095Y-65865390D01*
X198326095Y-65865390D02*
X198897523Y-66436819D01*
X198897523Y-66436819D02*
X198278476Y-66436819D01*
X215464819Y-35885333D02*
X214988628Y-35552000D01*
X215464819Y-35313905D02*
X214464819Y-35313905D01*
X214464819Y-35313905D02*
X214464819Y-35694857D01*
X214464819Y-35694857D02*
X214512438Y-35790095D01*
X214512438Y-35790095D02*
X214560057Y-35837714D01*
X214560057Y-35837714D02*
X214655295Y-35885333D01*
X214655295Y-35885333D02*
X214798152Y-35885333D01*
X214798152Y-35885333D02*
X214893390Y-35837714D01*
X214893390Y-35837714D02*
X214941009Y-35790095D01*
X214941009Y-35790095D02*
X214988628Y-35694857D01*
X214988628Y-35694857D02*
X214988628Y-35313905D01*
X214560057Y-36266286D02*
X214512438Y-36313905D01*
X214512438Y-36313905D02*
X214464819Y-36409143D01*
X214464819Y-36409143D02*
X214464819Y-36647238D01*
X214464819Y-36647238D02*
X214512438Y-36742476D01*
X214512438Y-36742476D02*
X214560057Y-36790095D01*
X214560057Y-36790095D02*
X214655295Y-36837714D01*
X214655295Y-36837714D02*
X214750533Y-36837714D01*
X214750533Y-36837714D02*
X214893390Y-36790095D01*
X214893390Y-36790095D02*
X215464819Y-36218667D01*
X215464819Y-36218667D02*
X215464819Y-36837714D01*
X219651966Y-29217580D02*
X219699585Y-29265200D01*
X219699585Y-29265200D02*
X219842442Y-29312819D01*
X219842442Y-29312819D02*
X219937680Y-29312819D01*
X219937680Y-29312819D02*
X220080537Y-29265200D01*
X220080537Y-29265200D02*
X220175775Y-29169961D01*
X220175775Y-29169961D02*
X220223394Y-29074723D01*
X220223394Y-29074723D02*
X220271013Y-28884247D01*
X220271013Y-28884247D02*
X220271013Y-28741390D01*
X220271013Y-28741390D02*
X220223394Y-28550914D01*
X220223394Y-28550914D02*
X220175775Y-28455676D01*
X220175775Y-28455676D02*
X220080537Y-28360438D01*
X220080537Y-28360438D02*
X219937680Y-28312819D01*
X219937680Y-28312819D02*
X219842442Y-28312819D01*
X219842442Y-28312819D02*
X219699585Y-28360438D01*
X219699585Y-28360438D02*
X219651966Y-28408057D01*
X218699585Y-29312819D02*
X219271013Y-29312819D01*
X218985299Y-29312819D02*
X218985299Y-28312819D01*
X218985299Y-28312819D02*
X219080537Y-28455676D01*
X219080537Y-28455676D02*
X219175775Y-28550914D01*
X219175775Y-28550914D02*
X219271013Y-28598533D01*
X169232966Y-44203580D02*
X169280585Y-44251200D01*
X169280585Y-44251200D02*
X169423442Y-44298819D01*
X169423442Y-44298819D02*
X169518680Y-44298819D01*
X169518680Y-44298819D02*
X169661537Y-44251200D01*
X169661537Y-44251200D02*
X169756775Y-44155961D01*
X169756775Y-44155961D02*
X169804394Y-44060723D01*
X169804394Y-44060723D02*
X169852013Y-43870247D01*
X169852013Y-43870247D02*
X169852013Y-43727390D01*
X169852013Y-43727390D02*
X169804394Y-43536914D01*
X169804394Y-43536914D02*
X169756775Y-43441676D01*
X169756775Y-43441676D02*
X169661537Y-43346438D01*
X169661537Y-43346438D02*
X169518680Y-43298819D01*
X169518680Y-43298819D02*
X169423442Y-43298819D01*
X169423442Y-43298819D02*
X169280585Y-43346438D01*
X169280585Y-43346438D02*
X169232966Y-43394057D01*
X168852013Y-43394057D02*
X168804394Y-43346438D01*
X168804394Y-43346438D02*
X168709156Y-43298819D01*
X168709156Y-43298819D02*
X168471061Y-43298819D01*
X168471061Y-43298819D02*
X168375823Y-43346438D01*
X168375823Y-43346438D02*
X168328204Y-43394057D01*
X168328204Y-43394057D02*
X168280585Y-43489295D01*
X168280585Y-43489295D02*
X168280585Y-43584533D01*
X168280585Y-43584533D02*
X168328204Y-43727390D01*
X168328204Y-43727390D02*
X168899632Y-44298819D01*
X168899632Y-44298819D02*
X168280585Y-44298819D01*
X221744057Y-34956761D02*
X221696438Y-34861523D01*
X221696438Y-34861523D02*
X221601200Y-34766285D01*
X221601200Y-34766285D02*
X221458342Y-34623428D01*
X221458342Y-34623428D02*
X221410723Y-34528190D01*
X221410723Y-34528190D02*
X221410723Y-34432952D01*
X221648819Y-34480571D02*
X221601200Y-34385333D01*
X221601200Y-34385333D02*
X221505961Y-34290095D01*
X221505961Y-34290095D02*
X221315485Y-34242476D01*
X221315485Y-34242476D02*
X220982152Y-34242476D01*
X220982152Y-34242476D02*
X220791676Y-34290095D01*
X220791676Y-34290095D02*
X220696438Y-34385333D01*
X220696438Y-34385333D02*
X220648819Y-34480571D01*
X220648819Y-34480571D02*
X220648819Y-34671047D01*
X220648819Y-34671047D02*
X220696438Y-34766285D01*
X220696438Y-34766285D02*
X220791676Y-34861523D01*
X220791676Y-34861523D02*
X220982152Y-34909142D01*
X220982152Y-34909142D02*
X221315485Y-34909142D01*
X221315485Y-34909142D02*
X221505961Y-34861523D01*
X221505961Y-34861523D02*
X221601200Y-34766285D01*
X221601200Y-34766285D02*
X221648819Y-34671047D01*
X221648819Y-34671047D02*
X221648819Y-34480571D01*
X221648819Y-35861523D02*
X221648819Y-35290095D01*
X221648819Y-35575809D02*
X220648819Y-35575809D01*
X220648819Y-35575809D02*
X220791676Y-35480571D01*
X220791676Y-35480571D02*
X220886914Y-35385333D01*
X220886914Y-35385333D02*
X220934533Y-35290095D01*
X121303166Y-103327580D02*
X121350785Y-103375200D01*
X121350785Y-103375200D02*
X121493642Y-103422819D01*
X121493642Y-103422819D02*
X121588880Y-103422819D01*
X121588880Y-103422819D02*
X121731737Y-103375200D01*
X121731737Y-103375200D02*
X121826975Y-103279961D01*
X121826975Y-103279961D02*
X121874594Y-103184723D01*
X121874594Y-103184723D02*
X121922213Y-102994247D01*
X121922213Y-102994247D02*
X121922213Y-102851390D01*
X121922213Y-102851390D02*
X121874594Y-102660914D01*
X121874594Y-102660914D02*
X121826975Y-102565676D01*
X121826975Y-102565676D02*
X121731737Y-102470438D01*
X121731737Y-102470438D02*
X121588880Y-102422819D01*
X121588880Y-102422819D02*
X121493642Y-102422819D01*
X121493642Y-102422819D02*
X121350785Y-102470438D01*
X121350785Y-102470438D02*
X121303166Y-102518057D01*
X120446023Y-102422819D02*
X120636499Y-102422819D01*
X120636499Y-102422819D02*
X120731737Y-102470438D01*
X120731737Y-102470438D02*
X120779356Y-102518057D01*
X120779356Y-102518057D02*
X120874594Y-102660914D01*
X120874594Y-102660914D02*
X120922213Y-102851390D01*
X120922213Y-102851390D02*
X120922213Y-103232342D01*
X120922213Y-103232342D02*
X120874594Y-103327580D01*
X120874594Y-103327580D02*
X120826975Y-103375200D01*
X120826975Y-103375200D02*
X120731737Y-103422819D01*
X120731737Y-103422819D02*
X120541261Y-103422819D01*
X120541261Y-103422819D02*
X120446023Y-103375200D01*
X120446023Y-103375200D02*
X120398404Y-103327580D01*
X120398404Y-103327580D02*
X120350785Y-103232342D01*
X120350785Y-103232342D02*
X120350785Y-102994247D01*
X120350785Y-102994247D02*
X120398404Y-102899009D01*
X120398404Y-102899009D02*
X120446023Y-102851390D01*
X120446023Y-102851390D02*
X120541261Y-102803771D01*
X120541261Y-102803771D02*
X120731737Y-102803771D01*
X120731737Y-102803771D02*
X120826975Y-102851390D01*
X120826975Y-102851390D02*
X120874594Y-102899009D01*
X120874594Y-102899009D02*
X120922213Y-102994247D01*
X171087166Y-115011580D02*
X171134785Y-115059200D01*
X171134785Y-115059200D02*
X171277642Y-115106819D01*
X171277642Y-115106819D02*
X171372880Y-115106819D01*
X171372880Y-115106819D02*
X171515737Y-115059200D01*
X171515737Y-115059200D02*
X171610975Y-114963961D01*
X171610975Y-114963961D02*
X171658594Y-114868723D01*
X171658594Y-114868723D02*
X171706213Y-114678247D01*
X171706213Y-114678247D02*
X171706213Y-114535390D01*
X171706213Y-114535390D02*
X171658594Y-114344914D01*
X171658594Y-114344914D02*
X171610975Y-114249676D01*
X171610975Y-114249676D02*
X171515737Y-114154438D01*
X171515737Y-114154438D02*
X171372880Y-114106819D01*
X171372880Y-114106819D02*
X171277642Y-114106819D01*
X171277642Y-114106819D02*
X171134785Y-114154438D01*
X171134785Y-114154438D02*
X171087166Y-114202057D01*
X170753832Y-114106819D02*
X170087166Y-114106819D01*
X170087166Y-114106819D02*
X170515737Y-115106819D01*
X221125166Y-129997580D02*
X221172785Y-130045200D01*
X221172785Y-130045200D02*
X221315642Y-130092819D01*
X221315642Y-130092819D02*
X221410880Y-130092819D01*
X221410880Y-130092819D02*
X221553737Y-130045200D01*
X221553737Y-130045200D02*
X221648975Y-129949961D01*
X221648975Y-129949961D02*
X221696594Y-129854723D01*
X221696594Y-129854723D02*
X221744213Y-129664247D01*
X221744213Y-129664247D02*
X221744213Y-129521390D01*
X221744213Y-129521390D02*
X221696594Y-129330914D01*
X221696594Y-129330914D02*
X221648975Y-129235676D01*
X221648975Y-129235676D02*
X221553737Y-129140438D01*
X221553737Y-129140438D02*
X221410880Y-129092819D01*
X221410880Y-129092819D02*
X221315642Y-129092819D01*
X221315642Y-129092819D02*
X221172785Y-129140438D01*
X221172785Y-129140438D02*
X221125166Y-129188057D01*
X220553737Y-129521390D02*
X220648975Y-129473771D01*
X220648975Y-129473771D02*
X220696594Y-129426152D01*
X220696594Y-129426152D02*
X220744213Y-129330914D01*
X220744213Y-129330914D02*
X220744213Y-129283295D01*
X220744213Y-129283295D02*
X220696594Y-129188057D01*
X220696594Y-129188057D02*
X220648975Y-129140438D01*
X220648975Y-129140438D02*
X220553737Y-129092819D01*
X220553737Y-129092819D02*
X220363261Y-129092819D01*
X220363261Y-129092819D02*
X220268023Y-129140438D01*
X220268023Y-129140438D02*
X220220404Y-129188057D01*
X220220404Y-129188057D02*
X220172785Y-129283295D01*
X220172785Y-129283295D02*
X220172785Y-129330914D01*
X220172785Y-129330914D02*
X220220404Y-129426152D01*
X220220404Y-129426152D02*
X220268023Y-129473771D01*
X220268023Y-129473771D02*
X220363261Y-129521390D01*
X220363261Y-129521390D02*
X220553737Y-129521390D01*
X220553737Y-129521390D02*
X220648975Y-129569009D01*
X220648975Y-129569009D02*
X220696594Y-129616628D01*
X220696594Y-129616628D02*
X220744213Y-129711866D01*
X220744213Y-129711866D02*
X220744213Y-129902342D01*
X220744213Y-129902342D02*
X220696594Y-129997580D01*
X220696594Y-129997580D02*
X220648975Y-130045200D01*
X220648975Y-130045200D02*
X220553737Y-130092819D01*
X220553737Y-130092819D02*
X220363261Y-130092819D01*
X220363261Y-130092819D02*
X220268023Y-130045200D01*
X220268023Y-130045200D02*
X220220404Y-129997580D01*
X220220404Y-129997580D02*
X220172785Y-129902342D01*
X220172785Y-129902342D02*
X220172785Y-129711866D01*
X220172785Y-129711866D02*
X220220404Y-129616628D01*
X220220404Y-129616628D02*
X220268023Y-129569009D01*
X220268023Y-129569009D02*
X220363261Y-129521390D01*
X221130666Y-89228819D02*
X221463999Y-88752628D01*
X221702094Y-89228819D02*
X221702094Y-88228819D01*
X221702094Y-88228819D02*
X221321142Y-88228819D01*
X221321142Y-88228819D02*
X221225904Y-88276438D01*
X221225904Y-88276438D02*
X221178285Y-88324057D01*
X221178285Y-88324057D02*
X221130666Y-88419295D01*
X221130666Y-88419295D02*
X221130666Y-88562152D01*
X221130666Y-88562152D02*
X221178285Y-88657390D01*
X221178285Y-88657390D02*
X221225904Y-88705009D01*
X221225904Y-88705009D02*
X221321142Y-88752628D01*
X221321142Y-88752628D02*
X221702094Y-88752628D01*
X220797332Y-88228819D02*
X220178285Y-88228819D01*
X220178285Y-88228819D02*
X220511618Y-88609771D01*
X220511618Y-88609771D02*
X220368761Y-88609771D01*
X220368761Y-88609771D02*
X220273523Y-88657390D01*
X220273523Y-88657390D02*
X220225904Y-88705009D01*
X220225904Y-88705009D02*
X220178285Y-88800247D01*
X220178285Y-88800247D02*
X220178285Y-89038342D01*
X220178285Y-89038342D02*
X220225904Y-89133580D01*
X220225904Y-89133580D02*
X220273523Y-89181200D01*
X220273523Y-89181200D02*
X220368761Y-89228819D01*
X220368761Y-89228819D02*
X220654475Y-89228819D01*
X220654475Y-89228819D02*
X220749713Y-89181200D01*
X220749713Y-89181200D02*
X220797332Y-89133580D01*
X83370380Y-78036033D02*
X83418000Y-77988414D01*
X83418000Y-77988414D02*
X83465619Y-77845557D01*
X83465619Y-77845557D02*
X83465619Y-77750319D01*
X83465619Y-77750319D02*
X83418000Y-77607462D01*
X83418000Y-77607462D02*
X83322761Y-77512224D01*
X83322761Y-77512224D02*
X83227523Y-77464605D01*
X83227523Y-77464605D02*
X83037047Y-77416986D01*
X83037047Y-77416986D02*
X82894190Y-77416986D01*
X82894190Y-77416986D02*
X82703714Y-77464605D01*
X82703714Y-77464605D02*
X82608476Y-77512224D01*
X82608476Y-77512224D02*
X82513238Y-77607462D01*
X82513238Y-77607462D02*
X82465619Y-77750319D01*
X82465619Y-77750319D02*
X82465619Y-77845557D01*
X82465619Y-77845557D02*
X82513238Y-77988414D01*
X82513238Y-77988414D02*
X82560857Y-78036033D01*
X82798952Y-78893176D02*
X83465619Y-78893176D01*
X82418000Y-78655081D02*
X83132285Y-78416986D01*
X83132285Y-78416986D02*
X83132285Y-79036033D01*
X215416666Y-68929580D02*
X215464285Y-68977200D01*
X215464285Y-68977200D02*
X215607142Y-69024819D01*
X215607142Y-69024819D02*
X215702380Y-69024819D01*
X215702380Y-69024819D02*
X215845237Y-68977200D01*
X215845237Y-68977200D02*
X215940475Y-68881961D01*
X215940475Y-68881961D02*
X215988094Y-68786723D01*
X215988094Y-68786723D02*
X216035713Y-68596247D01*
X216035713Y-68596247D02*
X216035713Y-68453390D01*
X216035713Y-68453390D02*
X215988094Y-68262914D01*
X215988094Y-68262914D02*
X215940475Y-68167676D01*
X215940475Y-68167676D02*
X215845237Y-68072438D01*
X215845237Y-68072438D02*
X215702380Y-68024819D01*
X215702380Y-68024819D02*
X215607142Y-68024819D01*
X215607142Y-68024819D02*
X215464285Y-68072438D01*
X215464285Y-68072438D02*
X215416666Y-68120057D01*
X214511904Y-68024819D02*
X214988094Y-68024819D01*
X214988094Y-68024819D02*
X215035713Y-68501009D01*
X215035713Y-68501009D02*
X214988094Y-68453390D01*
X214988094Y-68453390D02*
X214892856Y-68405771D01*
X214892856Y-68405771D02*
X214654761Y-68405771D01*
X214654761Y-68405771D02*
X214559523Y-68453390D01*
X214559523Y-68453390D02*
X214511904Y-68501009D01*
X214511904Y-68501009D02*
X214464285Y-68596247D01*
X214464285Y-68596247D02*
X214464285Y-68834342D01*
X214464285Y-68834342D02*
X214511904Y-68929580D01*
X214511904Y-68929580D02*
X214559523Y-68977200D01*
X214559523Y-68977200D02*
X214654761Y-69024819D01*
X214654761Y-69024819D02*
X214892856Y-69024819D01*
X214892856Y-69024819D02*
X214988094Y-68977200D01*
X214988094Y-68977200D02*
X215035713Y-68929580D01*
X218876666Y-37920819D02*
X219209999Y-37444628D01*
X219448094Y-37920819D02*
X219448094Y-36920819D01*
X219448094Y-36920819D02*
X219067142Y-36920819D01*
X219067142Y-36920819D02*
X218971904Y-36968438D01*
X218971904Y-36968438D02*
X218924285Y-37016057D01*
X218924285Y-37016057D02*
X218876666Y-37111295D01*
X218876666Y-37111295D02*
X218876666Y-37254152D01*
X218876666Y-37254152D02*
X218924285Y-37349390D01*
X218924285Y-37349390D02*
X218971904Y-37397009D01*
X218971904Y-37397009D02*
X219067142Y-37444628D01*
X219067142Y-37444628D02*
X219448094Y-37444628D01*
X217924285Y-37920819D02*
X218495713Y-37920819D01*
X218209999Y-37920819D02*
X218209999Y-36920819D01*
X218209999Y-36920819D02*
X218305237Y-37063676D01*
X218305237Y-37063676D02*
X218400475Y-37158914D01*
X218400475Y-37158914D02*
X218495713Y-37206533D01*
X119448966Y-55887580D02*
X119496585Y-55935200D01*
X119496585Y-55935200D02*
X119639442Y-55982819D01*
X119639442Y-55982819D02*
X119734680Y-55982819D01*
X119734680Y-55982819D02*
X119877537Y-55935200D01*
X119877537Y-55935200D02*
X119972775Y-55839961D01*
X119972775Y-55839961D02*
X120020394Y-55744723D01*
X120020394Y-55744723D02*
X120068013Y-55554247D01*
X120068013Y-55554247D02*
X120068013Y-55411390D01*
X120068013Y-55411390D02*
X120020394Y-55220914D01*
X120020394Y-55220914D02*
X119972775Y-55125676D01*
X119972775Y-55125676D02*
X119877537Y-55030438D01*
X119877537Y-55030438D02*
X119734680Y-54982819D01*
X119734680Y-54982819D02*
X119639442Y-54982819D01*
X119639442Y-54982819D02*
X119496585Y-55030438D01*
X119496585Y-55030438D02*
X119448966Y-55078057D01*
X119115632Y-54982819D02*
X118496585Y-54982819D01*
X118496585Y-54982819D02*
X118829918Y-55363771D01*
X118829918Y-55363771D02*
X118687061Y-55363771D01*
X118687061Y-55363771D02*
X118591823Y-55411390D01*
X118591823Y-55411390D02*
X118544204Y-55459009D01*
X118544204Y-55459009D02*
X118496585Y-55554247D01*
X118496585Y-55554247D02*
X118496585Y-55792342D01*
X118496585Y-55792342D02*
X118544204Y-55887580D01*
X118544204Y-55887580D02*
X118591823Y-55935200D01*
X118591823Y-55935200D02*
X118687061Y-55982819D01*
X118687061Y-55982819D02*
X118972775Y-55982819D01*
X118972775Y-55982819D02*
X119068013Y-55935200D01*
X119068013Y-55935200D02*
X119115632Y-55887580D01*
X221130666Y-101420819D02*
X221463999Y-100944628D01*
X221702094Y-101420819D02*
X221702094Y-100420819D01*
X221702094Y-100420819D02*
X221321142Y-100420819D01*
X221321142Y-100420819D02*
X221225904Y-100468438D01*
X221225904Y-100468438D02*
X221178285Y-100516057D01*
X221178285Y-100516057D02*
X221130666Y-100611295D01*
X221130666Y-100611295D02*
X221130666Y-100754152D01*
X221130666Y-100754152D02*
X221178285Y-100849390D01*
X221178285Y-100849390D02*
X221225904Y-100897009D01*
X221225904Y-100897009D02*
X221321142Y-100944628D01*
X221321142Y-100944628D02*
X221702094Y-100944628D01*
X220273523Y-100754152D02*
X220273523Y-101420819D01*
X220511618Y-100373200D02*
X220749713Y-101087485D01*
X220749713Y-101087485D02*
X220130666Y-101087485D01*
X216288857Y-89005580D02*
X216336476Y-89053200D01*
X216336476Y-89053200D02*
X216479333Y-89100819D01*
X216479333Y-89100819D02*
X216574571Y-89100819D01*
X216574571Y-89100819D02*
X216717428Y-89053200D01*
X216717428Y-89053200D02*
X216812666Y-88957961D01*
X216812666Y-88957961D02*
X216860285Y-88862723D01*
X216860285Y-88862723D02*
X216907904Y-88672247D01*
X216907904Y-88672247D02*
X216907904Y-88529390D01*
X216907904Y-88529390D02*
X216860285Y-88338914D01*
X216860285Y-88338914D02*
X216812666Y-88243676D01*
X216812666Y-88243676D02*
X216717428Y-88148438D01*
X216717428Y-88148438D02*
X216574571Y-88100819D01*
X216574571Y-88100819D02*
X216479333Y-88100819D01*
X216479333Y-88100819D02*
X216336476Y-88148438D01*
X216336476Y-88148438D02*
X216288857Y-88196057D01*
X215336476Y-89100819D02*
X215907904Y-89100819D01*
X215622190Y-89100819D02*
X215622190Y-88100819D01*
X215622190Y-88100819D02*
X215717428Y-88243676D01*
X215717428Y-88243676D02*
X215812666Y-88338914D01*
X215812666Y-88338914D02*
X215907904Y-88386533D01*
X214384095Y-89100819D02*
X214955523Y-89100819D01*
X214669809Y-89100819D02*
X214669809Y-88100819D01*
X214669809Y-88100819D02*
X214765047Y-88243676D01*
X214765047Y-88243676D02*
X214860285Y-88338914D01*
X214860285Y-88338914D02*
X214955523Y-88386533D01*
X215892857Y-71179580D02*
X215940476Y-71227200D01*
X215940476Y-71227200D02*
X216083333Y-71274819D01*
X216083333Y-71274819D02*
X216178571Y-71274819D01*
X216178571Y-71274819D02*
X216321428Y-71227200D01*
X216321428Y-71227200D02*
X216416666Y-71131961D01*
X216416666Y-71131961D02*
X216464285Y-71036723D01*
X216464285Y-71036723D02*
X216511904Y-70846247D01*
X216511904Y-70846247D02*
X216511904Y-70703390D01*
X216511904Y-70703390D02*
X216464285Y-70512914D01*
X216464285Y-70512914D02*
X216416666Y-70417676D01*
X216416666Y-70417676D02*
X216321428Y-70322438D01*
X216321428Y-70322438D02*
X216178571Y-70274819D01*
X216178571Y-70274819D02*
X216083333Y-70274819D01*
X216083333Y-70274819D02*
X215940476Y-70322438D01*
X215940476Y-70322438D02*
X215892857Y-70370057D01*
X214940476Y-71274819D02*
X215511904Y-71274819D01*
X215226190Y-71274819D02*
X215226190Y-70274819D01*
X215226190Y-70274819D02*
X215321428Y-70417676D01*
X215321428Y-70417676D02*
X215416666Y-70512914D01*
X215416666Y-70512914D02*
X215511904Y-70560533D01*
X214607142Y-70274819D02*
X213988095Y-70274819D01*
X213988095Y-70274819D02*
X214321428Y-70655771D01*
X214321428Y-70655771D02*
X214178571Y-70655771D01*
X214178571Y-70655771D02*
X214083333Y-70703390D01*
X214083333Y-70703390D02*
X214035714Y-70751009D01*
X214035714Y-70751009D02*
X213988095Y-70846247D01*
X213988095Y-70846247D02*
X213988095Y-71084342D01*
X213988095Y-71084342D02*
X214035714Y-71179580D01*
X214035714Y-71179580D02*
X214083333Y-71227200D01*
X214083333Y-71227200D02*
X214178571Y-71274819D01*
X214178571Y-71274819D02*
X214464285Y-71274819D01*
X214464285Y-71274819D02*
X214559523Y-71227200D01*
X214559523Y-71227200D02*
X214607142Y-71179580D01*
X185138333Y-67669819D02*
X185138333Y-68384104D01*
X185138333Y-68384104D02*
X185185952Y-68526961D01*
X185185952Y-68526961D02*
X185281190Y-68622200D01*
X185281190Y-68622200D02*
X185424047Y-68669819D01*
X185424047Y-68669819D02*
X185519285Y-68669819D01*
X184185952Y-67669819D02*
X184662142Y-67669819D01*
X184662142Y-67669819D02*
X184709761Y-68146009D01*
X184709761Y-68146009D02*
X184662142Y-68098390D01*
X184662142Y-68098390D02*
X184566904Y-68050771D01*
X184566904Y-68050771D02*
X184328809Y-68050771D01*
X184328809Y-68050771D02*
X184233571Y-68098390D01*
X184233571Y-68098390D02*
X184185952Y-68146009D01*
X184185952Y-68146009D02*
X184138333Y-68241247D01*
X184138333Y-68241247D02*
X184138333Y-68479342D01*
X184138333Y-68479342D02*
X184185952Y-68574580D01*
X184185952Y-68574580D02*
X184233571Y-68622200D01*
X184233571Y-68622200D02*
X184328809Y-68669819D01*
X184328809Y-68669819D02*
X184566904Y-68669819D01*
X184566904Y-68669819D02*
X184662142Y-68622200D01*
X184662142Y-68622200D02*
X184709761Y-68574580D01*
X215892857Y-66679580D02*
X215940476Y-66727200D01*
X215940476Y-66727200D02*
X216083333Y-66774819D01*
X216083333Y-66774819D02*
X216178571Y-66774819D01*
X216178571Y-66774819D02*
X216321428Y-66727200D01*
X216321428Y-66727200D02*
X216416666Y-66631961D01*
X216416666Y-66631961D02*
X216464285Y-66536723D01*
X216464285Y-66536723D02*
X216511904Y-66346247D01*
X216511904Y-66346247D02*
X216511904Y-66203390D01*
X216511904Y-66203390D02*
X216464285Y-66012914D01*
X216464285Y-66012914D02*
X216416666Y-65917676D01*
X216416666Y-65917676D02*
X216321428Y-65822438D01*
X216321428Y-65822438D02*
X216178571Y-65774819D01*
X216178571Y-65774819D02*
X216083333Y-65774819D01*
X216083333Y-65774819D02*
X215940476Y-65822438D01*
X215940476Y-65822438D02*
X215892857Y-65870057D01*
X214940476Y-66774819D02*
X215511904Y-66774819D01*
X215226190Y-66774819D02*
X215226190Y-65774819D01*
X215226190Y-65774819D02*
X215321428Y-65917676D01*
X215321428Y-65917676D02*
X215416666Y-66012914D01*
X215416666Y-66012914D02*
X215511904Y-66060533D01*
X214559523Y-65870057D02*
X214511904Y-65822438D01*
X214511904Y-65822438D02*
X214416666Y-65774819D01*
X214416666Y-65774819D02*
X214178571Y-65774819D01*
X214178571Y-65774819D02*
X214083333Y-65822438D01*
X214083333Y-65822438D02*
X214035714Y-65870057D01*
X214035714Y-65870057D02*
X213988095Y-65965295D01*
X213988095Y-65965295D02*
X213988095Y-66060533D01*
X213988095Y-66060533D02*
X214035714Y-66203390D01*
X214035714Y-66203390D02*
X214607142Y-66774819D01*
X214607142Y-66774819D02*
X213988095Y-66774819D01*
D12*
%TO.C,S2*%
X219635000Y-105925000D02*
X219635000Y-105465000D01*
X220635000Y-105925000D02*
X219635000Y-105925000D01*
X219635000Y-109165000D02*
X219635000Y-108705000D01*
X213435000Y-109165000D02*
X219635000Y-109165000D01*
X219635000Y-105465000D02*
X213435000Y-105465000D01*
X213435000Y-105925000D02*
X213435000Y-105465000D01*
X213435000Y-109165000D02*
X213435000Y-108705000D01*
X218035000Y-106765000D02*
X215185000Y-106765000D01*
X215185000Y-107815000D01*
X218035000Y-107815000D01*
X218035000Y-106765000D01*
%TO.C,S1*%
X218035000Y-94700000D02*
X215185000Y-94700000D01*
X215185000Y-95750000D01*
X218035000Y-95750000D01*
X218035000Y-94700000D01*
X213435000Y-97100000D02*
X213435000Y-96640000D01*
X213435000Y-93860000D02*
X213435000Y-93400000D01*
X219635000Y-93400000D02*
X213435000Y-93400000D01*
X213435000Y-97100000D02*
X219635000Y-97100000D01*
X219635000Y-97100000D02*
X219635000Y-96640000D01*
X220635000Y-93860000D02*
X219635000Y-93860000D01*
X219635000Y-93860000D02*
X219635000Y-93400000D01*
%TO.C,U2*%
X197638000Y-46252000D02*
X197638000Y-47252000D01*
X197638000Y-64492000D02*
X197638000Y-63492000D01*
X198418000Y-46252000D02*
X197638000Y-46252000D01*
X198418000Y-64492000D02*
X197638000Y-64492000D01*
X216963000Y-64492000D02*
X216963000Y-64872000D01*
X223383000Y-46252000D02*
X216963000Y-46252000D01*
X223383000Y-64492000D02*
X216963000Y-64492000D01*
X223383000Y-64492000D02*
X223383000Y-46252000D01*
%TO.C,R2*%
X212625000Y-36279064D02*
X212625000Y-35824936D01*
X214095000Y-36279064D02*
X214095000Y-35824936D01*
%TO.C,C1*%
X219224048Y-26443000D02*
X219746552Y-26443000D01*
X219224048Y-27913000D02*
X219746552Y-27913000D01*
%TO.C,C2*%
X168805048Y-41429000D02*
X169327552Y-41429000D01*
X168805048Y-42899000D02*
X169327552Y-42899000D01*
%TO.C,Q1*%
X217114000Y-34292000D02*
X217114000Y-35752000D01*
X217114000Y-34292000D02*
X218044000Y-34292000D01*
X220274000Y-34292000D02*
X219344000Y-34292000D01*
X220274000Y-34292000D02*
X220274000Y-36452000D01*
%TO.C,C6*%
X121397752Y-103913000D02*
X120875248Y-103913000D01*
X121397752Y-105383000D02*
X120875248Y-105383000D01*
%TO.C,C7*%
X171181752Y-115597000D02*
X170659248Y-115597000D01*
X171181752Y-117067000D02*
X170659248Y-117067000D01*
%TO.C,C8*%
X221219752Y-130583000D02*
X220697248Y-130583000D01*
X221219752Y-132053000D02*
X220697248Y-132053000D01*
%TO.C,R3*%
X221191064Y-89689000D02*
X220736936Y-89689000D01*
X221191064Y-91159000D02*
X220736936Y-91159000D01*
%TO.C,C4*%
X80595800Y-78463952D02*
X80595800Y-77941448D01*
X82065800Y-78463952D02*
X82065800Y-77941448D01*
%TO.C,C5*%
X215511252Y-69515000D02*
X214988748Y-69515000D01*
X215511252Y-70985000D02*
X214988748Y-70985000D01*
%TO.C,R1*%
X218937064Y-38381000D02*
X218482936Y-38381000D01*
X218937064Y-39851000D02*
X218482936Y-39851000D01*
%TO.C,C3*%
X119021048Y-53113000D02*
X119543552Y-53113000D01*
X119021048Y-54583000D02*
X119543552Y-54583000D01*
%TO.C,R4*%
X221191064Y-101881000D02*
X220736936Y-101881000D01*
X221191064Y-103351000D02*
X220736936Y-103351000D01*
%TO.C,C11*%
X215363248Y-89689000D02*
X215885752Y-89689000D01*
X215363248Y-91159000D02*
X215885752Y-91159000D01*
%TO.C,C13*%
X214988748Y-71765000D02*
X215511252Y-71765000D01*
X214988748Y-73235000D02*
X215511252Y-73235000D01*
%TO.C,J5*%
X179095000Y-56495000D02*
X179095000Y-66775000D01*
X187725000Y-56495000D02*
X179095000Y-56495000D01*
X187725000Y-56495000D02*
X187725000Y-66775000D01*
X187725000Y-59095000D02*
X179095000Y-59095000D01*
X187725000Y-61635000D02*
X179095000Y-61635000D01*
X187725000Y-64175000D02*
X179095000Y-64175000D01*
X187725000Y-64293100D02*
X179095000Y-64293100D01*
X187725000Y-64411195D02*
X179095000Y-64411195D01*
X187725000Y-64529290D02*
X179095000Y-64529290D01*
X187725000Y-64647385D02*
X179095000Y-64647385D01*
X187725000Y-64765480D02*
X179095000Y-64765480D01*
X187725000Y-64883575D02*
X179095000Y-64883575D01*
X187725000Y-65001670D02*
X179095000Y-65001670D01*
X187725000Y-65119765D02*
X179095000Y-65119765D01*
X187725000Y-65237860D02*
X179095000Y-65237860D01*
X187725000Y-65355955D02*
X179095000Y-65355955D01*
X187725000Y-65474050D02*
X179095000Y-65474050D01*
X187725000Y-65592145D02*
X179095000Y-65592145D01*
X187725000Y-65710240D02*
X179095000Y-65710240D01*
X187725000Y-65828335D02*
X179095000Y-65828335D01*
X187725000Y-65946430D02*
X179095000Y-65946430D01*
X187725000Y-66064525D02*
X179095000Y-66064525D01*
X187725000Y-66182620D02*
X179095000Y-66182620D01*
X187725000Y-66300715D02*
X179095000Y-66300715D01*
X187725000Y-66418810D02*
X179095000Y-66418810D01*
X187725000Y-66536905D02*
X179095000Y-66536905D01*
X187725000Y-66655000D02*
X179095000Y-66655000D01*
X187725000Y-66775000D02*
X179095000Y-66775000D01*
X188075000Y-65085000D02*
X187725000Y-65085000D01*
X188075000Y-65805000D02*
X187725000Y-65805000D01*
X188135000Y-57465000D02*
X187725000Y-57465000D01*
X188135000Y-58185000D02*
X187725000Y-58185000D01*
X188135000Y-60005000D02*
X187725000Y-60005000D01*
X188135000Y-60725000D02*
X187725000Y-60725000D01*
X188135000Y-62545000D02*
X187725000Y-62545000D01*
X188135000Y-63265000D02*
X187725000Y-63265000D01*
X190295000Y-65445000D02*
X190295000Y-66775000D01*
X190295000Y-66775000D02*
X189185000Y-66775000D01*
%TO.C,C12*%
X214988748Y-67265000D02*
X215511252Y-67265000D01*
X214988748Y-68735000D02*
X215511252Y-68735000D01*
%TD*%
G36*
X146678512Y-75407202D02*
G01*
X146725005Y-75460858D01*
X146735109Y-75531132D01*
X146732629Y-75543759D01*
X146517768Y-76403199D01*
X146517769Y-76403200D01*
X146878442Y-76231450D01*
X146948545Y-76220221D01*
X147013590Y-76248676D01*
X147052926Y-76307779D01*
X147058521Y-76340367D01*
X147072935Y-76715121D01*
X147055566Y-76783960D01*
X147003737Y-76832481D01*
X146986873Y-76839498D01*
X146771769Y-76911200D01*
X148223843Y-78373085D01*
X148223132Y-78319244D01*
X148242232Y-78250865D01*
X148295268Y-78203666D01*
X148365402Y-78192634D01*
X148430367Y-78221271D01*
X148438516Y-78228783D01*
X148822832Y-78615696D01*
X148838437Y-78634842D01*
X148872505Y-78686202D01*
X148891166Y-78731684D01*
X148900561Y-78779757D01*
X148900395Y-78828923D01*
X148890678Y-78876925D01*
X148871712Y-78922279D01*
X148838071Y-78972262D01*
X148819653Y-78993892D01*
X148237117Y-79539244D01*
X148217519Y-79554275D01*
X148165174Y-79586809D01*
X148119158Y-79604117D01*
X148070830Y-79612085D01*
X148021691Y-79610464D01*
X147973993Y-79599330D01*
X147929219Y-79579031D01*
X147880905Y-79544393D01*
X147859485Y-79524949D01*
X147859038Y-79524438D01*
X147856205Y-79521083D01*
X147525589Y-79115434D01*
X147498056Y-79049994D01*
X147510275Y-78980056D01*
X147558365Y-78927827D01*
X147624419Y-78909836D01*
X147686160Y-78910405D01*
X146263769Y-77165199D01*
X146131627Y-77825911D01*
X146098654Y-77888786D01*
X146036922Y-77923853D01*
X146008074Y-77927200D01*
X145669933Y-77927200D01*
X145601812Y-77907198D01*
X145555319Y-77853542D01*
X145545215Y-77783268D01*
X145549006Y-77765807D01*
X145806568Y-76885800D01*
X144922118Y-77328025D01*
X144852244Y-77340599D01*
X144786664Y-77313400D01*
X144746199Y-77255064D01*
X144739769Y-77215327D01*
X144739769Y-76529200D01*
X144759771Y-76461079D01*
X144813427Y-76414586D01*
X144865769Y-76403200D01*
X145501769Y-76403200D01*
X145501769Y-76403199D01*
X144896261Y-76080262D01*
X144845567Y-76030557D01*
X144829794Y-75961335D01*
X144853949Y-75894573D01*
X144870092Y-75876501D01*
X145300797Y-75478927D01*
X145364419Y-75447419D01*
X145434976Y-75455311D01*
X145484649Y-75492800D01*
X146009769Y-76149200D01*
X146009769Y-75513200D01*
X146029771Y-75445079D01*
X146083427Y-75398586D01*
X146135769Y-75387200D01*
X146610391Y-75387200D01*
X146678512Y-75407202D01*
G37*
G36*
X148133442Y-78755447D02*
G01*
X148181444Y-78765164D01*
X148226798Y-78784130D01*
X148276781Y-78817771D01*
X148298411Y-78836189D01*
X148717698Y-79284065D01*
X148749651Y-79347464D01*
X148745271Y-79389276D01*
X148746296Y-79466622D01*
X148765563Y-79474826D01*
X148768231Y-79473482D01*
X148838842Y-79480874D01*
X148894247Y-79525269D01*
X148915270Y-79576922D01*
X148916604Y-79585014D01*
X148914983Y-79634151D01*
X148903849Y-79681849D01*
X148883550Y-79726623D01*
X148848912Y-79774937D01*
X148829468Y-79796357D01*
X148828957Y-79796804D01*
X148825602Y-79799637D01*
X148432166Y-80120298D01*
X148366725Y-80147831D01*
X148296788Y-80135612D01*
X148244559Y-80087522D01*
X148226568Y-80021468D01*
X148227137Y-79959726D01*
X146469718Y-81392073D01*
X147130430Y-81524216D01*
X147193305Y-81557189D01*
X147228372Y-81618921D01*
X147231719Y-81647769D01*
X147231719Y-81985910D01*
X147211717Y-82054031D01*
X147158061Y-82100524D01*
X147087787Y-82110628D01*
X147070326Y-82106837D01*
X146190319Y-81849274D01*
X146632545Y-82733725D01*
X146645119Y-82803599D01*
X146617920Y-82869179D01*
X146559584Y-82909644D01*
X146519847Y-82916074D01*
X145833719Y-82916074D01*
X145765598Y-82896072D01*
X145719105Y-82842416D01*
X145707719Y-82790074D01*
X145707719Y-82154073D01*
X145707718Y-82154073D01*
X145384781Y-82759581D01*
X145335076Y-82810275D01*
X145265853Y-82826048D01*
X145199092Y-82801893D01*
X145181020Y-82785750D01*
X144783446Y-82355045D01*
X144751938Y-82291423D01*
X144759830Y-82220866D01*
X144797320Y-82171192D01*
X145453719Y-81646074D01*
X144817719Y-81646074D01*
X144749598Y-81626072D01*
X144703105Y-81572416D01*
X144691719Y-81520074D01*
X144691719Y-81045451D01*
X144711721Y-80977330D01*
X144765377Y-80930837D01*
X144835651Y-80920733D01*
X144848279Y-80923213D01*
X145707719Y-81138073D01*
X145535969Y-80777400D01*
X145524740Y-80707297D01*
X145553195Y-80642252D01*
X145612298Y-80602916D01*
X145644886Y-80597321D01*
X146019640Y-80582907D01*
X146088479Y-80600276D01*
X146137000Y-80652105D01*
X146144017Y-80668969D01*
X146215718Y-80884073D01*
X146215719Y-80884073D01*
X147672995Y-79436575D01*
X147619152Y-79437287D01*
X147550773Y-79418186D01*
X147503576Y-79365149D01*
X147492545Y-79295015D01*
X147521182Y-79230050D01*
X147528693Y-79221903D01*
X147920215Y-78833010D01*
X147939361Y-78817405D01*
X147990721Y-78783337D01*
X148036203Y-78764676D01*
X148084276Y-78755281D01*
X148133442Y-78755447D01*
G37*
G36*
X149102994Y-78915214D02*
G01*
X149150692Y-78926348D01*
X149195466Y-78946647D01*
X149243780Y-78981285D01*
X149265200Y-79000729D01*
X149265647Y-79001240D01*
X149268480Y-79004595D01*
X149450692Y-79228160D01*
X149478225Y-79293600D01*
X149466006Y-79363538D01*
X149417916Y-79415767D01*
X149351862Y-79433758D01*
X149290119Y-79433189D01*
X150860916Y-81360479D01*
X150993059Y-80699768D01*
X151026032Y-80636893D01*
X151087764Y-80601826D01*
X151116612Y-80598479D01*
X151454753Y-80598479D01*
X151522874Y-80618481D01*
X151569367Y-80672137D01*
X151579471Y-80742411D01*
X151575680Y-80759872D01*
X151318117Y-81639878D01*
X152202568Y-81197653D01*
X152272442Y-81185079D01*
X152338022Y-81212278D01*
X152378487Y-81270614D01*
X152384917Y-81310351D01*
X152384917Y-81996479D01*
X152364915Y-82064600D01*
X152311259Y-82111093D01*
X152258917Y-82122479D01*
X151622918Y-82122479D01*
X152228424Y-82445415D01*
X152279118Y-82495121D01*
X152294891Y-82564343D01*
X152270736Y-82631105D01*
X152254593Y-82649177D01*
X151823888Y-83046751D01*
X151760266Y-83078259D01*
X151689709Y-83070367D01*
X151640036Y-83032878D01*
X151114917Y-82376479D01*
X151114917Y-83012479D01*
X151094915Y-83080600D01*
X151041259Y-83127093D01*
X150988917Y-83138479D01*
X150514295Y-83138479D01*
X150446174Y-83118477D01*
X150399681Y-83064821D01*
X150389577Y-82994547D01*
X150392057Y-82981920D01*
X150606917Y-82122479D01*
X150606916Y-82122478D01*
X150246243Y-82294228D01*
X150176140Y-82305457D01*
X150111095Y-82277002D01*
X150071759Y-82217898D01*
X150066164Y-82185311D01*
X150051750Y-81810557D01*
X150069119Y-81741718D01*
X150120948Y-81693197D01*
X150137812Y-81686180D01*
X150352916Y-81614478D01*
X148753399Y-80004154D01*
X148754111Y-80057998D01*
X148735010Y-80126377D01*
X148681973Y-80173574D01*
X148611839Y-80184605D01*
X148546874Y-80155968D01*
X148538727Y-80148457D01*
X148301853Y-79909982D01*
X148286248Y-79890836D01*
X148252180Y-79839476D01*
X148233519Y-79793994D01*
X148224124Y-79745921D01*
X148224290Y-79696755D01*
X148234007Y-79648753D01*
X148252973Y-79603399D01*
X148286614Y-79553416D01*
X148305032Y-79531786D01*
X148415712Y-79428171D01*
X148745786Y-79428171D01*
X148746295Y-79466621D01*
X148786961Y-79428551D01*
X148745786Y-79428171D01*
X148415712Y-79428171D01*
X148533423Y-79317974D01*
X148596822Y-79286021D01*
X148610841Y-79287489D01*
X148610236Y-79282986D01*
X148640322Y-79218679D01*
X148648671Y-79210082D01*
X148887567Y-78986434D01*
X148907166Y-78971403D01*
X148959511Y-78938869D01*
X149005527Y-78921561D01*
X149053855Y-78913593D01*
X149102994Y-78915214D01*
G37*
G36*
X148754570Y-78920221D02*
G01*
X148815020Y-78932245D01*
X148860440Y-78951058D01*
X148901165Y-78978269D01*
X148935930Y-79013034D01*
X148963381Y-79054118D01*
X148982029Y-79098721D01*
X148993961Y-79156700D01*
X148996536Y-79180433D01*
X148998138Y-79301664D01*
X148979038Y-79370043D01*
X148933425Y-79410633D01*
X148978297Y-79446589D01*
X149000903Y-79513891D01*
X149000985Y-79517070D01*
X149006731Y-79951898D01*
X148987631Y-80020277D01*
X148934594Y-80067475D01*
X148864460Y-80078507D01*
X148799495Y-80049869D01*
X148791347Y-80042358D01*
X148753399Y-80004154D01*
X148818599Y-84937599D01*
X151739600Y-86436199D01*
X151536889Y-85355074D01*
X151543995Y-85284434D01*
X151588163Y-85228850D01*
X151651068Y-85206225D01*
X151727190Y-85200370D01*
X151796644Y-85215089D01*
X151847115Y-85265021D01*
X151860958Y-85304226D01*
X152095200Y-86639399D01*
X153007079Y-86241913D01*
X153077518Y-86233029D01*
X153141578Y-86263637D01*
X153146522Y-86268322D01*
X153265755Y-86387555D01*
X153299781Y-86449867D01*
X153294716Y-86520682D01*
X153252169Y-86577518D01*
X153212100Y-86597563D01*
X151942800Y-86969599D01*
X152655094Y-87957621D01*
X152678706Y-88024576D01*
X152662371Y-88093668D01*
X152624607Y-88134902D01*
X152500110Y-88221093D01*
X152432716Y-88243423D01*
X152363949Y-88225772D01*
X152327308Y-88192720D01*
X151587200Y-87198200D01*
X150967808Y-87906075D01*
X150907897Y-87944169D01*
X150836901Y-87943826D01*
X150780870Y-87909075D01*
X150617569Y-87734110D01*
X150585712Y-87670662D01*
X150593214Y-87600063D01*
X150635572Y-87546237D01*
X151358599Y-87020399D01*
X148615400Y-85521800D01*
X148590000Y-89839800D01*
X149472516Y-89212749D01*
X149539632Y-89189599D01*
X149608610Y-89206409D01*
X149630253Y-89222229D01*
X149718611Y-89302554D01*
X149755561Y-89363178D01*
X149753871Y-89434154D01*
X149714076Y-89492949D01*
X149706684Y-89498606D01*
X148615400Y-90271599D01*
X149650176Y-90849149D01*
X149699911Y-90899815D01*
X149714143Y-90946634D01*
X149733505Y-91140253D01*
X149720380Y-91210026D01*
X149671617Y-91261628D01*
X149602697Y-91278674D01*
X149543560Y-91260989D01*
X148183600Y-90449400D01*
X148183599Y-90449400D01*
X147687099Y-91820686D01*
X147645101Y-91877928D01*
X147578822Y-91903377D01*
X147543915Y-91901343D01*
X147423323Y-91877224D01*
X147360448Y-91844251D01*
X147325381Y-91782519D01*
X147329255Y-91711628D01*
X147332816Y-91702673D01*
X147954999Y-90296999D01*
X146424880Y-89763776D01*
X146367135Y-89722471D01*
X146340888Y-89656505D01*
X146354473Y-89586820D01*
X146358299Y-89579968D01*
X146452909Y-89422284D01*
X146505108Y-89374162D01*
X146575038Y-89361900D01*
X146605808Y-89369365D01*
X148107399Y-89941400D01*
X148107400Y-89941399D01*
X148005800Y-85547200D01*
X148005799Y-85547200D01*
X146202400Y-87375999D01*
X146202400Y-87376000D01*
X146795268Y-88174091D01*
X146819833Y-88240702D01*
X146804486Y-88310020D01*
X146779585Y-88341813D01*
X146636362Y-88474019D01*
X146572740Y-88505527D01*
X146502183Y-88497635D01*
X146449213Y-88455838D01*
X145770599Y-87528399D01*
X145071282Y-88600687D01*
X145017316Y-88646819D01*
X144946976Y-88656452D01*
X144907059Y-88643357D01*
X144669615Y-88518387D01*
X144618650Y-88468960D01*
X144602497Y-88399825D01*
X144626286Y-88332932D01*
X144634823Y-88322399D01*
X145719799Y-87122000D01*
X145719799Y-87121999D01*
X144274706Y-86600818D01*
X144217411Y-86558891D01*
X144191879Y-86492644D01*
X144194454Y-86454957D01*
X144240106Y-86249526D01*
X144274409Y-86187367D01*
X144336873Y-86153621D01*
X144407665Y-86159002D01*
X144408950Y-86159496D01*
X145897599Y-86740999D01*
X145897600Y-86740999D01*
X145968631Y-85083605D01*
X145991531Y-85016403D01*
X146047128Y-84972250D01*
X146094515Y-84963000D01*
X146099718Y-84963000D01*
X146167839Y-84983002D01*
X146214332Y-85036658D01*
X146225701Y-85091065D01*
X146202399Y-86512400D01*
X148183599Y-84683600D01*
X148227136Y-79959727D01*
X148179276Y-79998735D01*
X148113835Y-80026267D01*
X148043898Y-80014048D01*
X147991669Y-79965958D01*
X147973678Y-79899904D01*
X147978026Y-79428172D01*
X148745786Y-79428172D01*
X148746296Y-79466622D01*
X148786963Y-79428550D01*
X148745787Y-79428171D01*
X148745786Y-79428172D01*
X147978026Y-79428172D01*
X147980296Y-79181865D01*
X147982944Y-79157307D01*
X147995524Y-79096975D01*
X148014755Y-79051730D01*
X148042341Y-79011257D01*
X148077424Y-78976815D01*
X148118650Y-78949815D01*
X148163672Y-78931530D01*
X148222507Y-78920109D01*
X148246518Y-78917800D01*
X148729989Y-78917800D01*
X148754570Y-78920221D01*
G37*
G36*
X141205242Y-74877854D02*
G01*
X141410673Y-74923506D01*
X141472832Y-74957809D01*
X141506578Y-75020273D01*
X141501197Y-75091065D01*
X141500703Y-75092350D01*
X140919200Y-76580999D01*
X140919200Y-76581000D01*
X142576595Y-76652031D01*
X142643797Y-76674931D01*
X142687950Y-76730528D01*
X142697200Y-76777915D01*
X142697200Y-76783117D01*
X142677198Y-76851238D01*
X142623542Y-76897731D01*
X142569135Y-76909100D01*
X141147799Y-76885799D01*
X142976599Y-78866999D01*
X142976598Y-78866999D01*
X147686161Y-78910405D01*
X147647153Y-78862544D01*
X147619620Y-78797104D01*
X147631839Y-78727166D01*
X147679929Y-78674937D01*
X147745983Y-78656946D01*
X148478334Y-78663696D01*
X148502892Y-78666344D01*
X148563224Y-78678924D01*
X148608469Y-78698155D01*
X148648942Y-78725741D01*
X148683384Y-78760824D01*
X148710384Y-78802050D01*
X148728669Y-78847070D01*
X148740091Y-78905904D01*
X148742400Y-78929917D01*
X148742400Y-79413388D01*
X148739979Y-79437970D01*
X148727954Y-79498421D01*
X148709141Y-79543840D01*
X148681930Y-79584565D01*
X148647165Y-79619330D01*
X148606081Y-79646781D01*
X148561478Y-79665429D01*
X148503499Y-79677361D01*
X148479766Y-79679936D01*
X147725252Y-79689907D01*
X147656873Y-79670807D01*
X147609675Y-79617770D01*
X147598643Y-79547636D01*
X147627281Y-79482671D01*
X147634793Y-79474523D01*
X147672997Y-79436575D01*
X142722600Y-79501999D01*
X141224000Y-82423000D01*
X142305125Y-82220289D01*
X142375765Y-82227395D01*
X142431349Y-82271563D01*
X142453974Y-82334468D01*
X142459829Y-82410590D01*
X142445110Y-82480044D01*
X142395178Y-82530515D01*
X142355973Y-82544358D01*
X141020800Y-82778600D01*
X141418286Y-83690479D01*
X141427170Y-83760918D01*
X141396562Y-83824978D01*
X141391877Y-83829922D01*
X141272644Y-83949155D01*
X141210332Y-83983181D01*
X141139517Y-83978116D01*
X141082681Y-83935569D01*
X141062636Y-83895500D01*
X140690600Y-82626200D01*
X140690599Y-82626199D01*
X139702578Y-83338494D01*
X139635623Y-83362106D01*
X139566531Y-83345771D01*
X139525297Y-83308007D01*
X139439106Y-83183510D01*
X139416776Y-83116116D01*
X139434427Y-83047349D01*
X139467479Y-83010708D01*
X140461999Y-82270600D01*
X139754124Y-81651208D01*
X139716030Y-81591297D01*
X139716373Y-81520301D01*
X139751124Y-81464270D01*
X139926089Y-81300969D01*
X139989537Y-81269112D01*
X140060136Y-81276614D01*
X140113962Y-81318972D01*
X140639800Y-82041999D01*
X142138399Y-79298800D01*
X137820399Y-79273400D01*
X138447450Y-80155916D01*
X138470600Y-80223032D01*
X138453790Y-80292010D01*
X138437970Y-80313653D01*
X138357645Y-80402011D01*
X138297021Y-80438961D01*
X138226045Y-80437271D01*
X138167250Y-80397476D01*
X138161593Y-80390084D01*
X137388599Y-79298800D01*
X136811050Y-80333576D01*
X136760384Y-80383311D01*
X136713565Y-80397543D01*
X136519946Y-80416905D01*
X136450173Y-80403780D01*
X136398571Y-80355017D01*
X136381525Y-80286097D01*
X136399210Y-80226960D01*
X137210799Y-78867000D01*
X137210799Y-78866999D01*
X135839513Y-78370499D01*
X135782271Y-78328501D01*
X135756822Y-78262222D01*
X135758856Y-78227315D01*
X135782975Y-78106723D01*
X135815948Y-78043848D01*
X135877680Y-78008781D01*
X135948571Y-78012655D01*
X135957526Y-78016216D01*
X137363200Y-78638399D01*
X137896423Y-77108280D01*
X137937728Y-77050535D01*
X138003694Y-77024288D01*
X138073379Y-77037873D01*
X138080231Y-77041699D01*
X138237915Y-77136309D01*
X138286037Y-77188508D01*
X138298299Y-77258438D01*
X138290834Y-77289208D01*
X137718799Y-78790799D01*
X137718800Y-78790800D01*
X142112999Y-78689200D01*
X142112999Y-78689199D01*
X140284200Y-76885800D01*
X140284199Y-76885800D01*
X139486108Y-77478668D01*
X139419497Y-77503233D01*
X139350179Y-77487886D01*
X139318386Y-77462985D01*
X139186180Y-77319762D01*
X139154672Y-77256140D01*
X139162564Y-77185583D01*
X139204361Y-77132613D01*
X140131800Y-76453999D01*
X139059512Y-75754682D01*
X139013380Y-75700716D01*
X139003747Y-75630376D01*
X139016842Y-75590459D01*
X139141812Y-75353015D01*
X139191239Y-75302050D01*
X139260374Y-75285897D01*
X139327267Y-75309686D01*
X139337800Y-75318223D01*
X140538199Y-76403199D01*
X140538200Y-76403199D01*
X141059381Y-74958106D01*
X141101308Y-74900811D01*
X141167554Y-74875279D01*
X141205242Y-74877854D01*
G37*
G36*
X151326121Y-75458002D02*
G01*
X151372614Y-75511658D01*
X151384000Y-75564000D01*
X151384000Y-76199998D01*
X151706936Y-75594492D01*
X151756642Y-75543798D01*
X151825864Y-75528025D01*
X151892626Y-75552179D01*
X151910698Y-75568323D01*
X152308272Y-75999028D01*
X152339780Y-76062650D01*
X152331888Y-76133207D01*
X152294399Y-76182880D01*
X151637999Y-76708000D01*
X152274000Y-76708000D01*
X152342121Y-76728002D01*
X152388614Y-76781658D01*
X152400000Y-76834000D01*
X152400000Y-77308622D01*
X152379998Y-77376743D01*
X152326342Y-77423236D01*
X152256068Y-77433340D01*
X152243441Y-77430860D01*
X151384000Y-77215999D01*
X151383999Y-77216000D01*
X151555749Y-77576673D01*
X151566978Y-77646776D01*
X151538523Y-77711821D01*
X151479420Y-77751157D01*
X151446832Y-77756752D01*
X151072078Y-77771166D01*
X151003239Y-77753797D01*
X150954718Y-77701968D01*
X150947701Y-77685104D01*
X150875999Y-77470000D01*
X149430957Y-78905342D01*
X149484799Y-78904631D01*
X149553178Y-78923731D01*
X149600377Y-78976767D01*
X149611409Y-79046901D01*
X149582772Y-79111866D01*
X149575260Y-79120015D01*
X149171503Y-79521063D01*
X149152357Y-79536668D01*
X149100997Y-79570736D01*
X149055515Y-79589397D01*
X149007442Y-79598792D01*
X148958276Y-79598626D01*
X148910274Y-79588909D01*
X148864932Y-79569952D01*
X148863000Y-79568652D01*
X148817649Y-79514027D01*
X148816448Y-79504209D01*
X148786962Y-79428550D01*
X148762951Y-79428329D01*
X148695018Y-79407699D01*
X148672131Y-79388445D01*
X148522417Y-79228523D01*
X148499343Y-79182742D01*
X148473622Y-79157021D01*
X148455833Y-79151798D01*
X148431971Y-79131911D01*
X148247955Y-78935348D01*
X148232924Y-78915750D01*
X148200390Y-78863405D01*
X148183082Y-78817389D01*
X148175114Y-78769061D01*
X148176735Y-78719922D01*
X148187869Y-78672224D01*
X148208168Y-78627450D01*
X148242806Y-78579136D01*
X148262223Y-78557739D01*
X148262720Y-78557304D01*
X148266102Y-78554448D01*
X148543665Y-78328226D01*
X148609105Y-78300693D01*
X148679043Y-78312912D01*
X148731272Y-78361002D01*
X148749263Y-78427056D01*
X148748694Y-78488795D01*
X150622000Y-76962000D01*
X150622000Y-76961999D01*
X149961289Y-76829857D01*
X149898414Y-76796884D01*
X149863347Y-76735152D01*
X149860000Y-76706304D01*
X149860000Y-76368163D01*
X149880002Y-76300042D01*
X149933658Y-76253549D01*
X150003932Y-76243445D01*
X150021393Y-76247236D01*
X150901399Y-76504799D01*
X150459174Y-75620349D01*
X150446600Y-75550475D01*
X150473799Y-75484895D01*
X150532135Y-75444430D01*
X150571872Y-75438000D01*
X151258000Y-75438000D01*
X151326121Y-75458002D01*
G37*
G36*
X155837282Y-74365483D02*
G01*
X155894118Y-74408030D01*
X155914163Y-74448099D01*
X156286199Y-75717399D01*
X157274221Y-75005105D01*
X157341176Y-74981493D01*
X157410268Y-74997828D01*
X157451502Y-75035592D01*
X157537693Y-75160089D01*
X157560023Y-75227483D01*
X157542372Y-75296250D01*
X157509320Y-75332891D01*
X156514800Y-76072999D01*
X157222675Y-76692391D01*
X157260769Y-76752302D01*
X157260426Y-76823298D01*
X157225675Y-76879329D01*
X157050710Y-77042630D01*
X156987262Y-77074487D01*
X156916663Y-77066985D01*
X156862837Y-77024627D01*
X156336999Y-76301600D01*
X154838400Y-79044799D01*
X159156400Y-79070199D01*
X158529349Y-78187683D01*
X158506199Y-78120567D01*
X158523009Y-78051589D01*
X158538829Y-78029946D01*
X158619154Y-77941588D01*
X158679778Y-77904638D01*
X158750754Y-77906328D01*
X158809549Y-77946123D01*
X158815206Y-77953515D01*
X159588199Y-79044799D01*
X160165749Y-78010023D01*
X160216415Y-77960288D01*
X160263234Y-77946056D01*
X160456853Y-77926694D01*
X160526626Y-77939819D01*
X160578228Y-77988582D01*
X160595274Y-78057502D01*
X160577589Y-78116639D01*
X159766000Y-79476599D01*
X161137286Y-79973099D01*
X161194528Y-80015098D01*
X161219977Y-80081376D01*
X161217943Y-80116284D01*
X161193824Y-80236876D01*
X161160851Y-80299751D01*
X161099119Y-80334818D01*
X161028228Y-80330944D01*
X161019273Y-80327383D01*
X159613599Y-79705200D01*
X159080376Y-81235320D01*
X159039071Y-81293064D01*
X158973104Y-81319311D01*
X158903420Y-81305726D01*
X158896568Y-81301900D01*
X158738884Y-81207290D01*
X158690762Y-81155091D01*
X158678500Y-81085161D01*
X158685965Y-81054391D01*
X159258000Y-79552800D01*
X159257999Y-79552799D01*
X154863800Y-79654399D01*
X154863800Y-79654400D01*
X156692599Y-81457799D01*
X156692600Y-81457799D01*
X157490691Y-80864931D01*
X157557302Y-80840366D01*
X157626620Y-80855713D01*
X157658413Y-80880614D01*
X157790619Y-81023837D01*
X157822127Y-81087459D01*
X157814235Y-81158016D01*
X157772438Y-81210986D01*
X156844999Y-81889600D01*
X157917287Y-82588917D01*
X157963419Y-82642883D01*
X157973052Y-82713223D01*
X157959957Y-82753140D01*
X157834987Y-82990584D01*
X157785560Y-83041549D01*
X157716425Y-83057702D01*
X157649532Y-83033913D01*
X157638999Y-83025376D01*
X156438600Y-81940400D01*
X156438599Y-81940400D01*
X155917418Y-83385493D01*
X155875491Y-83442788D01*
X155809244Y-83468320D01*
X155771557Y-83465745D01*
X155566126Y-83420093D01*
X155503967Y-83385790D01*
X155470221Y-83323326D01*
X155475602Y-83252534D01*
X155476096Y-83251249D01*
X156057599Y-81762600D01*
X156057599Y-81762599D01*
X154400205Y-81691568D01*
X154333003Y-81668668D01*
X154288850Y-81613071D01*
X154279600Y-81565684D01*
X154279600Y-81560482D01*
X154299602Y-81492361D01*
X154353258Y-81445868D01*
X154407665Y-81434499D01*
X155829000Y-81457800D01*
X154000200Y-79476600D01*
X149290119Y-79433188D01*
X149329128Y-79481050D01*
X149356660Y-79546491D01*
X149344441Y-79616428D01*
X149296351Y-79668657D01*
X149230297Y-79686648D01*
X148832970Y-79682986D01*
X148765036Y-79662357D01*
X148734168Y-79626063D01*
X148687833Y-79668357D01*
X148631388Y-79681128D01*
X148498465Y-79679903D01*
X148473907Y-79677255D01*
X148413575Y-79664675D01*
X148368330Y-79645444D01*
X148327857Y-79617858D01*
X148293415Y-79582775D01*
X148266415Y-79541549D01*
X148248130Y-79496527D01*
X148236709Y-79437693D01*
X148235793Y-79428171D01*
X148745788Y-79428171D01*
X148746298Y-79466780D01*
X148748021Y-79465007D01*
X148786963Y-79428551D01*
X148745788Y-79428171D01*
X148235793Y-79428171D01*
X148234400Y-79413682D01*
X148234400Y-78930211D01*
X148236821Y-78905631D01*
X148248845Y-78845180D01*
X148267658Y-78799759D01*
X148294869Y-78759034D01*
X148329634Y-78724269D01*
X148370718Y-78696818D01*
X148415321Y-78678170D01*
X148473300Y-78666238D01*
X148497033Y-78663663D01*
X149378702Y-78652011D01*
X149447081Y-78671111D01*
X149494279Y-78724148D01*
X149505311Y-78794282D01*
X149476674Y-78859247D01*
X149469162Y-78867395D01*
X149430957Y-78905343D01*
X154254199Y-78841600D01*
X155752799Y-75920599D01*
X154671674Y-76123310D01*
X154601034Y-76116204D01*
X154545449Y-76072036D01*
X154522825Y-76009131D01*
X154516970Y-75933009D01*
X154531689Y-75863555D01*
X154581621Y-75813084D01*
X154620826Y-75799241D01*
X155955999Y-75564999D01*
X155558513Y-74653120D01*
X155549629Y-74582681D01*
X155580237Y-74518621D01*
X155584922Y-74513677D01*
X155704155Y-74394444D01*
X155766467Y-74360418D01*
X155837282Y-74365483D01*
G37*
G36*
X149432884Y-66442256D02*
G01*
X149553476Y-66466375D01*
X149616351Y-66499348D01*
X149651418Y-66561080D01*
X149647544Y-66631971D01*
X149643983Y-66640926D01*
X149021800Y-68046600D01*
X150551919Y-68579823D01*
X150609664Y-68621128D01*
X150635911Y-68687094D01*
X150622326Y-68756779D01*
X150618500Y-68763631D01*
X150523890Y-68921315D01*
X150471691Y-68969437D01*
X150401761Y-68981699D01*
X150370991Y-68974234D01*
X148869400Y-68402199D01*
X148869399Y-68402200D01*
X148970999Y-72796399D01*
X148971000Y-72796399D01*
X150774399Y-70967600D01*
X150774399Y-70967599D01*
X150181531Y-70169508D01*
X150156966Y-70102897D01*
X150172313Y-70033579D01*
X150197214Y-70001786D01*
X150340437Y-69869580D01*
X150404059Y-69838072D01*
X150474616Y-69845964D01*
X150527586Y-69887761D01*
X151206200Y-70815200D01*
X151905517Y-69742912D01*
X151959483Y-69696780D01*
X152029823Y-69687147D01*
X152069740Y-69700242D01*
X152307184Y-69825212D01*
X152358149Y-69874639D01*
X152374302Y-69943774D01*
X152350513Y-70010667D01*
X152341976Y-70021200D01*
X151257000Y-71221599D01*
X151257000Y-71221600D01*
X152702093Y-71742781D01*
X152759388Y-71784708D01*
X152784920Y-71850954D01*
X152782345Y-71888642D01*
X152736693Y-72094073D01*
X152702390Y-72156232D01*
X152639926Y-72189978D01*
X152569134Y-72184597D01*
X152567849Y-72184103D01*
X151079200Y-71602600D01*
X151079199Y-71602600D01*
X151008169Y-73259995D01*
X150985269Y-73327197D01*
X150929672Y-73371350D01*
X150882285Y-73380600D01*
X150877082Y-73380600D01*
X150808961Y-73360598D01*
X150762468Y-73306942D01*
X150751099Y-73252535D01*
X150774400Y-71831199D01*
X148793200Y-73659999D01*
X148748694Y-78488795D01*
X148796554Y-78449788D01*
X148861994Y-78422256D01*
X148931932Y-78434473D01*
X148984161Y-78482563D01*
X149002153Y-78548618D01*
X148996503Y-79161734D01*
X148993855Y-79186292D01*
X148981275Y-79246624D01*
X148962044Y-79291869D01*
X148934458Y-79332342D01*
X148899375Y-79366784D01*
X148858149Y-79393784D01*
X148813129Y-79412069D01*
X148754295Y-79423491D01*
X148730282Y-79425800D01*
X148246811Y-79425800D01*
X148222229Y-79423379D01*
X148161778Y-79411354D01*
X148116359Y-79392541D01*
X148075634Y-79365330D01*
X148040869Y-79330565D01*
X148013418Y-79289481D01*
X147994770Y-79244878D01*
X147982838Y-79186899D01*
X147980263Y-79163166D01*
X147970512Y-78425341D01*
X147989612Y-78356962D01*
X148042649Y-78309764D01*
X148112783Y-78298732D01*
X148177748Y-78327369D01*
X148185896Y-78334881D01*
X148223844Y-78373085D01*
X148158200Y-73406000D01*
X145237199Y-71907400D01*
X145439910Y-72988525D01*
X145432804Y-73059165D01*
X145388636Y-73114749D01*
X145325731Y-73137374D01*
X145249609Y-73143229D01*
X145180155Y-73128510D01*
X145129684Y-73078578D01*
X145115841Y-73039373D01*
X144881599Y-71704200D01*
X143969720Y-72101686D01*
X143899281Y-72110570D01*
X143835221Y-72079962D01*
X143830277Y-72075277D01*
X143711044Y-71956044D01*
X143677018Y-71893732D01*
X143682083Y-71822917D01*
X143724630Y-71766081D01*
X143764699Y-71746036D01*
X145033999Y-71374000D01*
X144321705Y-70385978D01*
X144298093Y-70319023D01*
X144314428Y-70249931D01*
X144352192Y-70208697D01*
X144476689Y-70122506D01*
X144544083Y-70100176D01*
X144612850Y-70117827D01*
X144649491Y-70150879D01*
X145389599Y-71145399D01*
X146008991Y-70437524D01*
X146068902Y-70399430D01*
X146139898Y-70399773D01*
X146195929Y-70434524D01*
X146359230Y-70609489D01*
X146391087Y-70672937D01*
X146383585Y-70743536D01*
X146341227Y-70797362D01*
X145618200Y-71323200D01*
X148361399Y-72821799D01*
X148386799Y-68503799D01*
X147504283Y-69130850D01*
X147437167Y-69154000D01*
X147368189Y-69137190D01*
X147346546Y-69121370D01*
X147258188Y-69041045D01*
X147221238Y-68980421D01*
X147222928Y-68909445D01*
X147262723Y-68850650D01*
X147270115Y-68844993D01*
X148361399Y-68071999D01*
X147326623Y-67494450D01*
X147276888Y-67443784D01*
X147262656Y-67396965D01*
X147243294Y-67203346D01*
X147256419Y-67133573D01*
X147305182Y-67081971D01*
X147374102Y-67064925D01*
X147433239Y-67082610D01*
X148793199Y-67894199D01*
X149289699Y-66522913D01*
X149331698Y-66465671D01*
X149397976Y-66440222D01*
X149432884Y-66442256D01*
G37*
M02*
